# corsair_lancer: generated by tools/make_models.py (placeholder)
o deck
usemtl deck
s off
v 0.0172 0.3000 -2.5000
v -0.2145 0.2703 -1.9444
v 0.2145 0.2703 -1.9444
vn 0.0000 0.9986 0.0534
f 1//1 2//1 3//1
v 0.0172 0.3000 -2.5000
v -0.0172 0.3000 -2.5000
v -0.2145 0.2703 -1.9444
vn 0.0000 0.9986 0.0534
f 4//2 5//2 6//2
v 0.2145 0.2703 -1.9444
v -0.3484 0.2475 -1.3889
v 0.3484 0.2475 -1.3889
vn 0.0000 0.9992 0.0409
f 7//3 8//3 9//3
v 0.2145 0.2703 -1.9444
v -0.2145 0.2703 -1.9444
v -0.3484 0.2475 -1.3889
vn 0.0000 0.9992 0.0409
f 10//4 11//4 12//4
v 0.3484 0.2475 -1.3889
v -0.4628 0.2321 -0.8333
v 0.4628 0.2321 -0.8333
vn 0.0000 0.9996 0.0278
f 13//5 14//5 15//5
v 0.3484 0.2475 -1.3889
v -0.3484 0.2475 -1.3889
v -0.4628 0.2321 -0.8333
vn 0.0000 0.9996 0.0278
f 16//6 17//6 18//6
v 0.4628 0.2321 -0.8333
v -0.5660 0.2250 -0.2778
v 0.5660 0.2250 -0.2778
vn 0.0000 0.9999 0.0129
f 19//7 20//7 21//7
v 0.4628 0.2321 -0.8333
v -0.4628 0.2321 -0.8333
v -0.5660 0.2250 -0.2778
vn 0.0000 0.9999 0.0129
f 22//8 23//8 24//8
v 0.5660 0.2250 -0.2778
v -0.5750 0.2278 0.2778
v 0.5750 0.2278 0.2778
vn 0.0000 1.0000 -0.0052
f 25//9 26//9 27//9
v 0.5660 0.2250 -0.2778
v -0.5660 0.2250 -0.2778
v -0.5750 0.2278 0.2778
vn 0.0000 1.0000 -0.0052
f 28//10 29//10 30//10
v 0.5750 0.2278 0.2778
v -0.5558 0.2432 0.8333
v 0.5558 0.2432 0.8333
vn 0.0000 0.9996 -0.0277
f 31//11 32//11 33//11
v 0.5750 0.2278 0.2778
v -0.5750 0.2278 0.2778
v -0.5558 0.2432 0.8333
vn 0.0000 0.9996 -0.0277
f 34//12 35//12 36//12
v 0.5558 0.2432 0.8333
v -0.5239 0.2743 1.3889
v 0.5239 0.2743 1.3889
vn 0.0000 0.9984 -0.0559
f 37//13 38//13 39//13
v 0.5558 0.2432 0.8333
v -0.5558 0.2432 0.8333
v -0.5239 0.2743 1.3889
vn 0.0000 0.9984 -0.0559
f 40//14 41//14 42//14
v 0.5239 0.2743 1.3889
v -0.4919 0.3250 1.9444
v 0.4919 0.3250 1.9444
vn 0.0000 0.9959 -0.0909
f 43//15 44//15 45//15
v 0.5239 0.2743 1.3889
v -0.5239 0.2743 1.3889
v -0.4919 0.3250 1.9444
vn 0.0000 0.9959 -0.0909
f 46//16 47//16 48//16
v 0.4919 0.3250 1.9444
v -0.4600 0.4000 2.5000
v 0.4600 0.4000 2.5000
vn 0.0000 0.9910 -0.1338
f 49//17 50//17 51//17
v 0.4919 0.3250 1.9444
v -0.4919 0.3250 1.9444
v -0.4600 0.4000 2.5000
vn 0.0000 0.9910 -0.1338
f 52//18 53//18 54//18
o hull
usemtl hull
s off
v -0.0172 0.3000 -2.5000
v -0.1857 -0.0471 -1.9444
v -0.2145 0.2703 -1.9444
vn -0.9375 -0.0849 -0.3374
f 55//19 56//19 57//19
v -0.0172 0.3000 -2.5000
v -0.0149 0.0978 -2.5000
v -0.1857 -0.0471 -1.9444
vn -0.9550 -0.0109 -0.2965
f 58//20 59//20 60//20
v -0.0149 0.0978 -2.5000
v -0.1072 -0.2089 -1.9444
v -0.1857 -0.0471 -1.9444
vn -0.8381 -0.4066 -0.3638
f 61//21 62//21 63//21
v -0.0149 0.0978 -2.5000
v -0.0086 -0.0052 -2.5000
v -0.1072 -0.2089 -1.9444
vn -0.9788 -0.0600 -0.1957
f 64//22 65//22 66//22
v -0.0086 -0.0052 -2.5000
v 0.0000 -0.2635 -1.9444
v -0.1072 -0.2089 -1.9444
vn -0.4201 -0.8254 -0.3772
f 67//23 68//23 69//23
v -0.0086 -0.0052 -2.5000
v 0.0000 -0.0400 -2.5000
v 0.0000 -0.2635 -1.9444
vn -0.9661 -0.2396 -0.0964
f 70//24 71//24 72//24
v 0.0000 -0.0400 -2.5000
v 0.1072 -0.2089 -1.9444
v 0.0000 -0.2635 -1.9444
vn 0.4270 -0.8389 -0.3375
f 73//25 74//25 75//25
v 0.0000 -0.0400 -2.5000
v 0.0086 -0.0052 -2.5000
v 0.1072 -0.2089 -1.9444
vn 0.9392 -0.2330 -0.2521
f 76//26 77//26 78//26
v 0.0086 -0.0052 -2.5000
v 0.1857 -0.0471 -1.9444
v 0.1072 -0.2089 -1.9444
vn 0.8570 -0.4158 -0.3046
f 79//27 80//27 81//27
v 0.0086 -0.0052 -2.5000
v 0.0149 0.0978 -2.5000
v 0.1857 -0.0471 -1.9444
vn 0.9499 -0.0582 -0.3072
f 82//28 83//28 84//28
v 0.0149 0.0978 -2.5000
v 0.2145 0.2703 -1.9444
v 0.1857 -0.0471 -1.9444
vn 0.9458 -0.0856 -0.3131
f 85//29 86//29 87//29
v 0.0149 0.0978 -2.5000
v 0.0172 0.3000 -2.5000
v 0.2145 0.2703 -1.9444
vn 0.9421 -0.0108 -0.3351
f 88//30 89//30 90//30
v -0.2145 0.2703 -1.9444
v -0.3017 -0.1212 -1.3889
v -0.3484 0.2475 -1.3889
vn -0.9637 -0.1220 -0.2373
f 91//31 92//31 93//31
v -0.2145 0.2703 -1.9444
v -0.1857 -0.0471 -1.9444
v -0.3017 -0.1212 -1.3889
vn -0.9727 -0.0881 -0.2148
f 94//32 95//32 96//32
v -0.1857 -0.0471 -1.9444
v -0.1742 -0.3093 -1.3889
v -0.3017 -0.1212 -1.3889
vn -0.8033 -0.5449 -0.2404
f 97//33 98//33 99//33
v -0.1857 -0.0471 -1.9444
v -0.1072 -0.2089 -1.9444
v -0.1742 -0.3093 -1.3889
vn -0.8843 -0.4291 -0.1841
f 100//34 101//34 102//34
v -0.1072 -0.2089 -1.9444
v 0.0000 -0.3727 -1.3889
v -0.1742 -0.3093 -1.3889
vn -0.3347 -0.9194 -0.2064
f 103//35 104//35 105//35
v -0.1072 -0.2089 -1.9444
v 0.0000 -0.2635 -1.9444
v 0.0000 -0.3727 -1.3889
vn -0.4468 -0.8778 -0.1725
f 106//36 107//36 108//36
v 0.0000 -0.2635 -1.9444
v 0.1742 -0.3093 -1.3889
v 0.0000 -0.3727 -1.3889
vn 0.3364 -0.9240 -0.1816
f 109//37 110//37 111//37
v 0.0000 -0.2635 -1.9444
v 0.1072 -0.2089 -1.9444
v 0.1742 -0.3093 -1.3889
vn 0.4434 -0.8712 -0.2108
f 112//38 113//38 114//38
v 0.1072 -0.2089 -1.9444
v 0.3017 -0.1212 -1.3889
v 0.1742 -0.3093 -1.3889
vn 0.8113 -0.5504 -0.1972
f 115//39 116//39 117//39
v 0.1072 -0.2089 -1.9444
v 0.1857 -0.0471 -1.9444
v 0.3017 -0.1212 -1.3889
vn 0.8736 -0.4239 -0.2390
f 118//40 119//40 120//40
v 0.1857 -0.0471 -1.9444
v 0.3484 0.2475 -1.3889
v 0.3017 -0.1212 -1.3889
vn 0.9681 -0.1225 -0.2185
f 121//41 122//41 123//41
v 0.1857 -0.0471 -1.9444
v 0.2145 0.2703 -1.9444
v 0.3484 0.2475 -1.3889
vn 0.9676 -0.0876 -0.2369
f 124//42 125//42 126//42
v -0.3484 0.2475 -1.3889
v -0.4008 -0.1773 -0.8333
v -0.4628 0.2321 -0.8333
vn -0.9681 -0.1466 -0.2033
f 127//43 128//43 129//43
v -0.3484 0.2475 -1.3889
v -0.3017 -0.1212 -1.3889
v -0.4008 -0.1773 -0.8333
vn -0.9747 -0.1234 -0.1862
f 130//44 131//44 132//44
v -0.3017 -0.1212 -1.3889
v -0.2314 -0.3860 -0.8333
v -0.4008 -0.1773 -0.8333
vn -0.7611 -0.6177 -0.1980
f 133//45 134//45 135//45
v -0.3017 -0.1212 -1.3889
v -0.1742 -0.3093 -1.3889
v -0.2314 -0.3860 -0.8333
vn -0.8168 -0.5541 -0.1606
f 136//46 137//46 138//46
v -0.1742 -0.3093 -1.3889
v 0.0000 -0.4564 -0.8333
v -0.2314 -0.3860 -0.8333
vn -0.2874 -0.9443 -0.1601
f 139//47 140//47 141//47
v -0.1742 -0.3093 -1.3889
v 0.0000 -0.3727 -1.3889
v 0.0000 -0.4564 -0.8333
vn -0.3387 -0.9304 -0.1403
f 142//48 143//48 144//48
v 0.0000 -0.3727 -1.3889
v 0.2314 -0.3860 -0.8333
v 0.0000 -0.4564 -0.8333
vn 0.2881 -0.9469 -0.1428
f 145//49 146//49 147//49
v 0.0000 -0.3727 -1.3889
v 0.1742 -0.3093 -1.3889
v 0.2314 -0.3860 -0.8333
vn 0.3375 -0.9271 -0.1629
f 148//50 149//50 150//50
v 0.1742 -0.3093 -1.3889
v 0.4008 -0.1773 -0.8333
v 0.2314 -0.3860 -0.8333
vn 0.7659 -0.6216 -0.1647
f 151//51 152//51 153//51
v 0.1742 -0.3093 -1.3889
v 0.3017 -0.1212 -1.3889
v 0.4008 -0.1773 -0.8333
vn 0.8108 -0.5500 -0.2000
f 154//52 155//52 156//52
v 0.3017 -0.1212 -1.3889
v 0.4628 0.2321 -0.8333
v 0.4008 -0.1773 -0.8333
vn 0.9711 -0.1471 -0.1880
f 157//53 158//53 159//53
v 0.3017 -0.1212 -1.3889
v 0.3484 0.2475 -1.3889
v 0.4628 0.2321 -0.8333
vn 0.9714 -0.1230 -0.2034
f 160//54 161//54 162//54
v -0.4628 0.2321 -0.8333
v -0.4902 -0.2061 -0.2778
v -0.5660 0.2250 -0.2778
vn -0.9684 -0.1704 -0.1822
f 163//55 164//55 165//55
v -0.4628 0.2321 -0.8333
v -0.4008 -0.1773 -0.8333
v -0.4902 -0.2061 -0.2778
vn -0.9752 -0.1477 -0.1646
f 166//56 167//56 168//56
v -0.4008 -0.1773 -0.8333
v -0.2830 -0.4259 -0.2778
v -0.4902 -0.2061 -0.2778
vn -0.7193 -0.6781 -0.1509
f 169//57 170//57 171//57
v -0.4008 -0.1773 -0.8333
v -0.2314 -0.3860 -0.8333
v -0.2830 -0.4259 -0.2778
vn -0.7712 -0.6259 -0.1165
f 172//58 173//58 174//58
v -0.2314 -0.3860 -0.8333
v 0.0000 -0.5000 -0.2778
v -0.2830 -0.4259 -0.2778
vn -0.2523 -0.9632 -0.0925
f 175//59 176//59 177//59
v -0.2314 -0.3860 -0.8333
v 0.0000 -0.4564 -0.8333
v 0.0000 -0.5000 -0.2778
vn -0.2903 -0.9540 -0.0748
f 178//60 179//60 180//60
v 0.0000 -0.4564 -0.8333
v 0.2830 -0.4259 -0.2778
v 0.0000 -0.5000 -0.2778
vn 0.2527 -0.9646 -0.0756
f 181//61 182//61 183//61
v 0.0000 -0.4564 -0.8333
v 0.2314 -0.3860 -0.8333
v 0.2830 -0.4259 -0.2778
vn 0.2898 -0.9523 -0.0952
f 184//62 185//62 186//62
v 0.2314 -0.3860 -0.8333
v 0.4902 -0.2061 -0.2778
v 0.2830 -0.4259 -0.2778
vn 0.7227 -0.6813 -0.1160
f 187//63 188//63 189//63
v 0.2314 -0.3860 -0.8333
v 0.4008 -0.1773 -0.8333
v 0.4902 -0.2061 -0.2778
vn 0.7670 -0.6225 -0.1557
f 190//64 191//64 192//64
v 0.4008 -0.1773 -0.8333
v 0.5660 0.2250 -0.2778
v 0.4902 -0.2061 -0.2778
vn 0.9713 -0.1709 -0.1652
f 193//65 194//65 195//65
v 0.4008 -0.1773 -0.8333
v 0.4628 0.2321 -0.8333
v 0.5660 0.2250 -0.2778
vn 0.9721 -0.1472 -0.1825
f 196//66 197//66 198//66
v -0.5660 0.2250 -0.2778
v -0.4980 -0.2049 0.2778
v -0.5750 0.2278 0.2778
vn -0.9844 -0.1752 -0.0150
f 199//67 200//67 201//67
v -0.5660 0.2250 -0.2778
v -0.4902 -0.2061 -0.2778
v -0.4980 -0.2049 0.2778
vn -0.9848 -0.1732 -0.0134
f 202//68 203//68 204//68
v -0.4902 -0.2061 -0.2778
v -0.2875 -0.4256 0.2778
v -0.4980 -0.2049 0.2778
vn -0.7235 -0.6902 -0.0087
f 205//69 206//69 207//69
v -0.4902 -0.2061 -0.2778
v -0.2830 -0.4259 -0.2778
v -0.2875 -0.4256 0.2778
vn -0.7276 -0.6860 -0.0055
f 208//70 209//70 210//70
v -0.2830 -0.4259 -0.2778
v 0.0000 -0.5000 0.2778
v -0.2875 -0.4256 0.2778
vn -0.2506 -0.9681 -0.0015
f 211//71 212//71 213//71
v -0.2830 -0.4259 -0.2778
v 0.0000 -0.5000 -0.2778
v 0.0000 -0.5000 0.2778
vn -0.2534 -0.9674 0.0000
f 214//72 215//72 216//72
v 0.0000 -0.5000 -0.2778
v 0.2875 -0.4256 0.2778
v 0.0000 -0.5000 0.2778
vn 0.2506 -0.9681 0.0000
f 217//73 218//73 219//73
v 0.0000 -0.5000 -0.2778
v 0.2830 -0.4259 -0.2778
v 0.2875 -0.4256 0.2778
vn 0.2534 -0.9674 -0.0015
f 220//74 221//74 222//74
v 0.2830 -0.4259 -0.2778
v 0.4980 -0.2049 0.2778
v 0.2875 -0.4256 0.2778
vn 0.7236 -0.6902 -0.0055
f 223//75 224//75 225//75
v 0.2830 -0.4259 -0.2778
v 0.4902 -0.2061 -0.2778
v 0.4980 -0.2049 0.2778
vn 0.7276 -0.6860 -0.0087
f 226//76 227//76 228//76
v 0.4902 -0.2061 -0.2778
v 0.5750 0.2278 0.2778
v 0.4980 -0.2049 0.2778
vn 0.9844 -0.1752 -0.0134
f 229//77 230//77 231//77
v 0.4902 -0.2061 -0.2778
v 0.5660 0.2250 -0.2778
v 0.5750 0.2278 0.2778
vn 0.9848 -0.1732 -0.0150
f 232//78 233//78 234//78
v -0.5750 0.2278 0.2778
v -0.4814 -0.1987 0.8333
v -0.5558 0.2432 0.8333
vn -0.9854 -0.1660 0.0386
f 235//79 236//79 237//79
v -0.5750 0.2278 0.2778
v -0.4980 -0.2049 0.2778
v -0.4814 -0.1987 0.8333
vn -0.9840 -0.1752 0.0314
f 238//80 239//80 240//80
v -0.4980 -0.2049 0.2778
v -0.2779 -0.4240 0.8333
v -0.4814 -0.1987 0.8333
vn -0.7418 -0.6699 0.0297
f 241//81 242//81 243//81
v -0.4980 -0.2049 0.2778
v -0.2875 -0.4256 0.2778
v -0.2779 -0.4240 0.8333
vn -0.7235 -0.6902 0.0144
f 244//82 245//82 246//82
v -0.2875 -0.4256 0.2778
v 0.0000 -0.5000 0.8333
v -0.2779 -0.4240 0.8333
vn -0.2638 -0.9646 0.0073
f 247//83 248//83 249//83
v -0.2875 -0.4256 0.2778
v 0.0000 -0.5000 0.2778
v 0.0000 -0.5000 0.8333
vn -0.2506 -0.9681 0.0000
f 250//84 251//84 252//84
v 0.0000 -0.5000 0.2778
v 0.2779 -0.4240 0.8333
v 0.0000 -0.5000 0.8333
vn 0.2638 -0.9646 0.0000
f 253//85 254//85 255//85
v 0.0000 -0.5000 0.2778
v 0.2875 -0.4256 0.2778
v 0.2779 -0.4240 0.8333
vn 0.2506 -0.9681 0.0071
f 256//86 257//86 258//86
v 0.2875 -0.4256 0.2778
v 0.4814 -0.1987 0.8333
v 0.2779 -0.4240 0.8333
vn 0.7421 -0.6701 0.0147
f 259//87 260//87 261//87
v 0.2875 -0.4256 0.2778
v 0.4980 -0.2049 0.2778
v 0.4814 -0.1987 0.8333
vn 0.7233 -0.6899 0.0294
f 262//88 263//88 264//88
v 0.4980 -0.2049 0.2778
v 0.5558 0.2432 0.8333
v 0.4814 -0.1987 0.8333
vn 0.9856 -0.1661 0.0313
f 265//89 266//89 267//89
v 0.4980 -0.2049 0.2778
v 0.5750 0.2278 0.2778
v 0.5558 0.2432 0.8333
vn 0.9838 -0.1751 0.0388
f 268//90 269//90 270//90
v -0.5558 0.2432 0.8333
v -0.4537 -0.1745 1.3889
v -0.5239 0.2743 1.3889
vn -0.9859 -0.1542 0.0653
f 271//91 272//91 273//91
v -0.5558 0.2432 0.8333
v -0.4814 -0.1987 0.8333
v -0.4537 -0.1745 1.3889
vn -0.9845 -0.1659 0.0562
f 274//92 275//92 276//92
v -0.4814 -0.1987 0.8333
v -0.2619 -0.4034 1.3889
v -0.4537 -0.1745 1.3889
vn -0.7648 -0.6409 0.0660
f 277//93 278//93 279//93
v -0.4814 -0.1987 0.8333
v -0.2779 -0.4240 0.8333
v -0.2619 -0.4034 1.3889
vn -0.7414 -0.6695 0.0462
f 280//94 281//94 282//94
v -0.2779 -0.4240 0.8333
v 0.0000 -0.4806 1.3889
v -0.2619 -0.4034 1.3889
vn -0.2824 -0.9583 0.0437
f 283//95 284//95 285//95
v -0.2779 -0.4240 0.8333
v 0.0000 -0.5000 0.8333
v 0.0000 -0.4806 1.3889
vn -0.2636 -0.9640 0.0337
f 286//96 287//96 288//96
v 0.0000 -0.5000 0.8333
v 0.2619 -0.4034 1.3889
v 0.0000 -0.4806 1.3889
vn 0.2825 -0.9587 0.0336
f 289//97 290//97 291//97
v 0.0000 -0.5000 0.8333
v 0.2779 -0.4240 0.8333
v 0.2619 -0.4034 1.3889
vn 0.2635 -0.9637 0.0434
f 292//98 293//98 294//98
v 0.2779 -0.4240 0.8333
v 0.4537 -0.1745 1.3889
v 0.2619 -0.4034 1.3889
vn 0.7656 -0.6416 0.0458
f 295//99 296//99 297//99
v 0.2779 -0.4240 0.8333
v 0.4814 -0.1987 0.8333
v 0.4537 -0.1745 1.3889
vn 0.7405 -0.6688 0.0660
f 298//100 299//100 300//100
v 0.4814 -0.1987 0.8333
v 0.5239 0.2743 1.3889
v 0.4537 -0.1745 1.3889
vn 0.9865 -0.1543 0.0558
f 301//101 302//101 303//101
v 0.4814 -0.1987 0.8333
v 0.5558 0.2432 0.8333
v 0.5239 0.2743 1.3889
vn 0.9840 -0.1658 0.0659
f 304//102 305//102 306//102
v -0.5239 0.2743 1.3889
v -0.4260 -0.1077 1.9444
v -0.4919 0.3250 1.9444
vn -0.9861 -0.1502 0.0704
f 307//103 308//103 309//103
v -0.5239 0.2743 1.3889
v -0.4537 -0.1745 1.3889
v -0.4260 -0.1077 1.9444
vn -0.9857 -0.1541 0.0676
f 310//104 311//104 312//104
v -0.4537 -0.1745 1.3889
v -0.2460 -0.3284 1.9444
v -0.4260 -0.1077 1.9444
vn -0.7697 -0.6282 0.1139
f 313//105 314//105 315//105
v -0.4537 -0.1745 1.3889
v -0.2619 -0.4034 1.3889
v -0.2460 -0.3284 1.9444
vn -0.7620 -0.6385 0.1081
f 316//106 317//106 318//106
v -0.2619 -0.4034 1.3889
v 0.0000 -0.4028 1.9444
v -0.2460 -0.3284 1.9444
vn -0.2869 -0.9482 0.1363
f 319//107 320//107 321//107
v -0.2619 -0.4034 1.3889
v 0.0000 -0.4806 1.3889
v 0.0000 -0.4028 1.9444
vn -0.2802 -0.9507 0.1331
f 322//108 323//108 324//108
v 0.0000 -0.4806 1.3889
v 0.2460 -0.3284 1.9444
v 0.0000 -0.4028 1.9444
vn 0.2870 -0.9487 0.1328
f 325//109 326//109 327//109
v 0.0000 -0.4806 1.3889
v 0.2619 -0.4034 1.3889
v 0.2460 -0.3284 1.9444
vn 0.2800 -0.9503 0.1364
f 328//110 329//110 330//110
v 0.2619 -0.4034 1.3889
v 0.4260 -0.1077 1.9444
v 0.2460 -0.3284 1.9444
vn 0.7703 -0.6287 0.1070
f 331//111 332//111 333//111
v 0.2619 -0.4034 1.3889
v 0.4537 -0.1745 1.3889
v 0.4260 -0.1077 1.9444
vn 0.7614 -0.6381 0.1146
f 334//112 335//112 336//112
v 0.4537 -0.1745 1.3889
v 0.4919 0.3250 1.9444
v 0.4260 -0.1077 1.9444
vn 0.9864 -0.1502 0.0672
f 337//113 338//113 339//113
v 0.4537 -0.1745 1.3889
v 0.5239 0.2743 1.3889
v 0.4919 0.3250 1.9444
vn 0.9855 -0.1541 0.0707
f 340//114 341//114 342//114
v -0.4919 0.3250 1.9444
v -0.3984 -0.0311 2.5000
v -0.4600 0.4000 2.5000
vn -0.9871 -0.1411 0.0758
f 343//115 344//115 345//115
v -0.4919 0.3250 1.9444
v -0.4260 -0.1077 1.9444
v -0.3984 -0.0311 2.5000
vn -0.9862 -0.1502 0.0698
f 346//116 347//116 348//116
v -0.4260 -0.1077 1.9444
v -0.2300 -0.2509 2.5000
v -0.3984 -0.0311 2.5000
vn -0.7878 -0.6036 0.1225
f 349//117 350//117 351//117
v -0.4260 -0.1077 1.9444
v -0.2460 -0.3284 1.9444
v -0.2300 -0.2509 2.5000
vn -0.7700 -0.6285 0.1098
f 352//118 353//118 354//118
v -0.2460 -0.3284 1.9444
v 0.0000 -0.3250 2.5000
v -0.2300 -0.2509 2.5000
vn -0.3038 -0.9424 0.1402
f 355//119 356//119 357//119
v -0.2460 -0.3284 1.9444
v 0.0000 -0.4028 1.9444
v 0.0000 -0.3250 2.5000
vn -0.2870 -0.9487 0.1328
f 358//120 359//120 360//120
v 0.0000 -0.4028 1.9444
v 0.2300 -0.2509 2.5000
v 0.0000 -0.3250 2.5000
vn 0.3041 -0.9434 0.1321
f 361//121 362//121 363//121
v 0.0000 -0.4028 1.9444
v 0.2460 -0.3284 1.9444
v 0.2300 -0.2509 2.5000
vn 0.2867 -0.9477 0.1404
f 364//122 365//122 366//122
v 0.2460 -0.3284 1.9444
v 0.3984 -0.0311 2.5000
v 0.2300 -0.2509 2.5000
vn 0.7893 -0.6047 0.1070
f 367//123 368//123 369//123
v 0.2460 -0.3284 1.9444
v 0.4260 -0.1077 1.9444
v 0.3984 -0.0311 2.5000
vn 0.7686 -0.6274 0.1248
f 370//124 371//124 372//124
v 0.4260 -0.1077 1.9444
v 0.4600 0.4000 2.5000
v 0.3984 -0.0311 2.5000
vn 0.9876 -0.1412 0.0687
f 373//125 374//125 375//125
v 0.4260 -0.1077 1.9444
v 0.4919 0.3250 1.9444
v 0.4600 0.4000 2.5000
vn 0.9857 -0.1501 0.0769
f 376//126 377//126 378//126
v -0.0000 0.1065 -2.5000
v -0.0149 0.0978 -2.5000
v -0.0172 0.3000 -2.5000
vn -0.0000 0.0000 -1.0000
f 379//127 380//127 381//127
v -0.0000 0.1065 -2.5000
v -0.0086 -0.0052 -2.5000
v -0.0149 0.0978 -2.5000
vn 0.0000 0.0000 -1.0000
f 382//128 383//128 384//128
v -0.0000 0.1065 -2.5000
v 0.0000 -0.0400 -2.5000
v -0.0086 -0.0052 -2.5000
vn 0.0000 -0.0000 -1.0000
f 385//129 386//129 387//129
v -0.0000 0.1065 -2.5000
v 0.0086 -0.0052 -2.5000
v 0.0000 -0.0400 -2.5000
vn 0.0000 0.0000 -1.0000
f 388//130 389//130 390//130
v -0.0000 0.1065 -2.5000
v 0.0149 0.0978 -2.5000
v 0.0086 -0.0052 -2.5000
vn 0.0000 0.0000 -1.0000
f 391//131 392//131 393//131
v -0.0000 0.1065 -2.5000
v 0.0172 0.3000 -2.5000
v 0.0149 0.0978 -2.5000
vn 0.0000 0.0000 -1.0000
f 394//132 395//132 396//132
v -0.0000 0.1065 -2.5000
v -0.0172 0.3000 -2.5000
v 0.0172 0.3000 -2.5000
vn 0.0000 0.0000 -1.0000
f 397//133 398//133 399//133
v -0.0000 -0.0127 2.5000
v -0.4600 0.4000 2.5000
v -0.3984 -0.0311 2.5000
vn 0.0000 0.0000 1.0000
f 400//134 401//134 402//134
v -0.0000 -0.0127 2.5000
v -0.3984 -0.0311 2.5000
v -0.2300 -0.2509 2.5000
vn 0.0000 0.0000 1.0000
f 403//135 404//135 405//135
v -0.0000 -0.0127 2.5000
v -0.2300 -0.2509 2.5000
v 0.0000 -0.3250 2.5000
vn 0.0000 0.0000 1.0000
f 406//136 407//136 408//136
v -0.0000 -0.0127 2.5000
v 0.0000 -0.3250 2.5000
v 0.2300 -0.2509 2.5000
vn 0.0000 0.0000 1.0000
f 409//137 410//137 411//137
v -0.0000 -0.0127 2.5000
v 0.2300 -0.2509 2.5000
v 0.3984 -0.0311 2.5000
vn 0.0000 0.0000 1.0000
f 412//138 413//138 414//138
v -0.0000 -0.0127 2.5000
v 0.3984 -0.0311 2.5000
v 0.4600 0.4000 2.5000
vn -0.0000 0.0000 1.0000
f 415//139 416//139 417//139
v -0.0000 -0.0127 2.5000
v 0.4600 0.4000 2.5000
v -0.4600 0.4000 2.5000
vn 0.0000 -0.0000 1.0000
f 418//140 419//140 420//140
o iron
usemtl iron
s off
v 0.1300 0.3500 -1.2000
v 0.0350 0.2594 -4.5995
v 0.0700 0.3200 -4.6000
vn 0.8659 -0.5001 -0.0109
f 421//141 422//141 423//141
v 0.1300 0.3500 -1.2000
v 0.0650 0.2374 -1.1990
v 0.0350 0.2594 -4.5995
vn 0.8659 -0.5001 -0.0109
f 424//142 425//142 426//142
v 0.0000 0.3500 -1.2000
v 0.0650 0.2374 -1.1990
v 0.1300 0.3500 -1.2000
vn -0.0000 0.0088 1.0000
f 427//143 428//143 429//143
v 0.0000 0.3200 -4.6000
v 0.0700 0.3200 -4.6000
v 0.0350 0.2594 -4.5995
vn 0.0000 -0.0088 -1.0000
f 430//144 431//144 432//144
v 0.0650 0.2374 -1.1990
v -0.0350 0.2594 -4.5995
v 0.0350 0.2594 -4.5995
vn 0.0000 -1.0000 -0.0065
f 433//145 434//145 435//145
v 0.0650 0.2374 -1.1990
v -0.0650 0.2374 -1.1990
v -0.0350 0.2594 -4.5995
vn -0.0000 -1.0000 -0.0065
f 436//146 437//146 438//146
v 0.0000 0.3500 -1.2000
v -0.0650 0.2374 -1.1990
v 0.0650 0.2374 -1.1990
vn 0.0000 0.0088 1.0000
f 439//147 440//147 441//147
v 0.0000 0.3200 -4.6000
v 0.0350 0.2594 -4.5995
v -0.0350 0.2594 -4.5995
vn 0.0000 -0.0088 -1.0000
f 442//148 443//148 444//148
v -0.0650 0.2374 -1.1990
v -0.0700 0.3200 -4.6000
v -0.0350 0.2594 -4.5995
vn -0.8659 -0.5001 -0.0109
f 445//149 446//149 447//149
v -0.0650 0.2374 -1.1990
v -0.1300 0.3500 -1.2000
v -0.0700 0.3200 -4.6000
vn -0.8659 -0.5001 -0.0109
f 448//150 449//150 450//150
v 0.0000 0.3500 -1.2000
v -0.1300 0.3500 -1.2000
v -0.0650 0.2374 -1.1990
vn 0.0000 0.0088 1.0000
f 451//151 452//151 453//151
v 0.0000 0.3200 -4.6000
v -0.0350 0.2594 -4.5995
v -0.0700 0.3200 -4.6000
vn -0.0000 -0.0088 -1.0000
f 454//152 455//152 456//152
v -0.1300 0.3500 -1.2000
v -0.0350 0.3806 -4.6005
v -0.0700 0.3200 -4.6000
vn -0.8659 0.4998 -0.0197
f 457//153 458//153 459//153
v -0.1300 0.3500 -1.2000
v -0.0650 0.4626 -1.2010
v -0.0350 0.3806 -4.6005
vn -0.8659 0.4998 -0.0197
f 460//154 461//154 462//154
v 0.0000 0.3500 -1.2000
v -0.0650 0.4626 -1.2010
v -0.1300 0.3500 -1.2000
vn 0.0000 0.0088 1.0000
f 463//155 464//155 465//155
v 0.0000 0.3200 -4.6000
v -0.0700 0.3200 -4.6000
v -0.0350 0.3806 -4.6005
vn -0.0000 -0.0088 -1.0000
f 466//156 467//156 468//156
v -0.0650 0.4626 -1.2010
v 0.0350 0.3806 -4.6005
v -0.0350 0.3806 -4.6005
vn 0.0000 0.9997 -0.0241
f 469//157 470//157 471//157
v -0.0650 0.4626 -1.2010
v 0.0650 0.4626 -1.2010
v 0.0350 0.3806 -4.6005
vn 0.0000 0.9997 -0.0241
f 472//158 473//158 474//158
v 0.0000 0.3500 -1.2000
v 0.0650 0.4626 -1.2010
v -0.0650 0.4626 -1.2010
vn 0.0000 0.0088 1.0000
f 475//159 476//159 477//159
v 0.0000 0.3200 -4.6000
v -0.0350 0.3806 -4.6005
v 0.0350 0.3806 -4.6005
vn 0.0000 -0.0088 -1.0000
f 478//160 479//160 480//160
v 0.0650 0.4626 -1.2010
v 0.0700 0.3200 -4.6000
v 0.0350 0.3806 -4.6005
vn 0.8659 0.4998 -0.0197
f 481//161 482//161 483//161
v 0.0650 0.4626 -1.2010
v 0.1300 0.3500 -1.2000
v 0.0700 0.3200 -4.6000
vn 0.8659 0.4998 -0.0197
f 484//162 485//162 486//162
v 0.0000 0.3500 -1.2000
v 0.1300 0.3500 -1.2000
v 0.0650 0.4626 -1.2010
vn -0.0000 0.0088 1.0000
f 487//163 488//163 489//163
v 0.0000 0.3200 -4.6000
v 0.0350 0.3806 -4.6005
v 0.0700 0.3200 -4.6000
vn 0.0000 -0.0088 -1.0000
f 490//164 491//164 492//164
v 0.2400 0.3500 -1.8000
v 0.1200 0.1422 -1.9500
v 0.2400 0.3500 -1.9500
vn 0.8660 -0.5000 0.0000
f 493//165 494//165 495//165
v 0.2400 0.3500 -1.8000
v 0.1200 0.1422 -1.8000
v 0.1200 0.1422 -1.9500
vn 0.8660 -0.5000 0.0000
f 496//166 497//166 498//166
v 0.0000 0.3500 -1.8000
v 0.1200 0.1422 -1.8000
v 0.2400 0.3500 -1.8000
vn -0.0000 0.0000 1.0000
f 499//167 500//167 501//167
v 0.0000 0.3500 -1.9500
v 0.2400 0.3500 -1.9500
v 0.1200 0.1422 -1.9500
vn 0.0000 0.0000 -1.0000
f 502//168 503//168 504//168
v 0.1200 0.1422 -1.8000
v -0.1200 0.1422 -1.9500
v 0.1200 0.1422 -1.9500
vn 0.0000 -1.0000 0.0000
f 505//169 506//169 507//169
v 0.1200 0.1422 -1.8000
v -0.1200 0.1422 -1.8000
v -0.1200 0.1422 -1.9500
vn 0.0000 -1.0000 0.0000
f 508//170 509//170 510//170
v 0.0000 0.3500 -1.8000
v -0.1200 0.1422 -1.8000
v 0.1200 0.1422 -1.8000
vn 0.0000 0.0000 1.0000
f 511//171 512//171 513//171
v 0.0000 0.3500 -1.9500
v 0.1200 0.1422 -1.9500
v -0.1200 0.1422 -1.9500
vn 0.0000 -0.0000 -1.0000
f 514//172 515//172 516//172
v -0.1200 0.1422 -1.8000
v -0.2400 0.3500 -1.9500
v -0.1200 0.1422 -1.9500
vn -0.8660 -0.5000 -0.0000
f 517//173 518//173 519//173
v -0.1200 0.1422 -1.8000
v -0.2400 0.3500 -1.8000
v -0.2400 0.3500 -1.9500
vn -0.8660 -0.5000 0.0000
f 520//174 521//174 522//174
v 0.0000 0.3500 -1.8000
v -0.2400 0.3500 -1.8000
v -0.1200 0.1422 -1.8000
vn 0.0000 0.0000 1.0000
f 523//175 524//175 525//175
v 0.0000 0.3500 -1.9500
v -0.1200 0.1422 -1.9500
v -0.2400 0.3500 -1.9500
vn 0.0000 0.0000 -1.0000
f 526//176 527//176 528//176
v -0.2400 0.3500 -1.8000
v -0.1200 0.5578 -1.9500
v -0.2400 0.3500 -1.9500
vn -0.8660 0.5000 0.0000
f 529//177 530//177 531//177
v -0.2400 0.3500 -1.8000
v -0.1200 0.5578 -1.8000
v -0.1200 0.5578 -1.9500
vn -0.8660 0.5000 0.0000
f 532//178 533//178 534//178
v 0.0000 0.3500 -1.8000
v -0.1200 0.5578 -1.8000
v -0.2400 0.3500 -1.8000
vn 0.0000 0.0000 1.0000
f 535//179 536//179 537//179
v 0.0000 0.3500 -1.9500
v -0.2400 0.3500 -1.9500
v -0.1200 0.5578 -1.9500
vn -0.0000 0.0000 -1.0000
f 538//180 539//180 540//180
v -0.1200 0.5578 -1.8000
v 0.1200 0.5578 -1.9500
v -0.1200 0.5578 -1.9500
vn -0.0000 1.0000 0.0000
f 541//181 542//181 543//181
v -0.1200 0.5578 -1.8000
v 0.1200 0.5578 -1.8000
v 0.1200 0.5578 -1.9500
vn -0.0000 1.0000 0.0000
f 544//182 545//182 546//182
v 0.0000 0.3500 -1.8000
v 0.1200 0.5578 -1.8000
v -0.1200 0.5578 -1.8000
vn 0.0000 -0.0000 1.0000
f 547//183 548//183 549//183
v 0.0000 0.3500 -1.9500
v -0.1200 0.5578 -1.9500
v 0.1200 0.5578 -1.9500
vn 0.0000 0.0000 -1.0000
f 550//184 551//184 552//184
v 0.1200 0.5578 -1.8000
v 0.2400 0.3500 -1.9500
v 0.1200 0.5578 -1.9500
vn 0.8660 0.5000 0.0000
f 553//185 554//185 555//185
v 0.1200 0.5578 -1.8000
v 0.2400 0.3500 -1.8000
v 0.2400 0.3500 -1.9500
vn 0.8660 0.5000 0.0000
f 556//186 557//186 558//186
v 0.0000 0.3500 -1.8000
v 0.2400 0.3500 -1.8000
v 0.1200 0.5578 -1.8000
vn 0.0000 0.0000 1.0000
f 559//187 560//187 561//187
v 0.0000 0.3500 -1.9500
v 0.1200 0.5578 -1.9500
v 0.2400 0.3500 -1.9500
vn 0.0000 0.0000 -1.0000
f 562//188 563//188 564//188
v 0.2400 0.3500 -2.4000
v 0.1200 0.1422 -2.5500
v 0.2400 0.3500 -2.5500
vn 0.8660 -0.5000 0.0000
f 565//189 566//189 567//189
v 0.2400 0.3500 -2.4000
v 0.1200 0.1422 -2.4000
v 0.1200 0.1422 -2.5500
vn 0.8660 -0.5000 0.0000
f 568//190 569//190 570//190
v 0.0000 0.3500 -2.4000
v 0.1200 0.1422 -2.4000
v 0.2400 0.3500 -2.4000
vn -0.0000 0.0000 1.0000
f 571//191 572//191 573//191
v 0.0000 0.3500 -2.5500
v 0.2400 0.3500 -2.5500
v 0.1200 0.1422 -2.5500
vn 0.0000 0.0000 -1.0000
f 574//192 575//192 576//192
v 0.1200 0.1422 -2.4000
v -0.1200 0.1422 -2.5500
v 0.1200 0.1422 -2.5500
vn 0.0000 -1.0000 0.0000
f 577//193 578//193 579//193
v 0.1200 0.1422 -2.4000
v -0.1200 0.1422 -2.4000
v -0.1200 0.1422 -2.5500
vn 0.0000 -1.0000 0.0000
f 580//194 581//194 582//194
v 0.0000 0.3500 -2.4000
v -0.1200 0.1422 -2.4000
v 0.1200 0.1422 -2.4000
vn 0.0000 0.0000 1.0000
f 583//195 584//195 585//195
v 0.0000 0.3500 -2.5500
v 0.1200 0.1422 -2.5500
v -0.1200 0.1422 -2.5500
vn 0.0000 -0.0000 -1.0000
f 586//196 587//196 588//196
v -0.1200 0.1422 -2.4000
v -0.2400 0.3500 -2.5500
v -0.1200 0.1422 -2.5500
vn -0.8660 -0.5000 -0.0000
f 589//197 590//197 591//197
v -0.1200 0.1422 -2.4000
v -0.2400 0.3500 -2.4000
v -0.2400 0.3500 -2.5500
vn -0.8660 -0.5000 0.0000
f 592//198 593//198 594//198
v 0.0000 0.3500 -2.4000
v -0.2400 0.3500 -2.4000
v -0.1200 0.1422 -2.4000
vn 0.0000 0.0000 1.0000
f 595//199 596//199 597//199
v 0.0000 0.3500 -2.5500
v -0.1200 0.1422 -2.5500
v -0.2400 0.3500 -2.5500
vn 0.0000 0.0000 -1.0000
f 598//200 599//200 600//200
v -0.2400 0.3500 -2.4000
v -0.1200 0.5578 -2.5500
v -0.2400 0.3500 -2.5500
vn -0.8660 0.5000 0.0000
f 601//201 602//201 603//201
v -0.2400 0.3500 -2.4000
v -0.1200 0.5578 -2.4000
v -0.1200 0.5578 -2.5500
vn -0.8660 0.5000 0.0000
f 604//202 605//202 606//202
v 0.0000 0.3500 -2.4000
v -0.1200 0.5578 -2.4000
v -0.2400 0.3500 -2.4000
vn 0.0000 0.0000 1.0000
f 607//203 608//203 609//203
v 0.0000 0.3500 -2.5500
v -0.2400 0.3500 -2.5500
v -0.1200 0.5578 -2.5500
vn -0.0000 0.0000 -1.0000
f 610//204 611//204 612//204
v -0.1200 0.5578 -2.4000
v 0.1200 0.5578 -2.5500
v -0.1200 0.5578 -2.5500
vn -0.0000 1.0000 0.0000
f 613//205 614//205 615//205
v -0.1200 0.5578 -2.4000
v 0.1200 0.5578 -2.4000
v 0.1200 0.5578 -2.5500
vn -0.0000 1.0000 0.0000
f 616//206 617//206 618//206
v 0.0000 0.3500 -2.4000
v 0.1200 0.5578 -2.4000
v -0.1200 0.5578 -2.4000
vn 0.0000 -0.0000 1.0000
f 619//207 620//207 621//207
v 0.0000 0.3500 -2.5500
v -0.1200 0.5578 -2.5500
v 0.1200 0.5578 -2.5500
vn 0.0000 0.0000 -1.0000
f 622//208 623//208 624//208
v 0.1200 0.5578 -2.4000
v 0.2400 0.3500 -2.5500
v 0.1200 0.5578 -2.5500
vn 0.8660 0.5000 0.0000
f 625//209 626//209 627//209
v 0.1200 0.5578 -2.4000
v 0.2400 0.3500 -2.4000
v 0.2400 0.3500 -2.5500
vn 0.8660 0.5000 0.0000
f 628//210 629//210 630//210
v 0.0000 0.3500 -2.4000
v 0.2400 0.3500 -2.4000
v 0.1200 0.5578 -2.4000
vn 0.0000 0.0000 1.0000
f 631//211 632//211 633//211
v 0.0000 0.3500 -2.5500
v 0.1200 0.5578 -2.5500
v 0.2400 0.3500 -2.5500
vn 0.0000 0.0000 -1.0000
f 634//212 635//212 636//212
v 0.2400 0.3500 -3.0000
v 0.1200 0.1422 -3.1500
v 0.2400 0.3500 -3.1500
vn 0.8660 -0.5000 0.0000
f 637//213 638//213 639//213
v 0.2400 0.3500 -3.0000
v 0.1200 0.1422 -3.0000
v 0.1200 0.1422 -3.1500
vn 0.8660 -0.5000 0.0000
f 640//214 641//214 642//214
v 0.0000 0.3500 -3.0000
v 0.1200 0.1422 -3.0000
v 0.2400 0.3500 -3.0000
vn -0.0000 0.0000 1.0000
f 643//215 644//215 645//215
v 0.0000 0.3500 -3.1500
v 0.2400 0.3500 -3.1500
v 0.1200 0.1422 -3.1500
vn 0.0000 0.0000 -1.0000
f 646//216 647//216 648//216
v 0.1200 0.1422 -3.0000
v -0.1200 0.1422 -3.1500
v 0.1200 0.1422 -3.1500
vn 0.0000 -1.0000 0.0000
f 649//217 650//217 651//217
v 0.1200 0.1422 -3.0000
v -0.1200 0.1422 -3.0000
v -0.1200 0.1422 -3.1500
vn 0.0000 -1.0000 0.0000
f 652//218 653//218 654//218
v 0.0000 0.3500 -3.0000
v -0.1200 0.1422 -3.0000
v 0.1200 0.1422 -3.0000
vn 0.0000 0.0000 1.0000
f 655//219 656//219 657//219
v 0.0000 0.3500 -3.1500
v 0.1200 0.1422 -3.1500
v -0.1200 0.1422 -3.1500
vn 0.0000 -0.0000 -1.0000
f 658//220 659//220 660//220
v -0.1200 0.1422 -3.0000
v -0.2400 0.3500 -3.1500
v -0.1200 0.1422 -3.1500
vn -0.8660 -0.5000 -0.0000
f 661//221 662//221 663//221
v -0.1200 0.1422 -3.0000
v -0.2400 0.3500 -3.0000
v -0.2400 0.3500 -3.1500
vn -0.8660 -0.5000 0.0000
f 664//222 665//222 666//222
v 0.0000 0.3500 -3.0000
v -0.2400 0.3500 -3.0000
v -0.1200 0.1422 -3.0000
vn 0.0000 0.0000 1.0000
f 667//223 668//223 669//223
v 0.0000 0.3500 -3.1500
v -0.1200 0.1422 -3.1500
v -0.2400 0.3500 -3.1500
vn 0.0000 0.0000 -1.0000
f 670//224 671//224 672//224
v -0.2400 0.3500 -3.0000
v -0.1200 0.5578 -3.1500
v -0.2400 0.3500 -3.1500
vn -0.8660 0.5000 0.0000
f 673//225 674//225 675//225
v -0.2400 0.3500 -3.0000
v -0.1200 0.5578 -3.0000
v -0.1200 0.5578 -3.1500
vn -0.8660 0.5000 0.0000
f 676//226 677//226 678//226
v 0.0000 0.3500 -3.0000
v -0.1200 0.5578 -3.0000
v -0.2400 0.3500 -3.0000
vn 0.0000 0.0000 1.0000
f 679//227 680//227 681//227
v 0.0000 0.3500 -3.1500
v -0.2400 0.3500 -3.1500
v -0.1200 0.5578 -3.1500
vn -0.0000 0.0000 -1.0000
f 682//228 683//228 684//228
v -0.1200 0.5578 -3.0000
v 0.1200 0.5578 -3.1500
v -0.1200 0.5578 -3.1500
vn -0.0000 1.0000 0.0000
f 685//229 686//229 687//229
v -0.1200 0.5578 -3.0000
v 0.1200 0.5578 -3.0000
v 0.1200 0.5578 -3.1500
vn -0.0000 1.0000 0.0000
f 688//230 689//230 690//230
v 0.0000 0.3500 -3.0000
v 0.1200 0.5578 -3.0000
v -0.1200 0.5578 -3.0000
vn 0.0000 -0.0000 1.0000
f 691//231 692//231 693//231
v 0.0000 0.3500 -3.1500
v -0.1200 0.5578 -3.1500
v 0.1200 0.5578 -3.1500
vn 0.0000 0.0000 -1.0000
f 694//232 695//232 696//232
v 0.1200 0.5578 -3.0000
v 0.2400 0.3500 -3.1500
v 0.1200 0.5578 -3.1500
vn 0.8660 0.5000 0.0000
f 697//233 698//233 699//233
v 0.1200 0.5578 -3.0000
v 0.2400 0.3500 -3.0000
v 0.2400 0.3500 -3.1500
vn 0.8660 0.5000 0.0000
f 700//234 701//234 702//234
v 0.0000 0.3500 -3.0000
v 0.2400 0.3500 -3.0000
v 0.1200 0.5578 -3.0000
vn 0.0000 0.0000 1.0000
f 703//235 704//235 705//235
v 0.0000 0.3500 -3.1500
v 0.1200 0.5578 -3.1500
v 0.2400 0.3500 -3.1500
vn 0.0000 0.0000 -1.0000
f 706//236 707//236 708//236
v -0.2500 0.2750 -1.2500
v -0.2500 0.2750 0.0500
v -0.2500 0.6250 0.0500
vn -1.0000 0.0000 0.0000
f 709//237 710//237 711//237
v -0.2500 0.2750 -1.2500
v -0.2500 0.6250 0.0500
v -0.2500 0.6250 -1.2500
vn -1.0000 0.0000 0.0000
f 712//238 713//238 714//238
v 0.2500 0.2750 -1.2500
v 0.2500 0.6250 0.0500
v 0.2500 0.2750 0.0500
vn 1.0000 0.0000 0.0000
f 715//239 716//239 717//239
v 0.2500 0.2750 -1.2500
v 0.2500 0.6250 -1.2500
v 0.2500 0.6250 0.0500
vn 1.0000 0.0000 0.0000
f 718//240 719//240 720//240
v -0.2500 0.2750 -1.2500
v 0.2500 0.2750 0.0500
v -0.2500 0.2750 0.0500
vn 0.0000 -1.0000 0.0000
f 721//241 722//241 723//241
v -0.2500 0.2750 -1.2500
v 0.2500 0.2750 -1.2500
v 0.2500 0.2750 0.0500
vn 0.0000 -1.0000 0.0000
f 724//242 725//242 726//242
v -0.2500 0.6250 -1.2500
v -0.2500 0.6250 0.0500
v 0.2500 0.6250 0.0500
vn 0.0000 1.0000 0.0000
f 727//243 728//243 729//243
v -0.2500 0.6250 -1.2500
v 0.2500 0.6250 0.0500
v 0.2500 0.6250 -1.2500
vn 0.0000 1.0000 0.0000
f 730//244 731//244 732//244
v -0.2500 0.2750 -1.2500
v -0.2500 0.6250 -1.2500
v 0.2500 0.6250 -1.2500
vn 0.0000 0.0000 -1.0000
f 733//245 734//245 735//245
v -0.2500 0.2750 -1.2500
v 0.2500 0.6250 -1.2500
v 0.2500 0.2750 -1.2500
vn 0.0000 0.0000 -1.0000
f 736//246 737//246 738//246
v -0.2500 0.2750 0.0500
v 0.2500 0.6250 0.0500
v -0.2500 0.6250 0.0500
vn 0.0000 0.0000 1.0000
f 739//247 740//247 741//247
v -0.2500 0.2750 0.0500
v 0.2500 0.2750 0.0500
v 0.2500 0.6250 0.0500
vn 0.0000 0.0000 1.0000
f 742//248 743//248 744//248
v -0.0400 0.3000 -0.2000
v -0.0000 2.2741 1.5305
v -0.0400 2.3000 1.5000
vn -0.7071 -0.4580 0.5388
f 745//249 746//249 747//249
v -0.0400 0.3000 -0.2000
v -0.0000 0.2741 -0.1695
v -0.0000 2.2741 1.5305
vn -0.7071 -0.4580 0.5388
f 748//250 749//250 750//250
v 0.0000 0.3000 -0.2000
v -0.0000 0.2741 -0.1695
v -0.0400 0.3000 -0.2000
vn -0.0000 -0.7619 -0.6476
f 751//251 752//251 753//251
v 0.0000 2.3000 1.5000
v -0.0400 2.3000 1.5000
v -0.0000 2.2741 1.5305
vn 0.0000 0.7619 0.6476
f 754//252 755//252 756//252
v -0.0000 0.2741 -0.1695
v 0.0400 2.3000 1.5000
v -0.0000 2.2741 1.5305
vn 0.7071 -0.4580 0.5388
f 757//253 758//253 759//253
v -0.0000 0.2741 -0.1695
v 0.0400 0.3000 -0.2000
v 0.0400 2.3000 1.5000
vn 0.7071 -0.4580 0.5388
f 760//254 761//254 762//254
v 0.0000 0.3000 -0.2000
v 0.0400 0.3000 -0.2000
v -0.0000 0.2741 -0.1695
vn 0.0000 -0.7619 -0.6476
f 763//255 764//255 765//255
v 0.0000 2.3000 1.5000
v -0.0000 2.2741 1.5305
v 0.0400 2.3000 1.5000
vn -0.0000 0.7619 0.6476
f 766//256 767//256 768//256
v 0.0400 0.3000 -0.2000
v 0.0000 2.3259 1.4695
v 0.0400 2.3000 1.5000
vn 0.7071 0.4580 -0.5388
f 769//257 770//257 771//257
v 0.0400 0.3000 -0.2000
v 0.0000 0.3259 -0.2305
v 0.0000 2.3259 1.4695
vn 0.7071 0.4580 -0.5388
f 772//258 773//258 774//258
v 0.0000 0.3000 -0.2000
v 0.0000 0.3259 -0.2305
v 0.0400 0.3000 -0.2000
vn 0.0000 -0.7619 -0.6476
f 775//259 776//259 777//259
v 0.0000 2.3000 1.5000
v 0.0400 2.3000 1.5000
v 0.0000 2.3259 1.4695
vn -0.0000 0.7619 0.6476
f 778//260 779//260 780//260
v 0.0000 0.3259 -0.2305
v -0.0400 2.3000 1.5000
v 0.0000 2.3259 1.4695
vn -0.7071 0.4580 -0.5388
f 781//261 782//261 783//261
v 0.0000 0.3259 -0.2305
v -0.0400 0.3000 -0.2000
v -0.0400 2.3000 1.5000
vn -0.7071 0.4580 -0.5388
f 784//262 785//262 786//262
v 0.0000 0.3000 -0.2000
v -0.0400 0.3000 -0.2000
v 0.0000 0.3259 -0.2305
vn -0.0000 -0.7619 -0.6476
f 787//263 788//263 789//263
v 0.0000 2.3000 1.5000
v 0.0000 2.3259 1.4695
v -0.0400 2.3000 1.5000
vn 0.0000 0.7619 0.6476
f 790//264 791//264 792//264
v -0.2200 0.1500 2.3000
v -0.0850 0.0028 2.9000
v -0.1700 0.1500 2.9000
vn -0.8638 -0.4987 0.0720
f 793//265 794//265 795//265
v -0.2200 0.1500 2.3000
v -0.1100 -0.0405 2.3000
v -0.0850 0.0028 2.9000
vn -0.8638 -0.4987 0.0720
f 796//266 797//266 798//266
v 0.0000 0.1500 2.3000
v -0.1100 -0.0405 2.3000
v -0.2200 0.1500 2.3000
vn -0.0000 0.0000 -1.0000
f 799//267 800//267 801//267
v 0.0000 0.1500 2.9000
v -0.1700 0.1500 2.9000
v -0.0850 0.0028 2.9000
vn 0.0000 0.0000 1.0000
f 802//268 803//268 804//268
v -0.1100 -0.0405 2.3000
v 0.0850 0.0028 2.9000
v -0.0850 0.0028 2.9000
vn 0.0000 -0.9974 0.0720
f 805//269 806//269 807//269
v -0.1100 -0.0405 2.3000
v 0.1100 -0.0405 2.3000
v 0.0850 0.0028 2.9000
vn 0.0000 -0.9974 0.0720
f 808//270 809//270 810//270
v 0.0000 0.1500 2.3000
v 0.1100 -0.0405 2.3000
v -0.1100 -0.0405 2.3000
vn 0.0000 -0.0000 -1.0000
f 811//271 812//271 813//271
v 0.0000 0.1500 2.9000
v -0.0850 0.0028 2.9000
v 0.0850 0.0028 2.9000
vn 0.0000 0.0000 1.0000
f 814//272 815//272 816//272
v 0.1100 -0.0405 2.3000
v 0.1700 0.1500 2.9000
v 0.0850 0.0028 2.9000
vn 0.8638 -0.4987 0.0720
f 817//273 818//273 819//273
v 0.1100 -0.0405 2.3000
v 0.2200 0.1500 2.3000
v 0.1700 0.1500 2.9000
vn 0.8638 -0.4987 0.0720
f 820//274 821//274 822//274
v 0.0000 0.1500 2.3000
v 0.2200 0.1500 2.3000
v 0.1100 -0.0405 2.3000
vn 0.0000 0.0000 -1.0000
f 823//275 824//275 825//275
v 0.0000 0.1500 2.9000
v 0.0850 0.0028 2.9000
v 0.1700 0.1500 2.9000
vn 0.0000 0.0000 1.0000
f 826//276 827//276 828//276
v 0.2200 0.1500 2.3000
v 0.0850 0.2972 2.9000
v 0.1700 0.1500 2.9000
vn 0.8638 0.4987 0.0720
f 829//277 830//277 831//277
v 0.2200 0.1500 2.3000
v 0.1100 0.3405 2.3000
v 0.0850 0.2972 2.9000
vn 0.8638 0.4987 0.0720
f 832//278 833//278 834//278
v 0.0000 0.1500 2.3000
v 0.1100 0.3405 2.3000
v 0.2200 0.1500 2.3000
vn 0.0000 0.0000 -1.0000
f 835//279 836//279 837//279
v 0.0000 0.1500 2.9000
v 0.1700 0.1500 2.9000
v 0.0850 0.2972 2.9000
vn -0.0000 0.0000 1.0000
f 838//280 839//280 840//280
v 0.1100 0.3405 2.3000
v -0.0850 0.2972 2.9000
v 0.0850 0.2972 2.9000
vn 0.0000 0.9974 0.0720
f 841//281 842//281 843//281
v 0.1100 0.3405 2.3000
v -0.1100 0.3405 2.3000
v -0.0850 0.2972 2.9000
vn 0.0000 0.9974 0.0720
f 844//282 845//282 846//282
v 0.0000 0.1500 2.3000
v -0.1100 0.3405 2.3000
v 0.1100 0.3405 2.3000
vn 0.0000 0.0000 -1.0000
f 847//283 848//283 849//283
v 0.0000 0.1500 2.9000
v 0.0850 0.2972 2.9000
v -0.0850 0.2972 2.9000
vn 0.0000 -0.0000 1.0000
f 850//284 851//284 852//284
v -0.1100 0.3405 2.3000
v -0.1700 0.1500 2.9000
v -0.0850 0.2972 2.9000
vn -0.8638 0.4987 0.0720
f 853//285 854//285 855//285
v -0.1100 0.3405 2.3000
v -0.2200 0.1500 2.3000
v -0.1700 0.1500 2.9000
vn -0.8638 0.4987 0.0720
f 856//286 857//286 858//286
v 0.0000 0.1500 2.3000
v -0.2200 0.1500 2.3000
v -0.1100 0.3405 2.3000
vn 0.0000 0.0000 -1.0000
f 859//287 860//287 861//287
v 0.0000 0.1500 2.9000
v -0.0850 0.2972 2.9000
v -0.1700 0.1500 2.9000
vn 0.0000 0.0000 1.0000
f 862//288 863//288 864//288
o sail
usemtl sail
s off
v 0.0000 0.3000 -0.2000
v 0.0000 2.3000 1.5000
v 0.0000 0.3000 1.6000
vn 1.0000 0.0000 0.0000
f 865//289 866//289 867//289
v -0.4500 0.2000 0.6000
v -1.6000 0.3500 2.4000
v -0.5000 0.2000 2.2000
vn 0.1359 0.9907 0.0042
f 868//290 869//290 870//290
v 0.4500 0.2000 0.6000
v 0.5000 0.2000 2.2000
v 1.6000 0.3500 2.4000
vn -0.1359 0.9907 0.0042
f 871//291 872//291 873//291
