# cutter: generated by tools/make_models.py (placeholder)
o deck
usemtl deck
s off
v 0.0225 0.3500 -2.3000
v -0.2798 0.3054 -1.7889
v 0.2798 0.3054 -1.7889
vn 0.0000 0.9962 0.0870
f 1//1 2//1 3//1
v 0.0225 0.3500 -2.3000
v -0.0225 0.3500 -2.3000
v -0.2798 0.3054 -1.7889
vn 0.0000 0.9962 0.0870
f 4//2 5//2 6//2
v 0.2798 0.3054 -1.7889
v -0.4545 0.2711 -1.2778
v 0.4545 0.2711 -1.2778
vn 0.0000 0.9978 0.0670
f 7//3 8//3 9//3
v 0.2798 0.3054 -1.7889
v -0.2798 0.3054 -1.7889
v -0.4545 0.2711 -1.2778
vn 0.0000 0.9978 0.0670
f 10//4 11//4 12//4
v 0.4545 0.2711 -1.2778
v -0.6036 0.2469 -0.7667
v 0.6036 0.2469 -0.7667
vn 0.0000 0.9989 0.0472
f 13//5 14//5 15//5
v 0.4545 0.2711 -1.2778
v -0.4545 0.2711 -1.2778
v -0.6036 0.2469 -0.7667
vn 0.0000 0.9989 0.0472
f 16//6 17//6 18//6
v 0.6036 0.2469 -0.7667
v -0.7383 0.2335 -0.2556
v 0.7383 0.2335 -0.2556
vn 0.0000 0.9997 0.0262
f 19//7 20//7 21//7
v 0.6036 0.2469 -0.7667
v -0.6036 0.2469 -0.7667
v -0.7383 0.2335 -0.2556
vn 0.0000 0.9997 0.0262
f 22//8 23//8 24//8
v 0.7383 0.2335 -0.2556
v -0.7500 0.2322 0.2556
v 0.7500 0.2322 0.2556
vn 0.0000 1.0000 0.0025
f 25//9 26//9 27//9
v 0.7383 0.2335 -0.2556
v -0.7383 0.2335 -0.2556
v -0.7500 0.2322 0.2556
vn 0.0000 1.0000 0.0025
f 28//10 29//10 30//10
v 0.7500 0.2322 0.2556
v -0.7312 0.2451 0.7667
v 0.7312 0.2451 0.7667
vn 0.0000 0.9997 -0.0251
f 31//11 32//11 33//11
v 0.7500 0.2322 0.2556
v -0.7500 0.2322 0.2556
v -0.7312 0.2451 0.7667
vn 0.0000 0.9997 -0.0251
f 34//12 35//12 36//12
v 0.7312 0.2451 0.7667
v -0.7000 0.2748 1.2778
v 0.7000 0.2748 1.2778
vn 0.0000 0.9983 -0.0582
f 37//13 38//13 39//13
v 0.7312 0.2451 0.7667
v -0.7312 0.2451 0.7667
v -0.7000 0.2748 1.2778
vn 0.0000 0.9983 -0.0582
f 40//14 41//14 42//14
v 0.7000 0.2748 1.2778
v -0.6687 0.3251 1.7889
v 0.6687 0.3251 1.7889
vn 0.0000 0.9952 -0.0978
f 43//15 44//15 45//15
v 0.7000 0.2748 1.2778
v -0.7000 0.2748 1.2778
v -0.6687 0.3251 1.7889
vn 0.0000 0.9952 -0.0978
f 46//16 47//16 48//16
v 0.6687 0.3251 1.7889
v -0.6375 0.4000 2.3000
v 0.6375 0.4000 2.3000
vn 0.0000 0.9894 -0.1451
f 49//17 50//17 51//17
v 0.6687 0.3251 1.7889
v -0.6687 0.3251 1.7889
v -0.6375 0.4000 2.3000
vn 0.0000 0.9894 -0.1451
f 52//18 53//18 54//18
o hull
usemtl hull
s off
v -0.0225 0.3500 -2.3000
v -0.2423 -0.0486 -1.7889
v -0.2798 0.3054 -1.7889
vn -0.8860 -0.0938 -0.4541
f 55//19 56//19 57//19
v -0.0225 0.3500 -2.3000
v -0.0195 0.1157 -2.3000
v -0.2423 -0.0486 -1.7889
vn -0.9152 -0.0118 -0.4027
f 58//20 59//20 60//20
v -0.0195 0.1157 -2.3000
v -0.1399 -0.2290 -1.7889
v -0.2423 -0.0486 -1.7889
vn -0.7660 -0.4347 -0.4736
f 61//21 62//21 63//21
v -0.0195 0.1157 -2.3000
v -0.0112 -0.0037 -2.3000
v -0.1399 -0.2290 -1.7889
vn -0.9603 -0.0662 -0.2709
f 64//22 65//22 66//22
v -0.0112 -0.0037 -2.3000
v 0.0000 -0.2899 -1.7889
v -0.1399 -0.2290 -1.7889
vn -0.3563 -0.8186 -0.4505
f 67//23 68//23 69//23
v -0.0112 -0.0037 -2.3000
v 0.0000 -0.0440 -2.3000
v 0.0000 -0.2899 -1.7889
vn -0.9552 -0.2667 -0.1283
f 70//24 71//24 72//24
v 0.0000 -0.0440 -2.3000
v 0.1399 -0.2290 -1.7889
v 0.0000 -0.2899 -1.7889
vn 0.3651 -0.8389 -0.4036
f 73//25 74//25 75//25
v 0.0000 -0.0440 -2.3000
v 0.0112 -0.0037 -2.3000
v 0.1399 -0.2290 -1.7889
vn 0.9060 -0.2530 -0.3395
f 76//26 77//26 78//26
v 0.0112 -0.0037 -2.3000
v 0.2423 -0.0486 -1.7889
v 0.1399 -0.2290 -1.7889
vn 0.7971 -0.4524 -0.4000
f 79//27 80//27 81//27
v 0.0112 -0.0037 -2.3000
v 0.0195 0.1157 -2.3000
v 0.2423 -0.0486 -1.7889
vn 0.9074 -0.0626 -0.4156
f 82//28 83//28 84//28
v 0.0195 0.1157 -2.3000
v 0.2798 0.3054 -1.7889
v 0.2423 -0.0486 -1.7889
vn 0.9009 -0.0954 -0.4234
f 85//29 86//29 87//29
v 0.0195 0.1157 -2.3000
v 0.0225 0.3500 -2.3000
v 0.2798 0.3054 -1.7889
vn 0.8928 -0.0115 -0.4504
f 88//30 89//30 90//30
v -0.2798 0.3054 -1.7889
v -0.3936 -0.1339 -1.2778
v -0.4545 0.2711 -1.2778
vn -0.9339 -0.1404 -0.3287
f 91//31 92//31 93//31
v -0.2798 0.3054 -1.7889
v -0.2423 -0.0486 -1.7889
v -0.3936 -0.1339 -1.2778
vn -0.9493 -0.1005 -0.2978
f 94//32 95//32 96//32
v -0.2423 -0.0486 -1.7889
v -0.2272 -0.3403 -1.2778
v -0.3936 -0.1339 -1.2778
vn -0.7383 -0.5949 -0.3178
f 97//33 98//33 99//33
v -0.2423 -0.0486 -1.7889
v -0.1399 -0.2290 -1.7889
v -0.2272 -0.3403 -1.2778
vn -0.8425 -0.4781 -0.2481
f 100//34 101//34 102//34
v -0.1399 -0.2290 -1.7889
v 0.0000 -0.4099 -1.2778
v -0.2272 -0.3403 -1.2778
vn -0.2837 -0.9257 -0.2501
f 103//35 104//35 105//35
v -0.1399 -0.2290 -1.7889
v 0.0000 -0.2899 -1.7889
v 0.0000 -0.4099 -1.2778
vn -0.3901 -0.8964 -0.2106
f 106//36 107//36 108//36
v 0.0000 -0.2899 -1.7889
v 0.2272 -0.3403 -1.2778
v 0.0000 -0.4099 -1.2778
vn 0.2859 -0.9329 -0.2191
f 109//37 110//37 111//37
v 0.0000 -0.2899 -1.7889
v 0.1399 -0.2290 -1.7889
v 0.2272 -0.3403 -1.2778
vn 0.3854 -0.8857 -0.2588
f 112//38 113//38 114//38
v 0.1399 -0.2290 -1.7889
v 0.3936 -0.1339 -1.2778
v 0.2272 -0.3403 -1.2778
vn 0.7518 -0.6058 -0.2604
f 115//39 116//39 117//39
v 0.1399 -0.2290 -1.7889
v 0.2423 -0.0486 -1.7889
v 0.3936 -0.1339 -1.2778
vn 0.8235 -0.4673 -0.3218
f 118//40 119//40 120//40
v 0.2423 -0.0486 -1.7889
v 0.4545 0.2711 -1.2778
v 0.3936 -0.1339 -1.2778
vn 0.9425 -0.1417 -0.3027
f 121//41 122//41 123//41
v 0.2423 -0.0486 -1.7889
v 0.2798 0.3054 -1.7889
v 0.4545 0.2711 -1.2778
vn 0.9395 -0.0995 -0.3278
f 124//42 125//42 126//42
v -0.4545 0.2711 -1.2778
v -0.5228 -0.1984 -0.7667
v -0.6036 0.2469 -0.7667
vn -0.9436 -0.1713 -0.2835
f 127//43 128//43 129//43
v -0.4545 0.2711 -1.2778
v -0.3936 -0.1339 -1.2778
v -0.5228 -0.1984 -0.7667
vn -0.9550 -0.1436 -0.2595
f 130//44 131//44 132//44
v -0.3936 -0.1339 -1.2778
v -0.3018 -0.4255 -0.7667
v -0.5228 -0.1984 -0.7667
vn -0.6920 -0.6734 -0.2600
f 133//45 134//45 135//45
v -0.3936 -0.1339 -1.2778
v -0.2272 -0.3403 -1.2778
v -0.3018 -0.4255 -0.7667
vn -0.7608 -0.6130 -0.2132
f 136//46 137//46 138//46
v -0.2272 -0.3403 -1.2778
v 0.0000 -0.5021 -0.7667
v -0.3018 -0.4255 -0.7667
vn -0.2413 -0.9509 -0.1937
f 139//47 140//47 141//47
v -0.2272 -0.3403 -1.2778
v 0.0000 -0.4099 -1.2778
v 0.0000 -0.5021 -0.7667
vn -0.2888 -0.9422 -0.1698
f 142//48 143//48 144//48
v 0.0000 -0.4099 -1.2778
v 0.3018 -0.4255 -0.7667
v 0.0000 -0.5021 -0.7667
vn 0.2423 -0.9548 -0.1721
f 145//49 146//49 147//49
v 0.0000 -0.4099 -1.2778
v 0.2272 -0.3403 -1.2778
v 0.3018 -0.4255 -0.7667
vn 0.2872 -0.9372 -0.1981
f 148//50 149//50 150//50
v 0.2272 -0.3403 -1.2778
v 0.5228 -0.1984 -0.7667
v 0.3018 -0.4255 -0.7667
vn 0.6998 -0.6810 -0.2156
f 151//51 152//51 153//51
v 0.2272 -0.3403 -1.2778
v 0.3936 -0.1339 -1.2778
v 0.5228 -0.1984 -0.7667
vn 0.7506 -0.6048 -0.2661
f 154//52 155//52 156//52
v 0.3936 -0.1339 -1.2778
v 0.6036 0.2469 -0.7667
v 0.5228 -0.1984 -0.7667
vn 0.9496 -0.1724 -0.2618
f 157//53 158//53 159//53
v 0.3936 -0.1339 -1.2778
v 0.4545 0.2711 -1.2778
v 0.6036 0.2469 -0.7667
vn 0.9483 -0.1426 -0.2835
f 160//54 161//54 162//54
v -0.6036 0.2469 -0.7667
v -0.6394 -0.2324 -0.2556
v -0.7383 0.2335 -0.2556
vn -0.9460 -0.2008 -0.2545
f 163//55 164//55 165//55
v -0.6036 0.2469 -0.7667
v -0.5228 -0.1984 -0.7667
v -0.6394 -0.2324 -0.2556
vn -0.9575 -0.1739 -0.2300
f 166//56 167//56 168//56
v -0.5228 -0.1984 -0.7667
v -0.3691 -0.4699 -0.2556
v -0.6394 -0.2324 -0.2556
vn -0.6473 -0.7365 -0.1966
f 169//57 170//57 171//57
v -0.5228 -0.1984 -0.7667
v -0.3018 -0.4255 -0.7667
v -0.3691 -0.4699 -0.2556
vn -0.7082 -0.6892 -0.1532
f 172//58 173//58 174//58
v -0.3018 -0.4255 -0.7667
v 0.0000 -0.5500 -0.2556
v -0.3691 -0.4699 -0.2556
vn -0.2108 -0.9711 -0.1121
f 175//59 176//59 177//59
v -0.3018 -0.4255 -0.7667
v 0.0000 -0.5021 -0.7667
v 0.0000 -0.5500 -0.2556
vn -0.2450 -0.9653 -0.0905
f 178//60 179//60 180//60
v 0.0000 -0.5021 -0.7667
v 0.3691 -0.4699 -0.2556
v 0.0000 -0.5500 -0.2556
vn 0.2112 -0.9732 -0.0912
f 181//61 182//61 183//61
v 0.0000 -0.5021 -0.7667
v 0.3018 -0.4255 -0.7667
v 0.3691 -0.4699 -0.2556
vn 0.2443 -0.9628 -0.1158
f 184//62 185//62 186//62
v 0.3018 -0.4255 -0.7667
v 0.6394 -0.2324 -0.2556
v 0.3691 -0.4699 -0.2556
vn 0.6526 -0.7426 -0.1505
f 187//63 188//63 189//63
v 0.3018 -0.4255 -0.7667
v 0.5228 -0.1984 -0.7667
v 0.6394 -0.2324 -0.2556
vn 0.7014 -0.6826 -0.2053
f 190//64 191//64 192//64
v 0.5228 -0.1984 -0.7667
v 0.7383 0.2335 -0.2556
v 0.6394 -0.2324 -0.2556
vn 0.9518 -0.2021 -0.2306
f 193//65 194//65 195//65
v 0.5228 -0.1984 -0.7667
v 0.6036 0.2469 -0.7667
v 0.7383 0.2335 -0.2556
vn 0.9513 -0.1728 -0.2552
f 196//66 197//66 198//66
v -0.7383 0.2335 -0.2556
v -0.6495 -0.2329 0.2556
v -0.7500 0.2322 0.2556
vn -0.9772 -0.2111 -0.0229
f 199//67 200//67 201//67
v -0.7383 0.2335 -0.2556
v -0.6394 -0.2324 -0.2556
v -0.6495 -0.2329 0.2556
vn -0.9780 -0.2076 -0.0196
f 202//68 203//68 204//68
v -0.6394 -0.2324 -0.2556
v -0.3750 -0.4700 0.2556
v -0.6495 -0.2329 0.2556
vn -0.6536 -0.7567 -0.0137
f 205//69 206//69 207//69
v -0.6394 -0.2324 -0.2556
v -0.3691 -0.4699 -0.2556
v -0.3750 -0.4700 0.2556
vn -0.6601 -0.7511 -0.0078
f 208//70 209//70 210//70
v -0.3691 -0.4699 -0.2556
v 0.0000 -0.5500 0.2556
v -0.3750 -0.4700 0.2556
vn -0.2086 -0.9780 -0.0026
f 211//71 212//71 213//71
v -0.3691 -0.4699 -0.2556
v 0.0000 -0.5500 -0.2556
v 0.0000 -0.5500 0.2556
vn -0.2121 -0.9772 0.0000
f 214//72 215//72 216//72
v 0.0000 -0.5500 -0.2556
v 0.3750 -0.4700 0.2556
v 0.0000 -0.5500 0.2556
vn 0.2086 -0.9780 0.0000
f 217//73 218//73 219//73
v 0.0000 -0.5500 -0.2556
v 0.3691 -0.4699 -0.2556
v 0.3750 -0.4700 0.2556
vn 0.2121 -0.9772 -0.0027
f 220//74 221//74 222//74
v 0.3691 -0.4699 -0.2556
v 0.6495 -0.2329 0.2556
v 0.3750 -0.4700 0.2556
vn 0.6536 -0.7568 -0.0077
f 223//75 224//75 225//75
v 0.3691 -0.4699 -0.2556
v 0.6394 -0.2324 -0.2556
v 0.6495 -0.2329 0.2556
vn 0.6601 -0.7510 -0.0139
f 226//76 227//76 228//76
v 0.6394 -0.2324 -0.2556
v 0.7500 0.2322 0.2556
v 0.6495 -0.2329 0.2556
vn 0.9773 -0.2111 -0.0196
f 229//77 230//77 231//77
v 0.6394 -0.2324 -0.2556
v 0.7383 0.2335 -0.2556
v 0.7500 0.2322 0.2556
vn 0.9779 -0.2076 -0.0229
f 232//78 233//78 234//78
v -0.7500 0.2322 0.2556
v -0.6333 -0.2277 0.7667
v -0.7312 0.2451 0.7667
vn -0.9784 -0.2028 0.0410
f 235//79 236//79 237//79
v -0.7500 0.2322 0.2556
v -0.6495 -0.2329 0.2556
v -0.6333 -0.2277 0.7667
vn -0.9769 -0.2110 0.0332
f 238//80 239//80 240//80
v -0.6495 -0.2329 0.2556
v -0.3656 -0.4687 0.7667
v -0.6333 -0.2277 0.7667
vn -0.6689 -0.7428 0.0288
f 241//81 242//81 243//81
v -0.6495 -0.2329 0.2556
v -0.3750 -0.4700 0.2556
v -0.3656 -0.4687 0.7667
vn -0.6536 -0.7567 0.0139
f 244//82 245//82 246//82
v -0.3750 -0.4700 0.2556
v 0.0000 -0.5500 0.7667
v -0.3656 -0.4687 0.7667
vn -0.2171 -0.9761 0.0065
f 247//83 248//83 249//83
v -0.3750 -0.4700 0.2556
v 0.0000 -0.5500 0.2556
v 0.0000 -0.5500 0.7667
vn -0.2086 -0.9780 0.0000
f 250//84 251//84 252//84
v 0.0000 -0.5500 0.2556
v 0.3656 -0.4687 0.7667
v 0.0000 -0.5500 0.7667
vn 0.2171 -0.9762 0.0000
f 253//85 254//85 255//85
v 0.0000 -0.5500 0.2556
v 0.3750 -0.4700 0.2556
v 0.3656 -0.4687 0.7667
vn 0.2086 -0.9780 0.0063
f 256//86 257//86 258//86
v 0.3750 -0.4700 0.2556
v 0.6333 -0.2277 0.7667
v 0.3656 -0.4687 0.7667
vn 0.6691 -0.7431 0.0142
f 259//87 260//87 261//87
v 0.3750 -0.4700 0.2556
v 0.6495 -0.2329 0.2556
v 0.6333 -0.2277 0.7667
vn 0.6534 -0.7565 0.0285
f 262//88 263//88 264//88
v 0.6495 -0.2329 0.2556
v 0.7312 0.2451 0.7667
v 0.6333 -0.2277 0.7667
vn 0.9787 -0.2028 0.0332
f 265//89 266//89 267//89
v 0.6495 -0.2329 0.2556
v 0.7500 0.2322 0.2556
v 0.7312 0.2451 0.7667
vn 0.9766 -0.2110 0.0411
f 268//90 269//90 270//90
v -0.7312 0.2451 0.7667
v -0.6062 -0.2029 1.2778
v -0.7000 0.2748 1.2778
vn -0.9788 -0.1921 0.0710
f 271//91 272//91 273//91
v -0.7312 0.2451 0.7667
v -0.6333 -0.2277 0.7667
v -0.6062 -0.2029 1.2778
vn -0.9773 -0.2025 0.0616
f 274//92 275//92 276//92
v -0.6333 -0.2277 0.7667
v -0.3500 -0.4464 1.2778
v -0.6062 -0.2029 1.2778
vn -0.6872 -0.7229 0.0714
f 277//93 278//93 279//93
v -0.6333 -0.2277 0.7667
v -0.3656 -0.4687 0.7667
v -0.3500 -0.4464 1.2778
vn -0.6682 -0.7421 0.0527
f 280//94 281//94 282//94
v -0.3656 -0.4687 0.7667
v 0.0000 -0.5286 1.2778
v -0.3500 -0.4464 1.2778
vn -0.2283 -0.9723 0.0493
f 283//95 284//95 285//95
v -0.3656 -0.4687 0.7667
v 0.0000 -0.5500 0.7667
v 0.0000 -0.5286 1.2778
vn -0.2169 -0.9753 0.0408
f 286//96 287//96 288//96
v 0.0000 -0.5500 0.7667
v 0.3500 -0.4464 1.2778
v 0.0000 -0.5286 1.2778
vn 0.2284 -0.9727 0.0407
f 289//97 290//97 291//97
v 0.0000 -0.5500 0.7667
v 0.3656 -0.4687 0.7667
v 0.3500 -0.4464 1.2778
vn 0.2168 -0.9750 0.0491
f 292//98 293//98 294//98
v 0.3656 -0.4687 0.7667
v 0.6062 -0.2029 1.2778
v 0.3500 -0.4464 1.2778
vn 0.6880 -0.7238 0.0525
f 295//99 296//99 297//99
v 0.3656 -0.4687 0.7667
v 0.6333 -0.2277 0.7667
v 0.6062 -0.2029 1.2778
vn 0.6674 -0.7412 0.0713
f 298//100 299//100 300//100
v 0.6333 -0.2277 0.7667
v 0.7000 0.2748 1.2778
v 0.6062 -0.2029 1.2778
vn 0.9794 -0.1923 0.0612
f 301//101 302//101 303//101
v 0.6333 -0.2277 0.7667
v 0.7312 0.2451 0.7667
v 0.7000 0.2748 1.2778
vn 0.9767 -0.2024 0.0715
f 304//102 305//102 306//102
v -0.7000 0.2748 1.2778
v -0.5792 -0.1317 1.7889
v -0.6687 0.3251 1.7889
vn -0.9783 -0.1919 0.0787
f 307//103 308//103 309//103
v -0.7000 0.2748 1.2778
v -0.6062 -0.2029 1.2778
v -0.5792 -0.1317 1.7889
vn -0.9782 -0.1920 0.0786
f 310//104 311//104 312//104
v -0.6062 -0.2029 1.2778
v -0.3344 -0.3645 1.7889
v -0.5792 -0.1317 1.7889
vn -0.6828 -0.7178 0.1362
f 313//105 314//105 315//105
v -0.6062 -0.2029 1.2778
v -0.3500 -0.4464 1.2778
v -0.3344 -0.3645 1.7889
vn -0.6826 -0.7181 0.1360
f 316//106 317//106 318//106
v -0.3500 -0.4464 1.2778
v 0.0000 -0.4431 1.7889
v -0.3344 -0.3645 1.7889
vn -0.2257 -0.9608 0.1609
f 319//107 320//107 321//107
v -0.3500 -0.4464 1.2778
v 0.0000 -0.5286 1.2778
v 0.0000 -0.4431 1.7889
vn -0.2256 -0.9609 0.1608
f 322//108 323//108 324//108
v 0.0000 -0.5286 1.2778
v 0.3344 -0.3645 1.7889
v 0.0000 -0.4431 1.7889
vn 0.2257 -0.9608 0.1608
f 325//109 326//109 327//109
v 0.0000 -0.5286 1.2778
v 0.3500 -0.4464 1.2778
v 0.3344 -0.3645 1.7889
vn 0.2256 -0.9608 0.1609
f 328//110 329//110 330//110
v 0.3500 -0.4464 1.2778
v 0.5792 -0.1317 1.7889
v 0.3344 -0.3645 1.7889
vn 0.6828 -0.7178 0.1360
f 331//111 332//111 333//111
v 0.3500 -0.4464 1.2778
v 0.6062 -0.2029 1.2778
v 0.5792 -0.1317 1.7889
vn 0.6825 -0.7180 0.1362
f 334//112 335//112 336//112
v 0.6062 -0.2029 1.2778
v 0.6687 0.3251 1.7889
v 0.5792 -0.1317 1.7889
vn 0.9783 -0.1919 0.0785
f 337//113 338//113 339//113
v 0.6062 -0.2029 1.2778
v 0.7000 0.2748 1.2778
v 0.6687 0.3251 1.7889
vn 0.9782 -0.1920 0.0787
f 340//114 341//114 342//114
v -0.6687 0.3251 1.7889
v -0.5521 -0.0504 2.3000
v -0.6375 0.4000 2.3000
vn -0.9788 -0.1856 0.0871
f 343//115 344//115 345//115
v -0.6687 0.3251 1.7889
v -0.5792 -0.1317 1.7889
v -0.5521 -0.0504 2.3000
vn -0.9780 -0.1918 0.0823
f 346//116 347//116 348//116
v -0.5792 -0.1317 1.7889
v -0.3187 -0.2800 2.3000
v -0.5521 -0.0504 2.3000
vn -0.6936 -0.7048 0.1488
f 349//117 350//117 351//117
v -0.5792 -0.1317 1.7889
v -0.3344 -0.3645 1.7889
v -0.3187 -0.2800 2.3000
vn -0.6825 -0.7175 0.1394
f 352//118 353//118 354//118
v -0.3344 -0.3645 1.7889
v 0.0000 -0.3575 2.3000
v -0.3187 -0.2800 2.3000
vn -0.2329 -0.9583 0.1655
f 355//119 356//119 357//119
v -0.3344 -0.3645 1.7889
v 0.0000 -0.4431 1.7889
v 0.0000 -0.3575 2.3000
vn -0.2257 -0.9608 0.1608
f 358//120 359//120 360//120
v 0.0000 -0.4431 1.7889
v 0.3187 -0.2800 2.3000
v 0.0000 -0.3575 2.3000
vn 0.2331 -0.9591 0.1605
f 361//121 362//121 363//121
v 0.0000 -0.4431 1.7889
v 0.3344 -0.3645 1.7889
v 0.3187 -0.2800 2.3000
vn 0.2255 -0.9601 0.1656
f 364//122 365//122 366//122
v 0.3344 -0.3645 1.7889
v 0.5521 -0.0504 2.3000
v 0.3187 -0.2800 2.3000
vn 0.6947 -0.7060 0.1379
f 367//123 368//123 369//123
v 0.3344 -0.3645 1.7889
v 0.5792 -0.1317 1.7889
v 0.5521 -0.0504 2.3000
vn 0.6814 -0.7164 0.1500
f 370//124 371//124 372//124
v 0.5792 -0.1317 1.7889
v 0.6375 0.4000 2.3000
v 0.5521 -0.0504 2.3000
vn 0.9792 -0.1857 0.0814
f 373//125 374//125 375//125
v 0.5792 -0.1317 1.7889
v 0.6687 0.3251 1.7889
v 0.6375 0.4000 2.3000
vn 0.9775 -0.1918 0.0879
f 376//126 377//126 378//126
v -0.0000 0.1257 -2.3000
v -0.0195 0.1157 -2.3000
v -0.0225 0.3500 -2.3000
vn -0.0000 -0.0000 -1.0000
f 379//127 380//127 381//127
v -0.0000 0.1257 -2.3000
v -0.0112 -0.0037 -2.3000
v -0.0195 0.1157 -2.3000
vn -0.0000 -0.0000 -1.0000
f 382//128 383//128 384//128
v -0.0000 0.1257 -2.3000
v 0.0000 -0.0440 -2.3000
v -0.0112 -0.0037 -2.3000
vn -0.0000 -0.0000 -1.0000
f 385//129 386//129 387//129
v -0.0000 0.1257 -2.3000
v 0.0112 -0.0037 -2.3000
v 0.0000 -0.0440 -2.3000
vn 0.0000 -0.0000 -1.0000
f 388//130 389//130 390//130
v -0.0000 0.1257 -2.3000
v 0.0195 0.1157 -2.3000
v 0.0112 -0.0037 -2.3000
vn 0.0000 -0.0000 -1.0000
f 391//131 392//131 393//131
v -0.0000 0.1257 -2.3000
v 0.0225 0.3500 -2.3000
v 0.0195 0.1157 -2.3000
vn 0.0000 -0.0000 -1.0000
f 394//132 395//132 396//132
v -0.0000 0.1257 -2.3000
v -0.0225 0.3500 -2.3000
v 0.0225 0.3500 -2.3000
vn 0.0000 0.0000 -1.0000
f 397//133 398//133 399//133
v -0.0000 -0.0312 2.3000
v -0.6375 0.4000 2.3000
v -0.5521 -0.0504 2.3000
vn -0.0000 -0.0000 1.0000
f 400//134 401//134 402//134
v -0.0000 -0.0312 2.3000
v -0.5521 -0.0504 2.3000
v -0.3187 -0.2800 2.3000
vn -0.0000 -0.0000 1.0000
f 403//135 404//135 405//135
v -0.0000 -0.0312 2.3000
v -0.3187 -0.2800 2.3000
v 0.0000 -0.3575 2.3000
vn -0.0000 -0.0000 1.0000
f 406//136 407//136 408//136
v -0.0000 -0.0312 2.3000
v 0.0000 -0.3575 2.3000
v 0.3187 -0.2800 2.3000
vn 0.0000 -0.0000 1.0000
f 409//137 410//137 411//137
v -0.0000 -0.0312 2.3000
v 0.3187 -0.2800 2.3000
v 0.5521 -0.0504 2.3000
vn 0.0000 -0.0000 1.0000
f 412//138 413//138 414//138
v -0.0000 -0.0312 2.3000
v 0.5521 -0.0504 2.3000
v 0.6375 0.4000 2.3000
vn 0.0000 -0.0000 1.0000
f 415//139 416//139 417//139
v -0.0000 -0.0312 2.3000
v 0.6375 0.4000 2.3000
v -0.6375 0.4000 2.3000
vn 0.0000 0.0000 1.0000
f 418//140 419//140 420//140
o iron
usemtl iron
s off
v 0.1600 0.2000 -2.1000
v 0.0000 0.0402 -2.0920
v 0.0000 0.1500 -3.1000
vn 0.7026 -0.7074 -0.0771
f 421//141 422//141 423//141
v 0.0000 0.2000 -2.1000
v 0.0000 0.0402 -2.0920
v 0.1600 0.2000 -2.1000
vn -0.0000 0.0499 0.9988
f 424//142 425//142 426//142
v 0.0000 0.0402 -2.0920
v -0.1600 0.2000 -2.1000
v 0.0000 0.1500 -3.1000
vn -0.7026 -0.7074 -0.0771
f 427//143 428//143 429//143
v 0.0000 0.2000 -2.1000
v -0.1600 0.2000 -2.1000
v 0.0000 0.0402 -2.0920
vn -0.0000 0.0499 0.9988
f 430//144 431//144 432//144
v -0.1600 0.2000 -2.1000
v -0.0000 0.3598 -2.1080
v 0.0000 0.1500 -3.1000
vn -0.7026 0.6962 -0.1472
f 433//145 434//145 435//145
v 0.0000 0.2000 -2.1000
v -0.0000 0.3598 -2.1080
v -0.1600 0.2000 -2.1000
vn -0.0000 0.0499 0.9988
f 436//146 437//146 438//146
v -0.0000 0.3598 -2.1080
v 0.1600 0.2000 -2.1000
v 0.0000 0.1500 -3.1000
vn 0.7026 0.6962 -0.1472
f 439//147 440//147 441//147
v 0.0000 0.2000 -2.1000
v 0.1600 0.2000 -2.1000
v -0.0000 0.3598 -2.1080
vn -0.0000 0.0499 0.9988
f 442//148 443//148 444//148
v -0.6305 0.3000 -0.6259
v -2.3029 0.5603 1.4035
v -2.3305 0.6000 1.3741
vn -0.5908 -0.7025 -0.3968
f 445//149 446//149 447//149
v -0.6305 0.3000 -0.6259
v -0.6029 0.2603 -0.5965
v -2.3029 0.5603 1.4035
vn -0.5908 -0.7025 -0.3968
f 448//150 449//150 450//150
v -0.6000 0.3000 -0.6000
v -0.6029 0.2603 -0.5965
v -0.6305 0.3000 -0.6259
vn 0.6435 -0.1136 -0.7570
f 451//151 452//151 453//151
v -2.3000 0.6000 1.4000
v -2.3305 0.6000 1.3741
v -2.3029 0.5603 1.4035
vn -0.6435 0.1136 0.7570
f 454//152 455//152 456//152
v -0.6029 0.2603 -0.5965
v -2.2695 0.6000 1.4259
v -2.3029 0.5603 1.4035
vn 0.4868 -0.7025 0.5191
f 457//153 458//153 459//153
v -0.6029 0.2603 -0.5965
v -0.5695 0.3000 -0.5741
v -2.2695 0.6000 1.4259
vn 0.4868 -0.7025 0.5191
f 460//154 461//154 462//154
v -0.6000 0.3000 -0.6000
v -0.5695 0.3000 -0.5741
v -0.6029 0.2603 -0.5965
vn 0.6435 -0.1136 -0.7570
f 463//155 464//155 465//155
v -2.3000 0.6000 1.4000
v -2.3029 0.5603 1.4035
v -2.2695 0.6000 1.4259
vn -0.6435 0.1136 0.7570
f 466//156 467//156 468//156
v -0.5695 0.3000 -0.5741
v -2.2971 0.6397 1.3965
v -2.2695 0.6000 1.4259
vn 0.5908 0.7025 0.3968
f 469//157 470//157 471//157
v -0.5695 0.3000 -0.5741
v -0.5971 0.3397 -0.6035
v -2.2971 0.6397 1.3965
vn 0.5908 0.7025 0.3968
f 472//158 473//158 474//158
v -0.6000 0.3000 -0.6000
v -0.5971 0.3397 -0.6035
v -0.5695 0.3000 -0.5741
vn 0.6435 -0.1136 -0.7570
f 475//159 476//159 477//159
v -2.3000 0.6000 1.4000
v -2.2695 0.6000 1.4259
v -2.2971 0.6397 1.3965
vn -0.6435 0.1136 0.7570
f 478//160 479//160 480//160
v -0.5971 0.3397 -0.6035
v -2.3305 0.6000 1.3741
v -2.2971 0.6397 1.3965
vn -0.4868 0.7025 -0.5191
f 481//161 482//161 483//161
v -0.5971 0.3397 -0.6035
v -0.6305 0.3000 -0.6259
v -2.3305 0.6000 1.3741
vn -0.4868 0.7025 -0.5191
f 484//162 485//162 486//162
v -0.6000 0.3000 -0.6000
v -0.6305 0.3000 -0.6259
v -0.5971 0.3397 -0.6035
vn 0.6435 -0.1136 -0.7570
f 487//163 488//163 489//163
v -2.3000 0.6000 1.4000
v -2.2971 0.6397 1.3965
v -2.3305 0.6000 1.3741
vn -0.6435 0.1136 0.7570
f 490//164 491//164 492//164
v -0.6572 0.3000 1.0606
v -2.3069 0.5606 1.4013
v -2.3072 0.6000 1.3606
vn -0.2490 -0.6961 -0.6734
f 493//165 494//165 495//165
v -0.6572 0.3000 1.0606
v -0.6569 0.2606 1.1013
v -2.3069 0.5606 1.4013
vn -0.2490 -0.6961 -0.6734
f 496//166 497//166 498//166
v -0.6500 0.3000 1.1000
v -0.6569 0.2606 1.1013
v -0.6572 0.3000 1.0606
vn 0.9685 -0.1761 -0.1761
f 499//167 500//167 501//167
v -2.3000 0.6000 1.4000
v -2.3072 0.6000 1.3606
v -2.3069 0.5606 1.4013
vn -0.9685 0.1761 0.1761
f 502//168 503//168 504//168
v -0.6569 0.2606 1.1013
v -2.2928 0.6000 1.4394
v -2.3069 0.5606 1.4013
vn 0.0040 -0.6961 0.7180
f 505//169 506//169 507//169
v -0.6569 0.2606 1.1013
v -0.6428 0.3000 1.1394
v -2.2928 0.6000 1.4394
vn 0.0040 -0.6961 0.7180
f 508//170 509//170 510//170
v -0.6500 0.3000 1.1000
v -0.6428 0.3000 1.1394
v -0.6569 0.2606 1.1013
vn 0.9685 -0.1761 -0.1761
f 511//171 512//171 513//171
v -2.3000 0.6000 1.4000
v -2.3069 0.5606 1.4013
v -2.2928 0.6000 1.4394
vn -0.9685 0.1761 0.1761
f 514//172 515//172 516//172
v -0.6428 0.3000 1.1394
v -2.2931 0.6394 1.3987
v -2.2928 0.6000 1.4394
vn 0.2490 0.6961 0.6734
f 517//173 518//173 519//173
v -0.6428 0.3000 1.1394
v -0.6431 0.3394 1.0987
v -2.2931 0.6394 1.3987
vn 0.2490 0.6961 0.6734
f 520//174 521//174 522//174
v -0.6500 0.3000 1.1000
v -0.6431 0.3394 1.0987
v -0.6428 0.3000 1.1394
vn 0.9685 -0.1761 -0.1761
f 523//175 524//175 525//175
v -2.3000 0.6000 1.4000
v -2.2928 0.6000 1.4394
v -2.2931 0.6394 1.3987
vn -0.9685 0.1761 0.1761
f 526//176 527//176 528//176
v -0.6431 0.3394 1.0987
v -2.3072 0.6000 1.3606
v -2.2931 0.6394 1.3987
vn -0.0040 0.6961 -0.7180
f 529//177 530//177 531//177
v -0.6431 0.3394 1.0987
v -0.6572 0.3000 1.0606
v -2.3072 0.6000 1.3606
vn -0.0040 0.6961 -0.7180
f 532//178 533//178 534//178
v -0.6500 0.3000 1.1000
v -0.6572 0.3000 1.0606
v -0.6431 0.3394 1.0987
vn 0.9685 -0.1761 -0.1761
f 535//179 536//179 537//179
v -2.3000 0.6000 1.4000
v -2.2931 0.6394 1.3987
v -2.3072 0.6000 1.3606
vn -0.9685 0.1761 0.1761
f 538//180 539//180 540//180
v 0.5695 0.3000 -0.5741
v 2.3029 0.5603 1.4035
v 2.2695 0.6000 1.4259
vn -0.4868 -0.7025 0.5191
f 541//181 542//181 543//181
v 0.5695 0.3000 -0.5741
v 0.6029 0.2603 -0.5965
v 2.3029 0.5603 1.4035
vn -0.4868 -0.7025 0.5191
f 544//182 545//182 546//182
v 0.6000 0.3000 -0.6000
v 0.6029 0.2603 -0.5965
v 0.5695 0.3000 -0.5741
vn -0.6435 -0.1136 -0.7570
f 547//183 548//183 549//183
v 2.3000 0.6000 1.4000
v 2.2695 0.6000 1.4259
v 2.3029 0.5603 1.4035
vn 0.6435 0.1136 0.7570
f 550//184 551//184 552//184
v 0.6029 0.2603 -0.5965
v 2.3305 0.6000 1.3741
v 2.3029 0.5603 1.4035
vn 0.5908 -0.7025 -0.3968
f 553//185 554//185 555//185
v 0.6029 0.2603 -0.5965
v 0.6305 0.3000 -0.6259
v 2.3305 0.6000 1.3741
vn 0.5908 -0.7025 -0.3968
f 556//186 557//186 558//186
v 0.6000 0.3000 -0.6000
v 0.6305 0.3000 -0.6259
v 0.6029 0.2603 -0.5965
vn -0.6435 -0.1136 -0.7570
f 559//187 560//187 561//187
v 2.3000 0.6000 1.4000
v 2.3029 0.5603 1.4035
v 2.3305 0.6000 1.3741
vn 0.6435 0.1136 0.7570
f 562//188 563//188 564//188
v 0.6305 0.3000 -0.6259
v 2.2971 0.6397 1.3965
v 2.3305 0.6000 1.3741
vn 0.4868 0.7025 -0.5191
f 565//189 566//189 567//189
v 0.6305 0.3000 -0.6259
v 0.5971 0.3397 -0.6035
v 2.2971 0.6397 1.3965
vn 0.4868 0.7025 -0.5191
f 568//190 569//190 570//190
v 0.6000 0.3000 -0.6000
v 0.5971 0.3397 -0.6035
v 0.6305 0.3000 -0.6259
vn -0.6435 -0.1136 -0.7570
f 571//191 572//191 573//191
v 2.3000 0.6000 1.4000
v 2.3305 0.6000 1.3741
v 2.2971 0.6397 1.3965
vn 0.6435 0.1136 0.7570
f 574//192 575//192 576//192
v 0.5971 0.3397 -0.6035
v 2.2695 0.6000 1.4259
v 2.2971 0.6397 1.3965
vn -0.5908 0.7025 0.3968
f 577//193 578//193 579//193
v 0.5971 0.3397 -0.6035
v 0.5695 0.3000 -0.5741
v 2.2695 0.6000 1.4259
vn -0.5908 0.7025 0.3968
f 580//194 581//194 582//194
v 0.6000 0.3000 -0.6000
v 0.5695 0.3000 -0.5741
v 0.5971 0.3397 -0.6035
vn -0.6435 -0.1136 -0.7570
f 583//195 584//195 585//195
v 2.3000 0.6000 1.4000
v 2.2971 0.6397 1.3965
v 2.2695 0.6000 1.4259
vn 0.6435 0.1136 0.7570
f 586//196 587//196 588//196
v 0.6428 0.3000 1.1394
v 2.3069 0.5606 1.4013
v 2.2928 0.6000 1.4394
vn -0.0040 -0.6961 0.7180
f 589//197 590//197 591//197
v 0.6428 0.3000 1.1394
v 0.6569 0.2606 1.1013
v 2.3069 0.5606 1.4013
vn -0.0040 -0.6961 0.7180
f 592//198 593//198 594//198
v 0.6500 0.3000 1.1000
v 0.6569 0.2606 1.1013
v 0.6428 0.3000 1.1394
vn -0.9685 -0.1761 -0.1761
f 595//199 596//199 597//199
v 2.3000 0.6000 1.4000
v 2.2928 0.6000 1.4394
v 2.3069 0.5606 1.4013
vn 0.9685 0.1761 0.1761
f 598//200 599//200 600//200
v 0.6569 0.2606 1.1013
v 2.3072 0.6000 1.3606
v 2.3069 0.5606 1.4013
vn 0.2490 -0.6961 -0.6734
f 601//201 602//201 603//201
v 0.6569 0.2606 1.1013
v 0.6572 0.3000 1.0606
v 2.3072 0.6000 1.3606
vn 0.2490 -0.6961 -0.6734
f 604//202 605//202 606//202
v 0.6500 0.3000 1.1000
v 0.6572 0.3000 1.0606
v 0.6569 0.2606 1.1013
vn -0.9685 -0.1761 -0.1761
f 607//203 608//203 609//203
v 2.3000 0.6000 1.4000
v 2.3069 0.5606 1.4013
v 2.3072 0.6000 1.3606
vn 0.9685 0.1761 0.1761
f 610//204 611//204 612//204
v 0.6572 0.3000 1.0606
v 2.2931 0.6394 1.3987
v 2.3072 0.6000 1.3606
vn 0.0040 0.6961 -0.7180
f 613//205 614//205 615//205
v 0.6572 0.3000 1.0606
v 0.6431 0.3394 1.0987
v 2.2931 0.6394 1.3987
vn 0.0040 0.6961 -0.7180
f 616//206 617//206 618//206
v 0.6500 0.3000 1.1000
v 0.6431 0.3394 1.0987
v 0.6572 0.3000 1.0606
vn -0.9685 -0.1761 -0.1761
f 619//207 620//207 621//207
v 2.3000 0.6000 1.4000
v 2.3072 0.6000 1.3606
v 2.2931 0.6394 1.3987
vn 0.9685 0.1761 0.1761
f 622//208 623//208 624//208
v 0.6431 0.3394 1.0987
v 2.2928 0.6000 1.4394
v 2.2931 0.6394 1.3987
vn -0.2490 0.6961 0.6734
f 625//209 626//209 627//209
v 0.6431 0.3394 1.0987
v 0.6428 0.3000 1.1394
v 2.2928 0.6000 1.4394
vn -0.2490 0.6961 0.6734
f 628//210 629//210 630//210
v 0.6500 0.3000 1.1000
v 0.6428 0.3000 1.1394
v 0.6431 0.3394 1.0987
vn -0.9685 -0.1761 -0.1761
f 631//211 632//211 633//211
v 2.3000 0.6000 1.4000
v 2.2931 0.6394 1.3987
v 2.2928 0.6000 1.4394
vn 0.9685 0.1761 0.1761
f 634//212 635//212 636//212
v -0.5700 0.1500 1.6000
v -0.4400 -0.0059 2.4000
v -0.5300 0.1500 2.4000
vn -0.8652 -0.4995 0.0433
f 637//213 638//213 639//213
v -0.5700 0.1500 1.6000
v -0.4600 -0.0405 1.6000
v -0.4400 -0.0059 2.4000
vn -0.8652 -0.4995 0.0433
f 640//214 641//214 642//214
v -0.3500 0.1500 1.6000
v -0.4600 -0.0405 1.6000
v -0.5700 0.1500 1.6000
vn -0.0000 0.0000 -1.0000
f 643//215 644//215 645//215
v -0.3500 0.1500 2.4000
v -0.5300 0.1500 2.4000
v -0.4400 -0.0059 2.4000
vn 0.0000 0.0000 1.0000
f 646//216 647//216 648//216
v -0.4600 -0.0405 1.6000
v -0.2600 -0.0059 2.4000
v -0.4400 -0.0059 2.4000
vn -0.0000 -0.9991 0.0433
f 649//217 650//217 651//217
v -0.4600 -0.0405 1.6000
v -0.2400 -0.0405 1.6000
v -0.2600 -0.0059 2.4000
vn 0.0000 -0.9991 0.0433
f 652//218 653//218 654//218
v -0.3500 0.1500 1.6000
v -0.2400 -0.0405 1.6000
v -0.4600 -0.0405 1.6000
vn 0.0000 -0.0000 -1.0000
f 655//219 656//219 657//219
v -0.3500 0.1500 2.4000
v -0.4400 -0.0059 2.4000
v -0.2600 -0.0059 2.4000
vn 0.0000 0.0000 1.0000
f 658//220 659//220 660//220
v -0.2400 -0.0405 1.6000
v -0.1700 0.1500 2.4000
v -0.2600 -0.0059 2.4000
vn 0.8652 -0.4995 0.0433
f 661//221 662//221 663//221
v -0.2400 -0.0405 1.6000
v -0.1300 0.1500 1.6000
v -0.1700 0.1500 2.4000
vn 0.8652 -0.4995 0.0433
f 664//222 665//222 666//222
v -0.3500 0.1500 1.6000
v -0.1300 0.1500 1.6000
v -0.2400 -0.0405 1.6000
vn 0.0000 0.0000 -1.0000
f 667//223 668//223 669//223
v -0.3500 0.1500 2.4000
v -0.2600 -0.0059 2.4000
v -0.1700 0.1500 2.4000
vn 0.0000 0.0000 1.0000
f 670//224 671//224 672//224
v -0.1300 0.1500 1.6000
v -0.2600 0.3059 2.4000
v -0.1700 0.1500 2.4000
vn 0.8652 0.4995 0.0433
f 673//225 674//225 675//225
v -0.1300 0.1500 1.6000
v -0.2400 0.3405 1.6000
v -0.2600 0.3059 2.4000
vn 0.8652 0.4995 0.0433
f 676//226 677//226 678//226
v -0.3500 0.1500 1.6000
v -0.2400 0.3405 1.6000
v -0.1300 0.1500 1.6000
vn 0.0000 0.0000 -1.0000
f 679//227 680//227 681//227
v -0.3500 0.1500 2.4000
v -0.1700 0.1500 2.4000
v -0.2600 0.3059 2.4000
vn -0.0000 0.0000 1.0000
f 682//228 683//228 684//228
v -0.2400 0.3405 1.6000
v -0.4400 0.3059 2.4000
v -0.2600 0.3059 2.4000
vn 0.0000 0.9991 0.0433
f 685//229 686//229 687//229
v -0.2400 0.3405 1.6000
v -0.4600 0.3405 1.6000
v -0.4400 0.3059 2.4000
vn 0.0000 0.9991 0.0433
f 688//230 689//230 690//230
v -0.3500 0.1500 1.6000
v -0.4600 0.3405 1.6000
v -0.2400 0.3405 1.6000
vn 0.0000 0.0000 -1.0000
f 691//231 692//231 693//231
v -0.3500 0.1500 2.4000
v -0.2600 0.3059 2.4000
v -0.4400 0.3059 2.4000
vn 0.0000 -0.0000 1.0000
f 694//232 695//232 696//232
v -0.4600 0.3405 1.6000
v -0.5300 0.1500 2.4000
v -0.4400 0.3059 2.4000
vn -0.8652 0.4995 0.0433
f 697//233 698//233 699//233
v -0.4600 0.3405 1.6000
v -0.5700 0.1500 1.6000
v -0.5300 0.1500 2.4000
vn -0.8652 0.4995 0.0433
f 700//234 701//234 702//234
v -0.3500 0.1500 1.6000
v -0.5700 0.1500 1.6000
v -0.4600 0.3405 1.6000
vn 0.0000 0.0000 -1.0000
f 703//235 704//235 705//235
v -0.3500 0.1500 2.4000
v -0.4400 0.3059 2.4000
v -0.5300 0.1500 2.4000
vn 0.0000 0.0000 1.0000
f 706//236 707//236 708//236
v 0.1300 0.1500 1.6000
v 0.2600 -0.0059 2.4000
v 0.1700 0.1500 2.4000
vn -0.8652 -0.4995 0.0433
f 709//237 710//237 711//237
v 0.1300 0.1500 1.6000
v 0.2400 -0.0405 1.6000
v 0.2600 -0.0059 2.4000
vn -0.8652 -0.4995 0.0433
f 712//238 713//238 714//238
v 0.3500 0.1500 1.6000
v 0.2400 -0.0405 1.6000
v 0.1300 0.1500 1.6000
vn -0.0000 0.0000 -1.0000
f 715//239 716//239 717//239
v 0.3500 0.1500 2.4000
v 0.1700 0.1500 2.4000
v 0.2600 -0.0059 2.4000
vn 0.0000 0.0000 1.0000
f 718//240 719//240 720//240
v 0.2400 -0.0405 1.6000
v 0.4400 -0.0059 2.4000
v 0.2600 -0.0059 2.4000
vn -0.0000 -0.9991 0.0433
f 721//241 722//241 723//241
v 0.2400 -0.0405 1.6000
v 0.4600 -0.0405 1.6000
v 0.4400 -0.0059 2.4000
vn 0.0000 -0.9991 0.0433
f 724//242 725//242 726//242
v 0.3500 0.1500 1.6000
v 0.4600 -0.0405 1.6000
v 0.2400 -0.0405 1.6000
vn 0.0000 -0.0000 -1.0000
f 727//243 728//243 729//243
v 0.3500 0.1500 2.4000
v 0.2600 -0.0059 2.4000
v 0.4400 -0.0059 2.4000
vn 0.0000 0.0000 1.0000
f 730//244 731//244 732//244
v 0.4600 -0.0405 1.6000
v 0.5300 0.1500 2.4000
v 0.4400 -0.0059 2.4000
vn 0.8652 -0.4995 0.0433
f 733//245 734//245 735//245
v 0.4600 -0.0405 1.6000
v 0.5700 0.1500 1.6000
v 0.5300 0.1500 2.4000
vn 0.8652 -0.4995 0.0433
f 736//246 737//246 738//246
v 0.3500 0.1500 1.6000
v 0.5700 0.1500 1.6000
v 0.4600 -0.0405 1.6000
vn 0.0000 0.0000 -1.0000
f 739//247 740//247 741//247
v 0.3500 0.1500 2.4000
v 0.4400 -0.0059 2.4000
v 0.5300 0.1500 2.4000
vn 0.0000 0.0000 1.0000
f 742//248 743//248 744//248
v 0.5700 0.1500 1.6000
v 0.4400 0.3059 2.4000
v 0.5300 0.1500 2.4000
vn 0.8652 0.4995 0.0433
f 745//249 746//249 747//249
v 0.5700 0.1500 1.6000
v 0.4600 0.3405 1.6000
v 0.4400 0.3059 2.4000
vn 0.8652 0.4995 0.0433
f 748//250 749//250 750//250
v 0.3500 0.1500 1.6000
v 0.4600 0.3405 1.6000
v 0.5700 0.1500 1.6000
vn 0.0000 0.0000 -1.0000
f 751//251 752//251 753//251
v 0.3500 0.1500 2.4000
v 0.5300 0.1500 2.4000
v 0.4400 0.3059 2.4000
vn -0.0000 0.0000 1.0000
f 754//252 755//252 756//252
v 0.4600 0.3405 1.6000
v 0.2600 0.3059 2.4000
v 0.4400 0.3059 2.4000
vn 0.0000 0.9991 0.0433
f 757//253 758//253 759//253
v 0.4600 0.3405 1.6000
v 0.2400 0.3405 1.6000
v 0.2600 0.3059 2.4000
vn 0.0000 0.9991 0.0433
f 760//254 761//254 762//254
v 0.3500 0.1500 1.6000
v 0.2400 0.3405 1.6000
v 0.4600 0.3405 1.6000
vn 0.0000 0.0000 -1.0000
f 763//255 764//255 765//255
v 0.3500 0.1500 2.4000
v 0.4400 0.3059 2.4000
v 0.2600 0.3059 2.4000
vn 0.0000 -0.0000 1.0000
f 766//256 767//256 768//256
v 0.2400 0.3405 1.6000
v 0.1700 0.1500 2.4000
v 0.2600 0.3059 2.4000
vn -0.8652 0.4995 0.0433
f 769//257 770//257 771//257
v 0.2400 0.3405 1.6000
v 0.1300 0.1500 1.6000
v 0.1700 0.1500 2.4000
vn -0.8652 0.4995 0.0433
f 772//258 773//258 774//258
v 0.3500 0.1500 1.6000
v 0.1300 0.1500 1.6000
v 0.2400 0.3405 1.6000
vn 0.0000 0.0000 -1.0000
f 775//259 776//259 777//259
v 0.3500 0.1500 2.4000
v 0.2600 0.3059 2.4000
v 0.1700 0.1500 2.4000
vn 0.0000 0.0000 1.0000
f 778//260 779//260 780//260
v -0.3500 0.2750 0.0500
v -0.3500 0.2750 0.9500
v -0.3500 0.6250 0.9500
vn -1.0000 0.0000 0.0000
f 781//261 782//261 783//261
v -0.3500 0.2750 0.0500
v -0.3500 0.6250 0.9500
v -0.3500 0.6250 0.0500
vn -1.0000 0.0000 0.0000
f 784//262 785//262 786//262
v 0.3500 0.2750 0.0500
v 0.3500 0.6250 0.9500
v 0.3500 0.2750 0.9500
vn 1.0000 0.0000 0.0000
f 787//263 788//263 789//263
v 0.3500 0.2750 0.0500
v 0.3500 0.6250 0.0500
v 0.3500 0.6250 0.9500
vn 1.0000 0.0000 0.0000
f 790//264 791//264 792//264
v -0.3500 0.2750 0.0500
v 0.3500 0.2750 0.9500
v -0.3500 0.2750 0.9500
vn 0.0000 -1.0000 0.0000
f 793//265 794//265 795//265
v -0.3500 0.2750 0.0500
v 0.3500 0.2750 0.0500
v 0.3500 0.2750 0.9500
vn 0.0000 -1.0000 0.0000
f 796//266 797//266 798//266
v -0.3500 0.6250 0.0500
v -0.3500 0.6250 0.9500
v 0.3500 0.6250 0.9500
vn 0.0000 1.0000 0.0000
f 799//267 800//267 801//267
v -0.3500 0.6250 0.0500
v 0.3500 0.6250 0.9500
v 0.3500 0.6250 0.0500
vn 0.0000 1.0000 0.0000
f 802//268 803//268 804//268
v -0.3500 0.2750 0.0500
v -0.3500 0.6250 0.0500
v 0.3500 0.6250 0.0500
vn 0.0000 0.0000 -1.0000
f 805//269 806//269 807//269
v -0.3500 0.2750 0.0500
v 0.3500 0.6250 0.0500
v 0.3500 0.2750 0.0500
vn 0.0000 0.0000 -1.0000
f 808//270 809//270 810//270
v -0.3500 0.2750 0.9500
v 0.3500 0.6250 0.9500
v -0.3500 0.6250 0.9500
vn 0.0000 0.0000 1.0000
f 811//271 812//271 813//271
v -0.3500 0.2750 0.9500
v 0.3500 0.2750 0.9500
v 0.3500 0.6250 0.9500
vn 0.0000 0.0000 1.0000
f 814//272 815//272 816//272
o sail
usemtl sail
s off
v -0.6000 0.3000 -0.6000
v -2.3000 0.6000 1.4000
v -0.6500 0.3000 1.1000
vn 0.1798 0.9837 0.0053
f 817//273 818//273 819//273
v 0.6000 0.3000 -0.6000
v 0.6500 0.3000 1.1000
v 2.3000 0.6000 1.4000
vn -0.1798 0.9837 0.0053
f 820//274 821//274 822//274
v 0.0000 0.2500 -0.8000
v 0.0000 1.4000 1.0000
v 0.0000 0.2500 1.2000
vn 1.0000 0.0000 0.0000
f 823//275 824//275 825//275
