# drone: generated by tools/make_models.py (placeholder)
o dark
usemtl dark
s off
v 0.7500 -0.0800 0.0000
v 0.3750 -0.0800 -0.6495
v 0.4200 0.0400 -0.7275
vn 0.7263 -0.5447 -0.4193
f 1//1 2//1 3//1
v 0.7500 -0.0800 0.0000
v 0.4200 0.0400 -0.7275
v 0.8400 0.0400 0.0000
vn 0.7263 -0.5447 -0.4193
f 4//2 5//2 6//2
v 0.3750 -0.0800 -0.6495
v -0.3750 -0.0800 -0.6495
v -0.4200 0.0400 -0.7275
vn -0.0000 -0.5447 -0.8386
f 7//3 8//3 9//3
v 0.3750 -0.0800 -0.6495
v -0.4200 0.0400 -0.7275
v 0.4200 0.0400 -0.7275
vn 0.0000 -0.5447 -0.8386
f 10//4 11//4 12//4
v -0.3750 -0.0800 -0.6495
v -0.7500 -0.0800 -0.0000
v -0.8400 0.0400 -0.0000
vn -0.7263 -0.5447 -0.4193
f 13//5 14//5 15//5
v -0.3750 -0.0800 -0.6495
v -0.8400 0.0400 -0.0000
v -0.4200 0.0400 -0.7275
vn -0.7263 -0.5447 -0.4193
f 16//6 17//6 18//6
v -0.7500 -0.0800 -0.0000
v -0.3750 -0.0800 0.6495
v -0.4200 0.0400 0.7275
vn -0.7263 -0.5447 0.4193
f 19//7 20//7 21//7
v -0.7500 -0.0800 -0.0000
v -0.4200 0.0400 0.7275
v -0.8400 0.0400 -0.0000
vn -0.7263 -0.5447 0.4193
f 22//8 23//8 24//8
v -0.3750 -0.0800 0.6495
v 0.3750 -0.0800 0.6495
v 0.4200 0.0400 0.7275
vn -0.0000 -0.5447 0.8386
f 25//9 26//9 27//9
v -0.3750 -0.0800 0.6495
v 0.4200 0.0400 0.7275
v -0.4200 0.0400 0.7275
vn -0.0000 -0.5447 0.8386
f 28//10 29//10 30//10
v 0.3750 -0.0800 0.6495
v 0.7500 -0.0800 0.0000
v 0.8400 0.0400 0.0000
vn 0.7263 -0.5447 0.4193
f 31//11 32//11 33//11
v 0.3750 -0.0800 0.6495
v 0.8400 0.0400 0.0000
v 0.4200 0.0400 0.7275
vn 0.7263 -0.5447 0.4193
f 34//12 35//12 36//12
v 0.3760 -0.0500 -0.4359
v 0.7262 -0.2185 -0.7387
v 0.7757 -0.1500 -0.6872
vn 0.2523 -0.6918 0.6766
f 37//13 38//13 39//13
v 0.3760 -0.0500 -0.4359
v 0.3265 -0.1185 -0.4875
v 0.7262 -0.2185 -0.7387
vn 0.2523 -0.6918 0.6766
f 40//14 41//14 42//14
v 0.3388 -0.0500 -0.4952
v 0.3265 -0.1185 -0.4875
v 0.3760 -0.0500 -0.4359
vn -0.8282 0.2072 0.5207
f 43//15 44//15 45//15
v 0.7384 -0.1500 -0.7465
v 0.7757 -0.1500 -0.6872
v 0.7262 -0.2185 -0.7387
vn 0.8282 -0.2072 -0.5207
f 46//16 47//16 48//16
v 0.3265 -0.1185 -0.4875
v 0.7012 -0.1500 -0.8057
v 0.7262 -0.2185 -0.7387
vn -0.5004 -0.6918 -0.5206
f 49//17 50//17 51//17
v 0.3265 -0.1185 -0.4875
v 0.3015 -0.0500 -0.5545
v 0.7012 -0.1500 -0.8057
vn -0.5004 -0.6918 -0.5206
f 52//18 53//18 54//18
v 0.3388 -0.0500 -0.4952
v 0.3015 -0.0500 -0.5545
v 0.3265 -0.1185 -0.4875
vn -0.8282 0.2072 0.5207
f 55//19 56//19 57//19
v 0.7384 -0.1500 -0.7465
v 0.7262 -0.2185 -0.7387
v 0.7012 -0.1500 -0.8057
vn 0.8282 -0.2072 -0.5207
f 58//20 59//20 60//20
v 0.3015 -0.0500 -0.5545
v 0.7507 -0.0815 -0.7542
v 0.7012 -0.1500 -0.8057
vn -0.2523 0.6918 -0.6766
f 61//21 62//21 63//21
v 0.3015 -0.0500 -0.5545
v 0.3511 0.0185 -0.5029
v 0.7507 -0.0815 -0.7542
vn -0.2523 0.6918 -0.6766
f 64//22 65//22 66//22
v 0.3388 -0.0500 -0.4952
v 0.3511 0.0185 -0.5029
v 0.3015 -0.0500 -0.5545
vn -0.8282 0.2072 0.5207
f 67//23 68//23 69//23
v 0.7384 -0.1500 -0.7465
v 0.7012 -0.1500 -0.8057
v 0.7507 -0.0815 -0.7542
vn 0.8282 -0.2072 -0.5207
f 70//24 71//24 72//24
v 0.3511 0.0185 -0.5029
v 0.7757 -0.1500 -0.6872
v 0.7507 -0.0815 -0.7542
vn 0.5004 0.6918 0.5206
f 73//25 74//25 75//25
v 0.3511 0.0185 -0.5029
v 0.3760 -0.0500 -0.4359
v 0.7757 -0.1500 -0.6872
vn 0.5004 0.6918 0.5206
f 76//26 77//26 78//26
v 0.3388 -0.0500 -0.4952
v 0.3760 -0.0500 -0.4359
v 0.3511 0.0185 -0.5029
vn -0.8282 0.2072 0.5207
f 79//27 80//27 81//27
v 0.7384 -0.1500 -0.7465
v 0.7507 -0.0815 -0.7542
v 0.7757 -0.1500 -0.6872
vn 0.8282 -0.2072 -0.5207
f 82//28 83//28 84//28
v 0.7927 -0.1500 -0.7721
v 0.7333 -0.2088 -0.7574
v 0.5301 -0.0500 -1.1870
vn 0.5408 -0.6731 -0.5045
f 85//29 86//29 87//29
v 0.7384 -0.1500 -0.7465
v 0.7333 -0.2088 -0.7574
v 0.7927 -0.1500 -0.7721
vn 0.4188 -0.2010 0.8855
f 88//30 89//30 90//30
v 0.7333 -0.2088 -0.7574
v 0.6842 -0.1500 -0.7208
v 0.5301 -0.0500 -1.1870
vn -0.7330 -0.6731 0.0979
f 91//31 92//31 93//31
v 0.7384 -0.1500 -0.7465
v 0.6842 -0.1500 -0.7208
v 0.7333 -0.2088 -0.7574
vn 0.4188 -0.2010 0.8855
f 94//32 95//32 96//32
v 0.6842 -0.1500 -0.7208
v 0.7436 -0.0912 -0.7356
v 0.5301 -0.0500 -1.1870
vn -0.6120 0.7072 0.3540
f 97//33 98//33 99//33
v 0.7384 -0.1500 -0.7465
v 0.7436 -0.0912 -0.7356
v 0.6842 -0.1500 -0.7208
vn 0.4188 -0.2010 0.8855
f 100//34 101//34 102//34
v 0.7436 -0.0912 -0.7356
v 0.7927 -0.1500 -0.7721
v 0.5301 -0.0500 -1.1870
vn 0.6619 0.7072 -0.2484
f 103//35 104//35 105//35
v 0.7384 -0.1500 -0.7465
v 0.7927 -0.1500 -0.7721
v 0.7436 -0.0912 -0.7356
vn 0.4188 -0.2010 0.8855
f 106//36 107//36 108//36
v 0.0700 -0.0500 -0.6000
v 0.0000 -0.2183 -1.0348
v 0.0700 -0.1500 -1.0500
vn 0.7071 -0.6903 0.1534
f 109//37 110//37 111//37
v 0.0700 -0.0500 -0.6000
v 0.0000 -0.1183 -0.5848
v 0.0000 -0.2183 -1.0348
vn 0.7071 -0.6903 0.1534
f 112//38 113//38 114//38
v 0.0000 -0.0500 -0.6000
v 0.0000 -0.1183 -0.5848
v 0.0700 -0.0500 -0.6000
vn -0.0000 0.2169 0.9762
f 115//39 116//39 117//39
v 0.0000 -0.1500 -1.0500
v 0.0700 -0.1500 -1.0500
v 0.0000 -0.2183 -1.0348
vn 0.0000 -0.2169 -0.9762
f 118//40 119//40 120//40
v 0.0000 -0.1183 -0.5848
v -0.0700 -0.1500 -1.0500
v 0.0000 -0.2183 -1.0348
vn -0.7071 -0.6903 0.1534
f 121//41 122//41 123//41
v 0.0000 -0.1183 -0.5848
v -0.0700 -0.0500 -0.6000
v -0.0700 -0.1500 -1.0500
vn -0.7071 -0.6903 0.1534
f 124//42 125//42 126//42
v 0.0000 -0.0500 -0.6000
v -0.0700 -0.0500 -0.6000
v 0.0000 -0.1183 -0.5848
vn -0.0000 0.2169 0.9762
f 127//43 128//43 129//43
v 0.0000 -0.1500 -1.0500
v 0.0000 -0.2183 -1.0348
v -0.0700 -0.1500 -1.0500
vn -0.0000 -0.2169 -0.9762
f 130//44 131//44 132//44
v -0.0700 -0.0500 -0.6000
v -0.0000 -0.0817 -1.0652
v -0.0700 -0.1500 -1.0500
vn -0.7071 0.6903 -0.1534
f 133//45 134//45 135//45
v -0.0700 -0.0500 -0.6000
v -0.0000 0.0183 -0.6152
v -0.0000 -0.0817 -1.0652
vn -0.7071 0.6903 -0.1534
f 136//46 137//46 138//46
v 0.0000 -0.0500 -0.6000
v -0.0000 0.0183 -0.6152
v -0.0700 -0.0500 -0.6000
vn -0.0000 0.2169 0.9762
f 139//47 140//47 141//47
v 0.0000 -0.1500 -1.0500
v -0.0700 -0.1500 -1.0500
v -0.0000 -0.0817 -1.0652
vn -0.0000 -0.2169 -0.9762
f 142//48 143//48 144//48
v -0.0000 0.0183 -0.6152
v 0.0700 -0.1500 -1.0500
v -0.0000 -0.0817 -1.0652
vn 0.7071 0.6903 -0.1534
f 145//49 146//49 147//49
v -0.0000 0.0183 -0.6152
v 0.0700 -0.0500 -0.6000
v 0.0700 -0.1500 -1.0500
vn 0.7071 0.6903 -0.1534
f 148//50 149//50 150//50
v 0.0000 -0.0500 -0.6000
v 0.0700 -0.0500 -0.6000
v -0.0000 0.0183 -0.6152
vn -0.0000 0.2169 0.9762
f 151//51 152//51 153//51
v 0.0000 -0.1500 -1.0500
v -0.0000 -0.0817 -1.0652
v 0.0700 -0.1500 -1.0500
vn 0.0000 -0.2169 -0.9762
f 154//52 155//52 156//52
v 0.0600 -0.1500 -1.0500
v 0.0000 -0.2057 -1.0723
v 0.0000 -0.0500 -1.3000
vn 0.6985 -0.5907 -0.4039
f 157//53 158//53 159//53
v 0.0000 -0.1500 -1.0500
v 0.0000 -0.2057 -1.0723
v 0.0600 -0.1500 -1.0500
vn 0.0000 -0.3714 0.9285
f 160//54 161//54 162//54
v 0.0000 -0.2057 -1.0723
v -0.0600 -0.1500 -1.0500
v 0.0000 -0.0500 -1.3000
vn -0.6985 -0.5907 -0.4039
f 163//55 164//55 165//55
v 0.0000 -0.1500 -1.0500
v -0.0600 -0.1500 -1.0500
v 0.0000 -0.2057 -1.0723
vn 0.0000 -0.3714 0.9285
f 166//56 167//56 168//56
v -0.0600 -0.1500 -1.0500
v -0.0000 -0.0943 -1.0277
v 0.0000 -0.0500 -1.3000
vn -0.6985 0.7063 0.1149
f 169//57 170//57 171//57
v 0.0000 -0.1500 -1.0500
v -0.0000 -0.0943 -1.0277
v -0.0600 -0.1500 -1.0500
vn 0.0000 -0.3714 0.9285
f 172//58 173//58 174//58
v -0.0000 -0.0943 -1.0277
v 0.0600 -0.1500 -1.0500
v 0.0000 -0.0500 -1.3000
vn 0.6985 0.7063 0.1149
f 175//59 176//59 177//59
v 0.0000 -0.1500 -1.0500
v 0.0600 -0.1500 -1.0500
v -0.0000 -0.0943 -1.0277
vn 0.0000 -0.3714 0.9285
f 178//60 179//60 180//60
v -0.3015 -0.0500 -0.5545
v -0.7262 -0.2185 -0.7387
v -0.7012 -0.1500 -0.8057
vn 0.5004 -0.6918 -0.5206
f 181//61 182//61 183//61
v -0.3015 -0.0500 -0.5545
v -0.3265 -0.1185 -0.4875
v -0.7262 -0.2185 -0.7387
vn 0.5004 -0.6918 -0.5206
f 184//62 185//62 186//62
v -0.3388 -0.0500 -0.4952
v -0.3265 -0.1185 -0.4875
v -0.3015 -0.0500 -0.5545
vn 0.8282 0.2072 0.5207
f 187//63 188//63 189//63
v -0.7384 -0.1500 -0.7465
v -0.7012 -0.1500 -0.8057
v -0.7262 -0.2185 -0.7387
vn -0.8282 -0.2072 -0.5207
f 190//64 191//64 192//64
v -0.3265 -0.1185 -0.4875
v -0.7757 -0.1500 -0.6872
v -0.7262 -0.2185 -0.7387
vn -0.2523 -0.6918 0.6766
f 193//65 194//65 195//65
v -0.3265 -0.1185 -0.4875
v -0.3760 -0.0500 -0.4359
v -0.7757 -0.1500 -0.6872
vn -0.2523 -0.6918 0.6766
f 196//66 197//66 198//66
v -0.3388 -0.0500 -0.4952
v -0.3760 -0.0500 -0.4359
v -0.3265 -0.1185 -0.4875
vn 0.8282 0.2072 0.5207
f 199//67 200//67 201//67
v -0.7384 -0.1500 -0.7465
v -0.7262 -0.2185 -0.7387
v -0.7757 -0.1500 -0.6872
vn -0.8282 -0.2072 -0.5207
f 202//68 203//68 204//68
v -0.3760 -0.0500 -0.4359
v -0.7507 -0.0815 -0.7542
v -0.7757 -0.1500 -0.6872
vn -0.5004 0.6918 0.5206
f 205//69 206//69 207//69
v -0.3760 -0.0500 -0.4359
v -0.3511 0.0185 -0.5029
v -0.7507 -0.0815 -0.7542
vn -0.5004 0.6918 0.5206
f 208//70 209//70 210//70
v -0.3388 -0.0500 -0.4952
v -0.3511 0.0185 -0.5029
v -0.3760 -0.0500 -0.4359
vn 0.8282 0.2072 0.5207
f 211//71 212//71 213//71
v -0.7384 -0.1500 -0.7465
v -0.7757 -0.1500 -0.6872
v -0.7507 -0.0815 -0.7542
vn -0.8282 -0.2072 -0.5207
f 214//72 215//72 216//72
v -0.3511 0.0185 -0.5029
v -0.7012 -0.1500 -0.8057
v -0.7507 -0.0815 -0.7542
vn 0.2523 0.6918 -0.6766
f 217//73 218//73 219//73
v -0.3511 0.0185 -0.5029
v -0.3015 -0.0500 -0.5545
v -0.7012 -0.1500 -0.8057
vn 0.2523 0.6918 -0.6766
f 220//74 221//74 222//74
v -0.3388 -0.0500 -0.4952
v -0.3015 -0.0500 -0.5545
v -0.3511 0.0185 -0.5029
vn 0.8282 0.2072 0.5207
f 223//75 224//75 225//75
v -0.7384 -0.1500 -0.7465
v -0.7507 -0.0815 -0.7542
v -0.7012 -0.1500 -0.8057
vn -0.8282 -0.2072 -0.5207
f 226//76 227//76 228//76
v -0.6842 -0.1500 -0.7208
v -0.7333 -0.2088 -0.7574
v -0.5301 -0.0500 -1.1870
vn 0.7330 -0.6731 0.0979
f 229//77 230//77 231//77
v -0.7384 -0.1500 -0.7465
v -0.7333 -0.2088 -0.7574
v -0.6842 -0.1500 -0.7208
vn -0.4188 -0.2010 0.8855
f 232//78 233//78 234//78
v -0.7333 -0.2088 -0.7574
v -0.7927 -0.1500 -0.7721
v -0.5301 -0.0500 -1.1870
vn -0.5408 -0.6731 -0.5045
f 235//79 236//79 237//79
v -0.7384 -0.1500 -0.7465
v -0.7927 -0.1500 -0.7721
v -0.7333 -0.2088 -0.7574
vn -0.4188 -0.2010 0.8855
f 238//80 239//80 240//80
v -0.7927 -0.1500 -0.7721
v -0.7436 -0.0912 -0.7356
v -0.5301 -0.0500 -1.1870
vn -0.6619 0.7072 -0.2484
f 241//81 242//81 243//81
v -0.7384 -0.1500 -0.7465
v -0.7436 -0.0912 -0.7356
v -0.7927 -0.1500 -0.7721
vn -0.4188 -0.2010 0.8855
f 244//82 245//82 246//82
v -0.7436 -0.0912 -0.7356
v -0.6842 -0.1500 -0.7208
v -0.5301 -0.0500 -1.1870
vn 0.6120 0.7072 0.3540
f 247//83 248//83 249//83
v -0.7384 -0.1500 -0.7465
v -0.6842 -0.1500 -0.7208
v -0.7436 -0.0912 -0.7356
vn -0.4188 -0.2010 0.8855
f 250//84 251//84 252//84
v -0.7000 0.0500 -0.2000
v -1.2500 0.1500 0.4500
v -0.7000 0.0500 0.3500
vn 0.1789 0.9839 -0.0000
f 253//85 254//85 255//85
v 0.7000 0.0500 -0.2000
v 0.7000 0.0500 0.3500
v 1.2500 0.1500 0.4500
vn -0.1789 0.9839 0.0000
f 256//86 257//86 258//86
o metal
usemtl metal
s off
v 0.0000 0.5500 0.0000
v 0.7500 0.0000 0.0000
v 0.3750 0.0000 -0.6495
vn 0.5596 0.7632 -0.3231
f 259//87 260//87 261//87
v 0.0000 -0.4500 0.0000
v 0.3750 0.0000 -0.6495
v 0.7500 0.0000 0.0000
vn 0.4932 -0.8220 -0.2847
f 262//88 263//88 264//88
v 0.0000 0.5500 0.0000
v 0.3750 0.0000 -0.6495
v -0.3750 0.0000 -0.6495
vn 0.0000 0.7632 -0.6462
f 265//89 266//89 267//89
v 0.0000 -0.4500 0.0000
v -0.3750 0.0000 -0.6495
v 0.3750 0.0000 -0.6495
vn 0.0000 -0.8220 -0.5695
f 268//90 269//90 270//90
v 0.0000 0.5500 0.0000
v -0.3750 0.0000 -0.6495
v -0.7500 0.0000 -0.0000
vn -0.5596 0.7632 -0.3231
f 271//91 272//91 273//91
v 0.0000 -0.4500 0.0000
v -0.7500 0.0000 -0.0000
v -0.3750 0.0000 -0.6495
vn -0.4932 -0.8220 -0.2847
f 274//92 275//92 276//92
v 0.0000 0.5500 0.0000
v -0.7500 0.0000 -0.0000
v -0.3750 0.0000 0.6495
vn -0.5596 0.7632 0.3231
f 277//93 278//93 279//93
v 0.0000 -0.4500 0.0000
v -0.3750 0.0000 0.6495
v -0.7500 0.0000 -0.0000
vn -0.4932 -0.8220 0.2847
f 280//94 281//94 282//94
v 0.0000 0.5500 0.0000
v -0.3750 0.0000 0.6495
v 0.3750 0.0000 0.6495
vn -0.0000 0.7632 0.6462
f 283//95 284//95 285//95
v 0.0000 -0.4500 0.0000
v 0.3750 0.0000 0.6495
v -0.3750 0.0000 0.6495
vn -0.0000 -0.8220 0.5695
f 286//96 287//96 288//96
v 0.0000 0.5500 0.0000
v 0.3750 0.0000 0.6495
v 0.7500 0.0000 0.0000
vn 0.5596 0.7632 0.3231
f 289//97 290//97 291//97
v 0.0000 -0.4500 0.0000
v 0.7500 0.0000 0.0000
v 0.3750 0.0000 0.6495
vn 0.4932 -0.8220 0.2847
f 292//98 293//98 294//98
