# spark_mite: generated by tools/make_models.py (placeholder)
o dark
usemtl dark
s off
v 0.1100 0.0800 -0.3000
v 0.0000 -0.0297 -0.2923
v 0.0000 0.0200 -1.1500
vn 0.7042 -0.7088 -0.0411
f 1//1 2//1 3//1
v 0.0000 0.0800 -0.3000
v 0.0000 -0.0297 -0.2923
v 0.1100 0.0800 -0.3000
vn -0.0000 0.0704 0.9975
f 4//2 5//2 6//2
v 0.0000 -0.0297 -0.2923
v -0.1100 0.0800 -0.3000
v 0.0000 0.0200 -1.1500
vn -0.7042 -0.7088 -0.0411
f 7//3 8//3 9//3
v 0.0000 0.0800 -0.3000
v -0.1100 0.0800 -0.3000
v 0.0000 -0.0297 -0.2923
vn -0.0000 0.0704 0.9975
f 10//4 11//4 12//4
v -0.1100 0.0800 -0.3000
v -0.0000 0.1897 -0.3077
v 0.0000 0.0200 -1.1500
vn -0.7042 0.6960 -0.1403
f 13//5 14//5 15//5
v 0.0000 0.0800 -0.3000
v -0.0000 0.1897 -0.3077
v -0.1100 0.0800 -0.3000
vn -0.0000 0.0704 0.9975
f 16//6 17//6 18//6
v -0.0000 0.1897 -0.3077
v 0.1100 0.0800 -0.3000
v 0.0000 0.0200 -1.1500
vn 0.7042 0.6960 -0.1403
f 19//7 20//7 21//7
v 0.0000 0.0800 -0.3000
v 0.1100 0.0800 -0.3000
v -0.0000 0.1897 -0.3077
vn -0.0000 0.0704 0.9975
f 22//8 23//8 24//8
v -0.1344 0.0800 -0.2899
v -0.2037 -0.0294 -0.2037
v -0.6010 0.0200 -0.6010
vn 0.4510 -0.7112 -0.5393
f 25//9 26//9 27//9
v -0.2121 0.0800 -0.2121
v -0.2037 -0.0294 -0.2037
v -0.1344 0.0800 -0.2899
vn 0.7029 0.1084 0.7029
f 28//10 29//10 30//10
v -0.2037 -0.0294 -0.2037
v -0.2899 0.0800 -0.1344
v -0.6010 0.0200 -0.6010
vn -0.5393 -0.7112 0.4510
f 31//11 32//11 33//11
v -0.2121 0.0800 -0.2121
v -0.2899 0.0800 -0.1344
v -0.2037 -0.0294 -0.2037
vn 0.7029 0.1084 0.7029
f 34//12 35//12 36//12
v -0.2899 0.0800 -0.1344
v -0.2206 0.1894 -0.2206
v -0.6010 0.0200 -0.6010
vn -0.6467 0.6810 0.3436
f 37//13 38//13 39//13
v -0.2121 0.0800 -0.2121
v -0.2206 0.1894 -0.2206
v -0.2899 0.0800 -0.1344
vn 0.7029 0.1084 0.7029
f 40//14 41//14 42//14
v -0.2206 0.1894 -0.2206
v -0.1344 0.0800 -0.2899
v -0.6010 0.0200 -0.6010
vn 0.3436 0.6810 -0.6467
f 43//15 44//15 45//15
v -0.2121 0.0800 -0.2121
v -0.1344 0.0800 -0.2899
v -0.2206 0.1894 -0.2206
vn 0.7029 0.1084 0.7029
f 46//16 47//16 48//16
v -0.3000 0.0800 -0.1100
v -0.2881 -0.0294 -0.0000
v -0.8500 0.0200 -0.0000
vn -0.0625 -0.7112 -0.7002
f 49//17 50//17 51//17
v -0.3000 0.0800 -0.0000
v -0.2881 -0.0294 -0.0000
v -0.3000 0.0800 -0.1100
vn 0.9941 0.1084 0.0000
f 52//18 53//18 54//18
v -0.2881 -0.0294 -0.0000
v -0.3000 0.0800 0.1100
v -0.8500 0.0200 -0.0000
vn -0.0625 -0.7112 0.7002
f 55//19 56//19 57//19
v -0.3000 0.0800 -0.0000
v -0.3000 0.0800 0.1100
v -0.2881 -0.0294 -0.0000
vn 0.9941 0.1084 0.0000
f 58//20 59//20 60//20
v -0.3000 0.0800 0.1100
v -0.3119 0.1894 0.0000
v -0.8500 0.0200 -0.0000
vn -0.2143 0.6810 0.7002
f 61//21 62//21 63//21
v -0.3000 0.0800 -0.0000
v -0.3119 0.1894 0.0000
v -0.3000 0.0800 0.1100
vn 0.9941 0.1084 0.0000
f 64//22 65//22 66//22
v -0.3119 0.1894 0.0000
v -0.3000 0.0800 -0.1100
v -0.8500 0.0200 -0.0000
vn -0.2143 0.6810 -0.7002
f 67//23 68//23 69//23
v -0.3000 0.0800 -0.0000
v -0.3000 0.0800 -0.1100
v -0.3119 0.1894 0.0000
vn 0.9941 0.1084 0.0000
f 70//24 71//24 72//24
v -0.2899 0.0800 0.1344
v -0.2037 -0.0294 0.2037
v -0.6010 0.0200 0.6010
vn -0.5393 -0.7112 -0.4510
f 73//25 74//25 75//25
v -0.2121 0.0800 0.2121
v -0.2037 -0.0294 0.2037
v -0.2899 0.0800 0.1344
vn 0.7029 0.1084 -0.7029
f 76//26 77//26 78//26
v -0.2037 -0.0294 0.2037
v -0.1344 0.0800 0.2899
v -0.6010 0.0200 0.6010
vn 0.4510 -0.7112 0.5393
f 79//27 80//27 81//27
v -0.2121 0.0800 0.2121
v -0.1344 0.0800 0.2899
v -0.2037 -0.0294 0.2037
vn 0.7029 0.1084 -0.7029
f 82//28 83//28 84//28
v -0.1344 0.0800 0.2899
v -0.2206 0.1894 0.2206
v -0.6010 0.0200 0.6010
vn 0.3436 0.6810 0.6467
f 85//29 86//29 87//29
v -0.2121 0.0800 0.2121
v -0.2206 0.1894 0.2206
v -0.1344 0.0800 0.2899
vn 0.7029 0.1084 -0.7029
f 88//30 89//30 90//30
v -0.2206 0.1894 0.2206
v -0.2899 0.0800 0.1344
v -0.6010 0.0200 0.6010
vn -0.6467 0.6810 -0.3436
f 91//31 92//31 93//31
v -0.2121 0.0800 0.2121
v -0.2899 0.0800 0.1344
v -0.2206 0.1894 0.2206
vn 0.7029 0.1084 -0.7029
f 94//32 95//32 96//32
v -0.1100 0.0800 0.3000
v -0.0000 -0.0294 0.2881
v -0.0000 0.0200 0.8500
vn -0.7002 -0.7112 0.0625
f 97//33 98//33 99//33
v -0.0000 0.0800 0.3000
v -0.0000 -0.0294 0.2881
v -0.1100 0.0800 0.3000
vn 0.0000 0.1084 -0.9941
f 100//34 101//34 102//34
v -0.0000 -0.0294 0.2881
v 0.1100 0.0800 0.3000
v -0.0000 0.0200 0.8500
vn 0.7002 -0.7112 0.0625
f 103//35 104//35 105//35
v -0.0000 0.0800 0.3000
v 0.1100 0.0800 0.3000
v -0.0000 -0.0294 0.2881
vn 0.0000 0.1084 -0.9941
f 106//36 107//36 108//36
v 0.1100 0.0800 0.3000
v -0.0000 0.1894 0.3119
v -0.0000 0.0200 0.8500
vn 0.7002 0.6810 0.2143
f 109//37 110//37 111//37
v -0.0000 0.0800 0.3000
v -0.0000 0.1894 0.3119
v 0.1100 0.0800 0.3000
vn 0.0000 0.1084 -0.9941
f 112//38 113//38 114//38
v -0.0000 0.1894 0.3119
v -0.1100 0.0800 0.3000
v -0.0000 0.0200 0.8500
vn -0.7002 0.6810 0.2143
f 115//39 116//39 117//39
v -0.0000 0.0800 0.3000
v -0.1100 0.0800 0.3000
v -0.0000 0.1894 0.3119
vn 0.0000 0.1084 -0.9941
f 118//40 119//40 120//40
v 0.1344 0.0800 0.2899
v 0.2037 -0.0294 0.2037
v 0.6010 0.0200 0.6010
vn -0.4510 -0.7112 0.5393
f 121//41 122//41 123//41
v 0.2121 0.0800 0.2121
v 0.2037 -0.0294 0.2037
v 0.1344 0.0800 0.2899
vn -0.7029 0.1084 -0.7029
f 124//42 125//42 126//42
v 0.2037 -0.0294 0.2037
v 0.2899 0.0800 0.1344
v 0.6010 0.0200 0.6010
vn 0.5393 -0.7112 -0.4510
f 127//43 128//43 129//43
v 0.2121 0.0800 0.2121
v 0.2899 0.0800 0.1344
v 0.2037 -0.0294 0.2037
vn -0.7029 0.1084 -0.7029
f 130//44 131//44 132//44
v 0.2899 0.0800 0.1344
v 0.2206 0.1894 0.2206
v 0.6010 0.0200 0.6010
vn 0.6467 0.6810 -0.3436
f 133//45 134//45 135//45
v 0.2121 0.0800 0.2121
v 0.2206 0.1894 0.2206
v 0.2899 0.0800 0.1344
vn -0.7029 0.1084 -0.7029
f 136//46 137//46 138//46
v 0.2206 0.1894 0.2206
v 0.1344 0.0800 0.2899
v 0.6010 0.0200 0.6010
vn -0.3436 0.6810 0.6467
f 139//47 140//47 141//47
v 0.2121 0.0800 0.2121
v 0.1344 0.0800 0.2899
v 0.2206 0.1894 0.2206
vn -0.7029 0.1084 -0.7029
f 142//48 143//48 144//48
v 0.3000 0.0800 0.1100
v 0.2881 -0.0294 0.0000
v 0.8500 0.0200 0.0000
vn 0.0625 -0.7112 0.7002
f 145//49 146//49 147//49
v 0.3000 0.0800 0.0000
v 0.2881 -0.0294 0.0000
v 0.3000 0.0800 0.1100
vn -0.9941 0.1084 0.0000
f 148//50 149//50 150//50
v 0.2881 -0.0294 0.0000
v 0.3000 0.0800 -0.1100
v 0.8500 0.0200 0.0000
vn 0.0625 -0.7112 -0.7002
f 151//51 152//51 153//51
v 0.3000 0.0800 0.0000
v 0.3000 0.0800 -0.1100
v 0.2881 -0.0294 0.0000
vn -0.9941 0.1084 -0.0000
f 154//52 155//52 156//52
v 0.3000 0.0800 -0.1100
v 0.3119 0.1894 0.0000
v 0.8500 0.0200 0.0000
vn 0.2143 0.6810 -0.7002
f 157//53 158//53 159//53
v 0.3000 0.0800 0.0000
v 0.3119 0.1894 0.0000
v 0.3000 0.0800 -0.1100
vn -0.9941 0.1084 -0.0000
f 160//54 161//54 162//54
v 0.3119 0.1894 0.0000
v 0.3000 0.0800 0.1100
v 0.8500 0.0200 0.0000
vn 0.2143 0.6810 0.7002
f 163//55 164//55 165//55
v 0.3000 0.0800 0.0000
v 0.3000 0.0800 0.1100
v 0.3119 0.1894 0.0000
vn -0.9941 0.1084 0.0000
f 166//56 167//56 168//56
v 0.2899 0.0800 -0.1344
v 0.2037 -0.0294 -0.2037
v 0.6010 0.0200 -0.6010
vn 0.5393 -0.7112 0.4510
f 169//57 170//57 171//57
v 0.2121 0.0800 -0.2121
v 0.2037 -0.0294 -0.2037
v 0.2899 0.0800 -0.1344
vn -0.7029 0.1084 0.7029
f 172//58 173//58 174//58
v 0.2037 -0.0294 -0.2037
v 0.1344 0.0800 -0.2899
v 0.6010 0.0200 -0.6010
vn -0.4510 -0.7112 -0.5393
f 175//59 176//59 177//59
v 0.2121 0.0800 -0.2121
v 0.1344 0.0800 -0.2899
v 0.2037 -0.0294 -0.2037
vn -0.7029 0.1084 0.7029
f 178//60 179//60 180//60
v 0.1344 0.0800 -0.2899
v 0.2206 0.1894 -0.2206
v 0.6010 0.0200 -0.6010
vn -0.3436 0.6810 -0.6467
f 181//61 182//61 183//61
v 0.2121 0.0800 -0.2121
v 0.2206 0.1894 -0.2206
v 0.1344 0.0800 -0.2899
vn -0.7029 0.1084 0.7029
f 184//62 185//62 186//62
v 0.2206 0.1894 -0.2206
v 0.2899 0.0800 -0.1344
v 0.6010 0.0200 -0.6010
vn 0.6467 0.6810 0.3436
f 187//63 188//63 189//63
v 0.2121 0.0800 -0.2121
v 0.2899 0.0800 -0.1344
v 0.2206 0.1894 -0.2206
vn -0.7029 0.1084 0.7029
f 190//64 191//64 192//64
v 0.0000 0.4657 -0.0784
v -0.0800 0.4500 -0.0000
v 0.0000 0.9500 0.1000
vn -0.7028 0.2460 -0.6675
f 193//65 194//65 195//65
v 0.0000 0.4500 0.0000
v -0.0800 0.4500 -0.0000
v 0.0000 0.4657 -0.0784
vn 0.0000 -0.9806 -0.1961
f 196//66 197//66 198//66
v -0.0800 0.4500 -0.0000
v -0.0000 0.4343 0.0784
v 0.0000 0.9500 0.1000
vn -0.7028 -0.0297 0.7108
f 199//67 200//67 201//67
v 0.0000 0.4500 0.0000
v -0.0000 0.4343 0.0784
v -0.0800 0.4500 -0.0000
vn 0.0000 -0.9806 -0.1961
f 202//68 203//68 204//68
v -0.0000 0.4343 0.0784
v 0.0800 0.4500 0.0000
v 0.0000 0.9500 0.1000
vn 0.7028 -0.0297 0.7108
f 205//69 206//69 207//69
v 0.0000 0.4500 0.0000
v 0.0800 0.4500 0.0000
v -0.0000 0.4343 0.0784
vn 0.0000 -0.9806 -0.1961
f 208//70 209//70 210//70
v 0.0800 0.4500 0.0000
v 0.0000 0.4657 -0.0784
v 0.0000 0.9500 0.1000
vn 0.7028 0.2460 -0.6675
f 211//71 212//71 213//71
v 0.0000 0.4500 0.0000
v 0.0000 0.4657 -0.0784
v 0.0800 0.4500 0.0000
vn 0.0000 -0.9806 -0.1961
f 214//72 215//72 216//72
o glow
usemtl glow
s off
v 0.0000 0.5500 0.0000
v 0.4200 0.1000 0.0000
v 0.2100 0.1000 -0.3637
vn 0.6735 0.6286 -0.3889
f 217//73 218//73 219//73
v 0.0000 -0.3000 0.0000
v 0.2100 0.1000 -0.3637
v 0.4200 0.1000 0.0000
vn 0.6407 -0.6728 -0.3699
f 220//74 221//74 222//74
v 0.0000 0.5500 0.0000
v 0.2100 0.1000 -0.3637
v -0.2100 0.1000 -0.3637
vn 0.0000 0.6286 -0.7777
f 223//75 224//75 225//75
v 0.0000 -0.3000 0.0000
v -0.2100 0.1000 -0.3637
v 0.2100 0.1000 -0.3637
vn 0.0000 -0.6728 -0.7399
f 226//76 227//76 228//76
v 0.0000 0.5500 0.0000
v -0.2100 0.1000 -0.3637
v -0.4200 0.1000 -0.0000
vn -0.6735 0.6286 -0.3889
f 229//77 230//77 231//77
v 0.0000 -0.3000 0.0000
v -0.4200 0.1000 -0.0000
v -0.2100 0.1000 -0.3637
vn -0.6407 -0.6728 -0.3699
f 232//78 233//78 234//78
v 0.0000 0.5500 0.0000
v -0.4200 0.1000 -0.0000
v -0.2100 0.1000 0.3637
vn -0.6735 0.6286 0.3889
f 235//79 236//79 237//79
v 0.0000 -0.3000 0.0000
v -0.2100 0.1000 0.3637
v -0.4200 0.1000 -0.0000
vn -0.6407 -0.6728 0.3699
f 238//80 239//80 240//80
v 0.0000 0.5500 0.0000
v -0.2100 0.1000 0.3637
v 0.2100 0.1000 0.3637
vn -0.0000 0.6286 0.7777
f 241//81 242//81 243//81
v 0.0000 -0.3000 0.0000
v 0.2100 0.1000 0.3637
v -0.2100 0.1000 0.3637
vn -0.0000 -0.6728 0.7399
f 244//82 245//82 246//82
v 0.0000 0.5500 0.0000
v 0.2100 0.1000 0.3637
v 0.4200 0.1000 0.0000
vn 0.6735 0.6286 0.3889
f 247//83 248//83 249//83
v 0.0000 -0.3000 0.0000
v 0.4200 0.1000 0.0000
v 0.2100 0.1000 0.3637
vn 0.6407 -0.6728 0.3699
f 250//84 251//84 252//84
o metal
usemtl metal
s off
v 0.4406 0.3200 -0.0350
v 0.1900 0.2500 -0.3291
v 0.2506 0.3200 -0.3641
vn 0.6124 -0.7071 -0.3536
f 253//85 254//85 255//85
v 0.4406 0.3200 -0.0350
v 0.3800 0.2500 -0.0000
v 0.1900 0.2500 -0.3291
vn 0.6124 -0.7071 -0.3536
f 256//86 257//86 258//86
v 0.3800 0.3200 0.0000
v 0.3800 0.2500 -0.0000
v 0.4406 0.3200 -0.0350
vn 0.5000 -0.0000 0.8660
f 259//87 260//87 261//87
v 0.1900 0.3200 -0.3291
v 0.2506 0.3200 -0.3641
v 0.1900 0.2500 -0.3291
vn -0.5000 -0.0000 -0.8660
f 262//88 263//88 264//88
v 0.3800 0.2500 -0.0000
v 0.1294 0.3200 -0.2941
v 0.1900 0.2500 -0.3291
vn -0.6124 -0.7071 0.3536
f 265//89 266//89 267//89
v 0.3800 0.2500 -0.0000
v 0.3194 0.3200 0.0350
v 0.1294 0.3200 -0.2941
vn -0.6124 -0.7071 0.3536
f 268//90 269//90 270//90
v 0.3800 0.3200 0.0000
v 0.3194 0.3200 0.0350
v 0.3800 0.2500 -0.0000
vn 0.5000 -0.0000 0.8660
f 271//91 272//91 273//91
v 0.1900 0.3200 -0.3291
v 0.1900 0.2500 -0.3291
v 0.1294 0.3200 -0.2941
vn -0.5000 -0.0000 -0.8660
f 274//92 275//92 276//92
v 0.3194 0.3200 0.0350
v 0.1900 0.3900 -0.3291
v 0.1294 0.3200 -0.2941
vn -0.6124 0.7071 0.3536
f 277//93 278//93 279//93
v 0.3194 0.3200 0.0350
v 0.3800 0.3900 0.0000
v 0.1900 0.3900 -0.3291
vn -0.6124 0.7071 0.3536
f 280//94 281//94 282//94
v 0.3800 0.3200 0.0000
v 0.3800 0.3900 0.0000
v 0.3194 0.3200 0.0350
vn 0.5000 -0.0000 0.8660
f 283//95 284//95 285//95
v 0.1900 0.3200 -0.3291
v 0.1294 0.3200 -0.2941
v 0.1900 0.3900 -0.3291
vn -0.5000 0.0000 -0.8660
f 286//96 287//96 288//96
v 0.3800 0.3900 0.0000
v 0.2506 0.3200 -0.3641
v 0.1900 0.3900 -0.3291
vn 0.6124 0.7071 -0.3536
f 289//97 290//97 291//97
v 0.3800 0.3900 0.0000
v 0.4406 0.3200 -0.0350
v 0.2506 0.3200 -0.3641
vn 0.6124 0.7071 -0.3536
f 292//98 293//98 294//98
v 0.3800 0.3200 0.0000
v 0.4406 0.3200 -0.0350
v 0.3800 0.3900 0.0000
vn 0.5000 -0.0000 0.8660
f 295//99 296//99 297//99
v 0.1900 0.3200 -0.3291
v 0.1900 0.3900 -0.3291
v 0.2506 0.3200 -0.3641
vn -0.5000 0.0000 -0.8660
f 298//100 299//100 300//100
v 0.1900 0.3200 -0.3991
v -0.1900 0.2500 -0.3291
v -0.1900 0.3200 -0.3991
vn 0.0000 -0.7071 -0.7071
f 301//101 302//101 303//101
v 0.1900 0.3200 -0.3991
v 0.1900 0.2500 -0.3291
v -0.1900 0.2500 -0.3291
vn 0.0000 -0.7071 -0.7071
f 304//102 305//102 306//102
v 0.1900 0.3200 -0.3291
v 0.1900 0.2500 -0.3291
v 0.1900 0.3200 -0.3991
vn 1.0000 0.0000 0.0000
f 307//103 308//103 309//103
v -0.1900 0.3200 -0.3291
v -0.1900 0.3200 -0.3991
v -0.1900 0.2500 -0.3291
vn -1.0000 -0.0000 -0.0000
f 310//104 311//104 312//104
v 0.1900 0.2500 -0.3291
v -0.1900 0.3200 -0.2591
v -0.1900 0.2500 -0.3291
vn -0.0000 -0.7071 0.7071
f 313//105 314//105 315//105
v 0.1900 0.2500 -0.3291
v 0.1900 0.3200 -0.2591
v -0.1900 0.3200 -0.2591
vn -0.0000 -0.7071 0.7071
f 316//106 317//106 318//106
v 0.1900 0.3200 -0.3291
v 0.1900 0.3200 -0.2591
v 0.1900 0.2500 -0.3291
vn 1.0000 0.0000 -0.0000
f 319//107 320//107 321//107
v -0.1900 0.3200 -0.3291
v -0.1900 0.2500 -0.3291
v -0.1900 0.3200 -0.2591
vn -1.0000 0.0000 0.0000
f 322//108 323//108 324//108
v 0.1900 0.3200 -0.2591
v -0.1900 0.3900 -0.3291
v -0.1900 0.3200 -0.2591
vn -0.0000 0.7071 0.7071
f 325//109 326//109 327//109
v 0.1900 0.3200 -0.2591
v 0.1900 0.3900 -0.3291
v -0.1900 0.3900 -0.3291
vn -0.0000 0.7071 0.7071
f 328//110 329//110 330//110
v 0.1900 0.3200 -0.3291
v 0.1900 0.3900 -0.3291
v 0.1900 0.3200 -0.2591
vn 1.0000 0.0000 0.0000
f 331//111 332//111 333//111
v -0.1900 0.3200 -0.3291
v -0.1900 0.3200 -0.2591
v -0.1900 0.3900 -0.3291
vn -1.0000 0.0000 0.0000
f 334//112 335//112 336//112
v 0.1900 0.3900 -0.3291
v -0.1900 0.3200 -0.3991
v -0.1900 0.3900 -0.3291
vn 0.0000 0.7071 -0.7071
f 337//113 338//113 339//113
v 0.1900 0.3900 -0.3291
v 0.1900 0.3200 -0.3991
v -0.1900 0.3200 -0.3991
vn 0.0000 0.7071 -0.7071
f 340//114 341//114 342//114
v 0.1900 0.3200 -0.3291
v 0.1900 0.3200 -0.3991
v 0.1900 0.3900 -0.3291
vn 1.0000 -0.0000 0.0000
f 343//115 344//115 345//115
v -0.1900 0.3200 -0.3291
v -0.1900 0.3900 -0.3291
v -0.1900 0.3200 -0.3991
vn -1.0000 0.0000 0.0000
f 346//116 347//116 348//116
v -0.2506 0.3200 -0.3641
v -0.3800 0.2500 -0.0000
v -0.4406 0.3200 -0.0350
vn -0.6124 -0.7071 -0.3536
f 349//117 350//117 351//117
v -0.2506 0.3200 -0.3641
v -0.1900 0.2500 -0.3291
v -0.3800 0.2500 -0.0000
vn -0.6124 -0.7071 -0.3536
f 352//118 353//118 354//118
v -0.1900 0.3200 -0.3291
v -0.1900 0.2500 -0.3291
v -0.2506 0.3200 -0.3641
vn 0.5000 0.0000 -0.8660
f 355//119 356//119 357//119
v -0.3800 0.3200 -0.0000
v -0.4406 0.3200 -0.0350
v -0.3800 0.2500 -0.0000
vn -0.5000 -0.0000 0.8660
f 358//120 359//120 360//120
v -0.1900 0.2500 -0.3291
v -0.3194 0.3200 0.0350
v -0.3800 0.2500 -0.0000
vn 0.6124 -0.7071 0.3536
f 361//121 362//121 363//121
v -0.1900 0.2500 -0.3291
v -0.1294 0.3200 -0.2941
v -0.3194 0.3200 0.0350
vn 0.6124 -0.7071 0.3536
f 364//122 365//122 366//122
v -0.1900 0.3200 -0.3291
v -0.1294 0.3200 -0.2941
v -0.1900 0.2500 -0.3291
vn 0.5000 0.0000 -0.8660
f 367//123 368//123 369//123
v -0.3800 0.3200 -0.0000
v -0.3800 0.2500 -0.0000
v -0.3194 0.3200 0.0350
vn -0.5000 -0.0000 0.8660
f 370//124 371//124 372//124
v -0.1294 0.3200 -0.2941
v -0.3800 0.3900 -0.0000
v -0.3194 0.3200 0.0350
vn 0.6124 0.7071 0.3536
f 373//125 374//125 375//125
v -0.1294 0.3200 -0.2941
v -0.1900 0.3900 -0.3291
v -0.3800 0.3900 -0.0000
vn 0.6124 0.7071 0.3536
f 376//126 377//126 378//126
v -0.1900 0.3200 -0.3291
v -0.1900 0.3900 -0.3291
v -0.1294 0.3200 -0.2941
vn 0.5000 0.0000 -0.8660
f 379//127 380//127 381//127
v -0.3800 0.3200 -0.0000
v -0.3194 0.3200 0.0350
v -0.3800 0.3900 -0.0000
vn -0.5000 -0.0000 0.8660
f 382//128 383//128 384//128
v -0.1900 0.3900 -0.3291
v -0.4406 0.3200 -0.0350
v -0.3800 0.3900 -0.0000
vn -0.6124 0.7071 -0.3536
f 385//129 386//129 387//129
v -0.1900 0.3900 -0.3291
v -0.2506 0.3200 -0.3641
v -0.4406 0.3200 -0.0350
vn -0.6124 0.7071 -0.3536
f 388//130 389//130 390//130
v -0.1900 0.3200 -0.3291
v -0.2506 0.3200 -0.3641
v -0.1900 0.3900 -0.3291
vn 0.5000 0.0000 -0.8660
f 391//131 392//131 393//131
v -0.3800 0.3200 -0.0000
v -0.3800 0.3900 -0.0000
v -0.4406 0.3200 -0.0350
vn -0.5000 -0.0000 0.8660
f 394//132 395//132 396//132
v -0.4406 0.3200 0.0350
v -0.1900 0.2500 0.3291
v -0.2506 0.3200 0.3641
vn -0.6124 -0.7071 0.3536
f 397//133 398//133 399//133
v -0.4406 0.3200 0.0350
v -0.3800 0.2500 -0.0000
v -0.1900 0.2500 0.3291
vn -0.6124 -0.7071 0.3536
f 400//134 401//134 402//134
v -0.3800 0.3200 -0.0000
v -0.3800 0.2500 -0.0000
v -0.4406 0.3200 0.0350
vn -0.5000 -0.0000 -0.8660
f 403//135 404//135 405//135
v -0.1900 0.3200 0.3291
v -0.2506 0.3200 0.3641
v -0.1900 0.2500 0.3291
vn 0.5000 0.0000 0.8660
f 406//136 407//136 408//136
v -0.3800 0.2500 -0.0000
v -0.1294 0.3200 0.2941
v -0.1900 0.2500 0.3291
vn 0.6124 -0.7071 -0.3536
f 409//137 410//137 411//137
v -0.3800 0.2500 -0.0000
v -0.3194 0.3200 -0.0350
v -0.1294 0.3200 0.2941
vn 0.6124 -0.7071 -0.3536
f 412//138 413//138 414//138
v -0.3800 0.3200 -0.0000
v -0.3194 0.3200 -0.0350
v -0.3800 0.2500 -0.0000
vn -0.5000 -0.0000 -0.8660
f 415//139 416//139 417//139
v -0.1900 0.3200 0.3291
v -0.1900 0.2500 0.3291
v -0.1294 0.3200 0.2941
vn 0.5000 0.0000 0.8660
f 418//140 419//140 420//140
v -0.3194 0.3200 -0.0350
v -0.1900 0.3900 0.3291
v -0.1294 0.3200 0.2941
vn 0.6124 0.7071 -0.3536
f 421//141 422//141 423//141
v -0.3194 0.3200 -0.0350
v -0.3800 0.3900 -0.0000
v -0.1900 0.3900 0.3291
vn 0.6124 0.7071 -0.3536
f 424//142 425//142 426//142
v -0.3800 0.3200 -0.0000
v -0.3800 0.3900 -0.0000
v -0.3194 0.3200 -0.0350
vn -0.5000 -0.0000 -0.8660
f 427//143 428//143 429//143
v -0.1900 0.3200 0.3291
v -0.1294 0.3200 0.2941
v -0.1900 0.3900 0.3291
vn 0.5000 -0.0000 0.8660
f 430//144 431//144 432//144
v -0.3800 0.3900 -0.0000
v -0.2506 0.3200 0.3641
v -0.1900 0.3900 0.3291
vn -0.6124 0.7071 0.3536
f 433//145 434//145 435//145
v -0.3800 0.3900 -0.0000
v -0.4406 0.3200 0.0350
v -0.2506 0.3200 0.3641
vn -0.6124 0.7071 0.3536
f 436//146 437//146 438//146
v -0.3800 0.3200 -0.0000
v -0.4406 0.3200 0.0350
v -0.3800 0.3900 -0.0000
vn -0.5000 -0.0000 -0.8660
f 439//147 440//147 441//147
v -0.1900 0.3200 0.3291
v -0.1900 0.3900 0.3291
v -0.2506 0.3200 0.3641
vn 0.5000 -0.0000 0.8660
f 442//148 443//148 444//148
v -0.1900 0.3200 0.3991
v 0.1900 0.2500 0.3291
v 0.1900 0.3200 0.3991
vn -0.0000 -0.7071 0.7071
f 445//149 446//149 447//149
v -0.1900 0.3200 0.3991
v -0.1900 0.2500 0.3291
v 0.1900 0.2500 0.3291
vn -0.0000 -0.7071 0.7071
f 448//150 449//150 450//150
v -0.1900 0.3200 0.3291
v -0.1900 0.2500 0.3291
v -0.1900 0.3200 0.3991
vn -1.0000 0.0000 0.0000
f 451//151 452//151 453//151
v 0.1900 0.3200 0.3291
v 0.1900 0.3200 0.3991
v 0.1900 0.2500 0.3291
vn 1.0000 0.0000 -0.0000
f 454//152 455//152 456//152
v -0.1900 0.2500 0.3291
v 0.1900 0.3200 0.2591
v 0.1900 0.2500 0.3291
vn 0.0000 -0.7071 -0.7071
f 457//153 458//153 459//153
v -0.1900 0.2500 0.3291
v -0.1900 0.3200 0.2591
v 0.1900 0.3200 0.2591
vn 0.0000 -0.7071 -0.7071
f 460//154 461//154 462//154
v -0.1900 0.3200 0.3291
v -0.1900 0.3200 0.2591
v -0.1900 0.2500 0.3291
vn -1.0000 -0.0000 -0.0000
f 463//155 464//155 465//155
v 0.1900 0.3200 0.3291
v 0.1900 0.2500 0.3291
v 0.1900 0.3200 0.2591
vn 1.0000 0.0000 0.0000
f 466//156 467//156 468//156
v -0.1900 0.3200 0.2591
v 0.1900 0.3900 0.3291
v 0.1900 0.3200 0.2591
vn 0.0000 0.7071 -0.7071
f 469//157 470//157 471//157
v -0.1900 0.3200 0.2591
v -0.1900 0.3900 0.3291
v 0.1900 0.3900 0.3291
vn 0.0000 0.7071 -0.7071
f 472//158 473//158 474//158
v -0.1900 0.3200 0.3291
v -0.1900 0.3900 0.3291
v -0.1900 0.3200 0.2591
vn -1.0000 0.0000 0.0000
f 475//159 476//159 477//159
v 0.1900 0.3200 0.3291
v 0.1900 0.3200 0.2591
v 0.1900 0.3900 0.3291
vn 1.0000 -0.0000 0.0000
f 478//160 479//160 480//160
v -0.1900 0.3900 0.3291
v 0.1900 0.3200 0.3991
v 0.1900 0.3900 0.3291
vn -0.0000 0.7071 0.7071
f 481//161 482//161 483//161
v -0.1900 0.3900 0.3291
v -0.1900 0.3200 0.3991
v 0.1900 0.3200 0.3991
vn -0.0000 0.7071 0.7071
f 484//162 485//162 486//162
v -0.1900 0.3200 0.3291
v -0.1900 0.3200 0.3991
v -0.1900 0.3900 0.3291
vn -1.0000 0.0000 0.0000
f 487//163 488//163 489//163
v 0.1900 0.3200 0.3291
v 0.1900 0.3900 0.3291
v 0.1900 0.3200 0.3991
vn 1.0000 0.0000 0.0000
f 490//164 491//164 492//164
v 0.2506 0.3200 0.3641
v 0.3800 0.2500 0.0000
v 0.4406 0.3200 0.0350
vn 0.6124 -0.7071 0.3536
f 493//165 494//165 495//165
v 0.2506 0.3200 0.3641
v 0.1900 0.2500 0.3291
v 0.3800 0.2500 0.0000
vn 0.6124 -0.7071 0.3536
f 496//166 497//166 498//166
v 0.1900 0.3200 0.3291
v 0.1900 0.2500 0.3291
v 0.2506 0.3200 0.3641
vn -0.5000 0.0000 0.8660
f 499//167 500//167 501//167
v 0.3800 0.3200 0.0000
v 0.4406 0.3200 0.0350
v 0.3800 0.2500 0.0000
vn 0.5000 -0.0000 -0.8660
f 502//168 503//168 504//168
v 0.1900 0.2500 0.3291
v 0.3194 0.3200 -0.0350
v 0.3800 0.2500 0.0000
vn -0.6124 -0.7071 -0.3536
f 505//169 506//169 507//169
v 0.1900 0.2500 0.3291
v 0.1294 0.3200 0.2941
v 0.3194 0.3200 -0.0350
vn -0.6124 -0.7071 -0.3536
f 508//170 509//170 510//170
v 0.1900 0.3200 0.3291
v 0.1294 0.3200 0.2941
v 0.1900 0.2500 0.3291
vn -0.5000 0.0000 0.8660
f 511//171 512//171 513//171
v 0.3800 0.3200 0.0000
v 0.3800 0.2500 0.0000
v 0.3194 0.3200 -0.0350
vn 0.5000 -0.0000 -0.8660
f 514//172 515//172 516//172
v 0.1294 0.3200 0.2941
v 0.3800 0.3900 -0.0000
v 0.3194 0.3200 -0.0350
vn -0.6124 0.7071 -0.3536
f 517//173 518//173 519//173
v 0.1294 0.3200 0.2941
v 0.1900 0.3900 0.3291
v 0.3800 0.3900 -0.0000
vn -0.6124 0.7071 -0.3536
f 520//174 521//174 522//174
v 0.1900 0.3200 0.3291
v 0.1900 0.3900 0.3291
v 0.1294 0.3200 0.2941
vn -0.5000 0.0000 0.8660
f 523//175 524//175 525//175
v 0.3800 0.3200 0.0000
v 0.3194 0.3200 -0.0350
v 0.3800 0.3900 -0.0000
vn 0.5000 -0.0000 -0.8660
f 526//176 527//176 528//176
v 0.1900 0.3900 0.3291
v 0.4406 0.3200 0.0350
v 0.3800 0.3900 -0.0000
vn 0.6124 0.7071 0.3536
f 529//177 530//177 531//177
v 0.1900 0.3900 0.3291
v 0.2506 0.3200 0.3641
v 0.4406 0.3200 0.0350
vn 0.6124 0.7071 0.3536
f 532//178 533//178 534//178
v 0.1900 0.3200 0.3291
v 0.2506 0.3200 0.3641
v 0.1900 0.3900 0.3291
vn -0.5000 0.0000 0.8660
f 535//179 536//179 537//179
v 0.3800 0.3200 0.0000
v 0.3800 0.3900 -0.0000
v 0.4406 0.3200 0.0350
vn 0.5000 -0.0000 -0.8660
f 538//180 539//180 540//180
v 0.4606 -0.1200 -0.0350
v 0.2000 -0.1900 -0.3464
v 0.2606 -0.1200 -0.3814
vn 0.6124 -0.7071 -0.3536
f 541//181 542//181 543//181
v 0.4606 -0.1200 -0.0350
v 0.4000 -0.1900 -0.0000
v 0.2000 -0.1900 -0.3464
vn 0.6124 -0.7071 -0.3536
f 544//182 545//182 546//182
v 0.4000 -0.1200 0.0000
v 0.4000 -0.1900 -0.0000
v 0.4606 -0.1200 -0.0350
vn 0.5000 -0.0000 0.8660
f 547//183 548//183 549//183
v 0.2000 -0.1200 -0.3464
v 0.2606 -0.1200 -0.3814
v 0.2000 -0.1900 -0.3464
vn -0.5000 -0.0000 -0.8660
f 550//184 551//184 552//184
v 0.4000 -0.1900 -0.0000
v 0.1394 -0.1200 -0.3114
v 0.2000 -0.1900 -0.3464
vn -0.6124 -0.7071 0.3536
f 553//185 554//185 555//185
v 0.4000 -0.1900 -0.0000
v 0.3394 -0.1200 0.0350
v 0.1394 -0.1200 -0.3114
vn -0.6124 -0.7071 0.3536
f 556//186 557//186 558//186
v 0.4000 -0.1200 0.0000
v 0.3394 -0.1200 0.0350
v 0.4000 -0.1900 -0.0000
vn 0.5000 -0.0000 0.8660
f 559//187 560//187 561//187
v 0.2000 -0.1200 -0.3464
v 0.2000 -0.1900 -0.3464
v 0.1394 -0.1200 -0.3114
vn -0.5000 -0.0000 -0.8660
f 562//188 563//188 564//188
v 0.3394 -0.1200 0.0350
v 0.2000 -0.0500 -0.3464
v 0.1394 -0.1200 -0.3114
vn -0.6124 0.7071 0.3536
f 565//189 566//189 567//189
v 0.3394 -0.1200 0.0350
v 0.4000 -0.0500 0.0000
v 0.2000 -0.0500 -0.3464
vn -0.6124 0.7071 0.3536
f 568//190 569//190 570//190
v 0.4000 -0.1200 0.0000
v 0.4000 -0.0500 0.0000
v 0.3394 -0.1200 0.0350
vn 0.5000 -0.0000 0.8660
f 571//191 572//191 573//191
v 0.2000 -0.1200 -0.3464
v 0.1394 -0.1200 -0.3114
v 0.2000 -0.0500 -0.3464
vn -0.5000 0.0000 -0.8660
f 574//192 575//192 576//192
v 0.4000 -0.0500 0.0000
v 0.2606 -0.1200 -0.3814
v 0.2000 -0.0500 -0.3464
vn 0.6124 0.7071 -0.3536
f 577//193 578//193 579//193
v 0.4000 -0.0500 0.0000
v 0.4606 -0.1200 -0.0350
v 0.2606 -0.1200 -0.3814
vn 0.6124 0.7071 -0.3536
f 580//194 581//194 582//194
v 0.4000 -0.1200 0.0000
v 0.4606 -0.1200 -0.0350
v 0.4000 -0.0500 0.0000
vn 0.5000 -0.0000 0.8660
f 583//195 584//195 585//195
v 0.2000 -0.1200 -0.3464
v 0.2000 -0.0500 -0.3464
v 0.2606 -0.1200 -0.3814
vn -0.5000 0.0000 -0.8660
f 586//196 587//196 588//196
v 0.2000 -0.1200 -0.4164
v -0.2000 -0.1900 -0.3464
v -0.2000 -0.1200 -0.4164
vn 0.0000 -0.7071 -0.7071
f 589//197 590//197 591//197
v 0.2000 -0.1200 -0.4164
v 0.2000 -0.1900 -0.3464
v -0.2000 -0.1900 -0.3464
vn 0.0000 -0.7071 -0.7071
f 592//198 593//198 594//198
v 0.2000 -0.1200 -0.3464
v 0.2000 -0.1900 -0.3464
v 0.2000 -0.1200 -0.4164
vn 1.0000 0.0000 0.0000
f 595//199 596//199 597//199
v -0.2000 -0.1200 -0.3464
v -0.2000 -0.1200 -0.4164
v -0.2000 -0.1900 -0.3464
vn -1.0000 -0.0000 -0.0000
f 598//200 599//200 600//200
v 0.2000 -0.1900 -0.3464
v -0.2000 -0.1200 -0.2764
v -0.2000 -0.1900 -0.3464
vn -0.0000 -0.7071 0.7071
f 601//201 602//201 603//201
v 0.2000 -0.1900 -0.3464
v 0.2000 -0.1200 -0.2764
v -0.2000 -0.1200 -0.2764
vn -0.0000 -0.7071 0.7071
f 604//202 605//202 606//202
v 0.2000 -0.1200 -0.3464
v 0.2000 -0.1200 -0.2764
v 0.2000 -0.1900 -0.3464
vn 1.0000 0.0000 0.0000
f 607//203 608//203 609//203
v -0.2000 -0.1200 -0.3464
v -0.2000 -0.1900 -0.3464
v -0.2000 -0.1200 -0.2764
vn -1.0000 0.0000 0.0000
f 610//204 611//204 612//204
v 0.2000 -0.1200 -0.2764
v -0.2000 -0.0500 -0.3464
v -0.2000 -0.1200 -0.2764
vn -0.0000 0.7071 0.7071
f 613//205 614//205 615//205
v 0.2000 -0.1200 -0.2764
v 0.2000 -0.0500 -0.3464
v -0.2000 -0.0500 -0.3464
vn -0.0000 0.7071 0.7071
f 616//206 617//206 618//206
v 0.2000 -0.1200 -0.3464
v 0.2000 -0.0500 -0.3464
v 0.2000 -0.1200 -0.2764
vn 1.0000 0.0000 -0.0000
f 619//207 620//207 621//207
v -0.2000 -0.1200 -0.3464
v -0.2000 -0.1200 -0.2764
v -0.2000 -0.0500 -0.3464
vn -1.0000 0.0000 0.0000
f 622//208 623//208 624//208
v 0.2000 -0.0500 -0.3464
v -0.2000 -0.1200 -0.4164
v -0.2000 -0.0500 -0.3464
vn 0.0000 0.7071 -0.7071
f 625//209 626//209 627//209
v 0.2000 -0.0500 -0.3464
v 0.2000 -0.1200 -0.4164
v -0.2000 -0.1200 -0.4164
vn 0.0000 0.7071 -0.7071
f 628//210 629//210 630//210
v 0.2000 -0.1200 -0.3464
v 0.2000 -0.1200 -0.4164
v 0.2000 -0.0500 -0.3464
vn 1.0000 -0.0000 0.0000
f 631//211 632//211 633//211
v -0.2000 -0.1200 -0.3464
v -0.2000 -0.0500 -0.3464
v -0.2000 -0.1200 -0.4164
vn -1.0000 0.0000 0.0000
f 634//212 635//212 636//212
v -0.2606 -0.1200 -0.3814
v -0.4000 -0.1900 -0.0000
v -0.4606 -0.1200 -0.0350
vn -0.6124 -0.7071 -0.3536
f 637//213 638//213 639//213
v -0.2606 -0.1200 -0.3814
v -0.2000 -0.1900 -0.3464
v -0.4000 -0.1900 -0.0000
vn -0.6124 -0.7071 -0.3536
f 640//214 641//214 642//214
v -0.2000 -0.1200 -0.3464
v -0.2000 -0.1900 -0.3464
v -0.2606 -0.1200 -0.3814
vn 0.5000 0.0000 -0.8660
f 643//215 644//215 645//215
v -0.4000 -0.1200 -0.0000
v -0.4606 -0.1200 -0.0350
v -0.4000 -0.1900 -0.0000
vn -0.5000 -0.0000 0.8660
f 646//216 647//216 648//216
v -0.2000 -0.1900 -0.3464
v -0.3394 -0.1200 0.0350
v -0.4000 -0.1900 -0.0000
vn 0.6124 -0.7071 0.3536
f 649//217 650//217 651//217
v -0.2000 -0.1900 -0.3464
v -0.1394 -0.1200 -0.3114
v -0.3394 -0.1200 0.0350
vn 0.6124 -0.7071 0.3536
f 652//218 653//218 654//218
v -0.2000 -0.1200 -0.3464
v -0.1394 -0.1200 -0.3114
v -0.2000 -0.1900 -0.3464
vn 0.5000 0.0000 -0.8660
f 655//219 656//219 657//219
v -0.4000 -0.1200 -0.0000
v -0.4000 -0.1900 -0.0000
v -0.3394 -0.1200 0.0350
vn -0.5000 -0.0000 0.8660
f 658//220 659//220 660//220
v -0.1394 -0.1200 -0.3114
v -0.4000 -0.0500 -0.0000
v -0.3394 -0.1200 0.0350
vn 0.6124 0.7071 0.3536
f 661//221 662//221 663//221
v -0.1394 -0.1200 -0.3114
v -0.2000 -0.0500 -0.3464
v -0.4000 -0.0500 -0.0000
vn 0.6124 0.7071 0.3536
f 664//222 665//222 666//222
v -0.2000 -0.1200 -0.3464
v -0.2000 -0.0500 -0.3464
v -0.1394 -0.1200 -0.3114
vn 0.5000 0.0000 -0.8660
f 667//223 668//223 669//223
v -0.4000 -0.1200 -0.0000
v -0.3394 -0.1200 0.0350
v -0.4000 -0.0500 -0.0000
vn -0.5000 -0.0000 0.8660
f 670//224 671//224 672//224
v -0.2000 -0.0500 -0.3464
v -0.4606 -0.1200 -0.0350
v -0.4000 -0.0500 -0.0000
vn -0.6124 0.7071 -0.3536
f 673//225 674//225 675//225
v -0.2000 -0.0500 -0.3464
v -0.2606 -0.1200 -0.3814
v -0.4606 -0.1200 -0.0350
vn -0.6124 0.7071 -0.3536
f 676//226 677//226 678//226
v -0.2000 -0.1200 -0.3464
v -0.2606 -0.1200 -0.3814
v -0.2000 -0.0500 -0.3464
vn 0.5000 0.0000 -0.8660
f 679//227 680//227 681//227
v -0.4000 -0.1200 -0.0000
v -0.4000 -0.0500 -0.0000
v -0.4606 -0.1200 -0.0350
vn -0.5000 -0.0000 0.8660
f 682//228 683//228 684//228
v -0.4606 -0.1200 0.0350
v -0.2000 -0.1900 0.3464
v -0.2606 -0.1200 0.3814
vn -0.6124 -0.7071 0.3536
f 685//229 686//229 687//229
v -0.4606 -0.1200 0.0350
v -0.4000 -0.1900 -0.0000
v -0.2000 -0.1900 0.3464
vn -0.6124 -0.7071 0.3536
f 688//230 689//230 690//230
v -0.4000 -0.1200 -0.0000
v -0.4000 -0.1900 -0.0000
v -0.4606 -0.1200 0.0350
vn -0.5000 -0.0000 -0.8660
f 691//231 692//231 693//231
v -0.2000 -0.1200 0.3464
v -0.2606 -0.1200 0.3814
v -0.2000 -0.1900 0.3464
vn 0.5000 0.0000 0.8660
f 694//232 695//232 696//232
v -0.4000 -0.1900 -0.0000
v -0.1394 -0.1200 0.3114
v -0.2000 -0.1900 0.3464
vn 0.6124 -0.7071 -0.3536
f 697//233 698//233 699//233
v -0.4000 -0.1900 -0.0000
v -0.3394 -0.1200 -0.0350
v -0.1394 -0.1200 0.3114
vn 0.6124 -0.7071 -0.3536
f 700//234 701//234 702//234
v -0.4000 -0.1200 -0.0000
v -0.3394 -0.1200 -0.0350
v -0.4000 -0.1900 -0.0000
vn -0.5000 -0.0000 -0.8660
f 703//235 704//235 705//235
v -0.2000 -0.1200 0.3464
v -0.2000 -0.1900 0.3464
v -0.1394 -0.1200 0.3114
vn 0.5000 0.0000 0.8660
f 706//236 707//236 708//236
v -0.3394 -0.1200 -0.0350
v -0.2000 -0.0500 0.3464
v -0.1394 -0.1200 0.3114
vn 0.6124 0.7071 -0.3536
f 709//237 710//237 711//237
v -0.3394 -0.1200 -0.0350
v -0.4000 -0.0500 -0.0000
v -0.2000 -0.0500 0.3464
vn 0.6124 0.7071 -0.3536
f 712//238 713//238 714//238
v -0.4000 -0.1200 -0.0000
v -0.4000 -0.0500 -0.0000
v -0.3394 -0.1200 -0.0350
vn -0.5000 -0.0000 -0.8660
f 715//239 716//239 717//239
v -0.2000 -0.1200 0.3464
v -0.1394 -0.1200 0.3114
v -0.2000 -0.0500 0.3464
vn 0.5000 -0.0000 0.8660
f 718//240 719//240 720//240
v -0.4000 -0.0500 -0.0000
v -0.2606 -0.1200 0.3814
v -0.2000 -0.0500 0.3464
vn -0.6124 0.7071 0.3536
f 721//241 722//241 723//241
v -0.4000 -0.0500 -0.0000
v -0.4606 -0.1200 0.0350
v -0.2606 -0.1200 0.3814
vn -0.6124 0.7071 0.3536
f 724//242 725//242 726//242
v -0.4000 -0.1200 -0.0000
v -0.4606 -0.1200 0.0350
v -0.4000 -0.0500 -0.0000
vn -0.5000 -0.0000 -0.8660
f 727//243 728//243 729//243
v -0.2000 -0.1200 0.3464
v -0.2000 -0.0500 0.3464
v -0.2606 -0.1200 0.3814
vn 0.5000 -0.0000 0.8660
f 730//244 731//244 732//244
v -0.2000 -0.1200 0.4164
v 0.2000 -0.1900 0.3464
v 0.2000 -0.1200 0.4164
vn -0.0000 -0.7071 0.7071
f 733//245 734//245 735//245
v -0.2000 -0.1200 0.4164
v -0.2000 -0.1900 0.3464
v 0.2000 -0.1900 0.3464
vn -0.0000 -0.7071 0.7071
f 736//246 737//246 738//246
v -0.2000 -0.1200 0.3464
v -0.2000 -0.1900 0.3464
v -0.2000 -0.1200 0.4164
vn -1.0000 -0.0000 -0.0000
f 739//247 740//247 741//247
v 0.2000 -0.1200 0.3464
v 0.2000 -0.1200 0.4164
v 0.2000 -0.1900 0.3464
vn 1.0000 0.0000 0.0000
f 742//248 743//248 744//248
v -0.2000 -0.1900 0.3464
v 0.2000 -0.1200 0.2764
v 0.2000 -0.1900 0.3464
vn 0.0000 -0.7071 -0.7071
f 745//249 746//249 747//249
v -0.2000 -0.1900 0.3464
v -0.2000 -0.1200 0.2764
v 0.2000 -0.1200 0.2764
vn 0.0000 -0.7071 -0.7071
f 748//250 749//250 750//250
v -0.2000 -0.1200 0.3464
v -0.2000 -0.1200 0.2764
v -0.2000 -0.1900 0.3464
vn -1.0000 -0.0000 -0.0000
f 751//251 752//251 753//251
v 0.2000 -0.1200 0.3464
v 0.2000 -0.1900 0.3464
v 0.2000 -0.1200 0.2764
vn 1.0000 0.0000 0.0000
f 754//252 755//252 756//252
v -0.2000 -0.1200 0.2764
v 0.2000 -0.0500 0.3464
v 0.2000 -0.1200 0.2764
vn 0.0000 0.7071 -0.7071
f 757//253 758//253 759//253
v -0.2000 -0.1200 0.2764
v -0.2000 -0.0500 0.3464
v 0.2000 -0.0500 0.3464
vn 0.0000 0.7071 -0.7071
f 760//254 761//254 762//254
v -0.2000 -0.1200 0.3464
v -0.2000 -0.0500 0.3464
v -0.2000 -0.1200 0.2764
vn -1.0000 0.0000 -0.0000
f 763//255 764//255 765//255
v 0.2000 -0.1200 0.3464
v 0.2000 -0.1200 0.2764
v 0.2000 -0.0500 0.3464
vn 1.0000 -0.0000 0.0000
f 766//256 767//256 768//256
v -0.2000 -0.0500 0.3464
v 0.2000 -0.1200 0.4164
v 0.2000 -0.0500 0.3464
vn -0.0000 0.7071 0.7071
f 769//257 770//257 771//257
v -0.2000 -0.0500 0.3464
v -0.2000 -0.1200 0.4164
v 0.2000 -0.1200 0.4164
vn -0.0000 0.7071 0.7071
f 772//258 773//258 774//258
v -0.2000 -0.1200 0.3464
v -0.2000 -0.1200 0.4164
v -0.2000 -0.0500 0.3464
vn -1.0000 0.0000 -0.0000
f 775//259 776//259 777//259
v 0.2000 -0.1200 0.3464
v 0.2000 -0.0500 0.3464
v 0.2000 -0.1200 0.4164
vn 1.0000 -0.0000 0.0000
f 778//260 779//260 780//260
v 0.2606 -0.1200 0.3814
v 0.4000 -0.1900 0.0000
v 0.4606 -0.1200 0.0350
vn 0.6124 -0.7071 0.3536
f 781//261 782//261 783//261
v 0.2606 -0.1200 0.3814
v 0.2000 -0.1900 0.3464
v 0.4000 -0.1900 0.0000
vn 0.6124 -0.7071 0.3536
f 784//262 785//262 786//262
v 0.2000 -0.1200 0.3464
v 0.2000 -0.1900 0.3464
v 0.2606 -0.1200 0.3814
vn -0.5000 0.0000 0.8660
f 787//263 788//263 789//263
v 0.4000 -0.1200 0.0000
v 0.4606 -0.1200 0.0350
v 0.4000 -0.1900 0.0000
vn 0.5000 -0.0000 -0.8660
f 790//264 791//264 792//264
v 0.2000 -0.1900 0.3464
v 0.3394 -0.1200 -0.0350
v 0.4000 -0.1900 0.0000
vn -0.6124 -0.7071 -0.3536
f 793//265 794//265 795//265
v 0.2000 -0.1900 0.3464
v 0.1394 -0.1200 0.3114
v 0.3394 -0.1200 -0.0350
vn -0.6124 -0.7071 -0.3536
f 796//266 797//266 798//266
v 0.2000 -0.1200 0.3464
v 0.1394 -0.1200 0.3114
v 0.2000 -0.1900 0.3464
vn -0.5000 0.0000 0.8660
f 799//267 800//267 801//267
v 0.4000 -0.1200 0.0000
v 0.4000 -0.1900 0.0000
v 0.3394 -0.1200 -0.0350
vn 0.5000 -0.0000 -0.8660
f 802//268 803//268 804//268
v 0.1394 -0.1200 0.3114
v 0.4000 -0.0500 -0.0000
v 0.3394 -0.1200 -0.0350
vn -0.6124 0.7071 -0.3536
f 805//269 806//269 807//269
v 0.1394 -0.1200 0.3114
v 0.2000 -0.0500 0.3464
v 0.4000 -0.0500 -0.0000
vn -0.6124 0.7071 -0.3536
f 808//270 809//270 810//270
v 0.2000 -0.1200 0.3464
v 0.2000 -0.0500 0.3464
v 0.1394 -0.1200 0.3114
vn -0.5000 0.0000 0.8660
f 811//271 812//271 813//271
v 0.4000 -0.1200 0.0000
v 0.3394 -0.1200 -0.0350
v 0.4000 -0.0500 -0.0000
vn 0.5000 -0.0000 -0.8660
f 814//272 815//272 816//272
v 0.2000 -0.0500 0.3464
v 0.4606 -0.1200 0.0350
v 0.4000 -0.0500 -0.0000
vn 0.6124 0.7071 0.3536
f 817//273 818//273 819//273
v 0.2000 -0.0500 0.3464
v 0.2606 -0.1200 0.3814
v 0.4606 -0.1200 0.0350
vn 0.6124 0.7071 0.3536
f 820//274 821//274 822//274
v 0.2000 -0.1200 0.3464
v 0.2606 -0.1200 0.3814
v 0.2000 -0.0500 0.3464
vn -0.5000 0.0000 0.8660
f 823//275 824//275 825//275
v 0.4000 -0.1200 0.0000
v 0.4000 -0.0500 -0.0000
v 0.4606 -0.1200 0.0350
vn 0.5000 -0.0000 -0.8660
f 826//276 827//276 828//276
