# torpedo_ketch: generated by tools/make_models.py (placeholder)
o brass
usemtl brass
s off
v -0.1506 0.5000 0.5850
v -0.3731 0.3727 -1.4095
v -0.3205 0.5000 -1.4135
vn 0.9206 -0.3827 -0.0783
f 1//1 2//1 3//1
v -0.1506 0.5000 0.5850
v -0.2090 0.3586 0.5894
v -0.3731 0.3727 -1.4095
vn 0.9206 -0.3827 -0.0783
f 4//2 5//2 6//2
v -0.3500 0.5000 0.6000
v -0.2090 0.3586 0.5894
v -0.1506 0.5000 0.5850
vn 0.0748 0.0000 0.9972
f 7//3 8//3 9//3
v -0.5000 0.5000 -1.4000
v -0.3205 0.5000 -1.4135
v -0.3731 0.3727 -1.4095
vn -0.0748 0.0000 -0.9972
f 10//4 11//4 12//4
v -0.2090 0.3586 0.5894
v -0.5000 0.3200 -1.4000
v -0.3731 0.3727 -1.4095
vn 0.3809 -0.9238 -0.0378
f 13//5 14//5 15//5
v -0.2090 0.3586 0.5894
v -0.3500 0.3000 0.6000
v -0.5000 0.3200 -1.4000
vn 0.3809 -0.9238 -0.0378
f 16//6 17//6 18//6
v -0.3500 0.5000 0.6000
v -0.3500 0.3000 0.6000
v -0.2090 0.3586 0.5894
vn 0.0748 0.0000 0.9972
f 19//7 20//7 21//7
v -0.5000 0.5000 -1.4000
v -0.3731 0.3727 -1.4095
v -0.5000 0.3200 -1.4000
vn -0.0748 -0.0000 -0.9972
f 22//8 23//8 24//8
v -0.3500 0.3000 0.6000
v -0.6269 0.3727 -1.3905
v -0.5000 0.3200 -1.4000
vn -0.3823 -0.9238 0.0194
f 25//9 26//9 27//9
v -0.3500 0.3000 0.6000
v -0.4910 0.3586 0.6106
v -0.6269 0.3727 -1.3905
vn -0.3823 -0.9238 0.0194
f 28//10 29//10 30//10
v -0.3500 0.5000 0.6000
v -0.4910 0.3586 0.6106
v -0.3500 0.3000 0.6000
vn 0.0748 0.0000 0.9972
f 31//11 32//11 33//11
v -0.5000 0.5000 -1.4000
v -0.5000 0.3200 -1.4000
v -0.6269 0.3727 -1.3905
vn -0.0748 -0.0000 -0.9972
f 34//12 35//12 36//12
v -0.4910 0.3586 0.6106
v -0.6795 0.5000 -1.3865
v -0.6269 0.3727 -1.3905
vn -0.9219 -0.3827 0.0599
f 37//13 38//13 39//13
v -0.4910 0.3586 0.6106
v -0.5494 0.5000 0.6150
v -0.6795 0.5000 -1.3865
vn -0.9219 -0.3827 0.0599
f 40//14 41//14 42//14
v -0.3500 0.5000 0.6000
v -0.5494 0.5000 0.6150
v -0.4910 0.3586 0.6106
vn 0.0748 -0.0000 0.9972
f 43//15 44//15 45//15
v -0.5000 0.5000 -1.4000
v -0.6269 0.3727 -1.3905
v -0.6795 0.5000 -1.3865
vn -0.0748 -0.0000 -0.9972
f 46//16 47//16 48//16
v -0.5494 0.5000 0.6150
v -0.6269 0.6273 -1.3905
v -0.6795 0.5000 -1.3865
vn -0.9219 0.3827 0.0599
f 49//17 50//17 51//17
v -0.5494 0.5000 0.6150
v -0.4910 0.6414 0.6106
v -0.6269 0.6273 -1.3905
vn -0.9219 0.3827 0.0599
f 52//18 53//18 54//18
v -0.3500 0.5000 0.6000
v -0.4910 0.6414 0.6106
v -0.5494 0.5000 0.6150
vn 0.0748 0.0000 0.9972
f 55//19 56//19 57//19
v -0.5000 0.5000 -1.4000
v -0.6795 0.5000 -1.3865
v -0.6269 0.6273 -1.3905
vn -0.0748 0.0000 -0.9972
f 58//20 59//20 60//20
v -0.4910 0.6414 0.6106
v -0.5000 0.6800 -1.4000
v -0.6269 0.6273 -1.3905
vn -0.3823 0.9238 0.0194
f 61//21 62//21 63//21
v -0.4910 0.6414 0.6106
v -0.3500 0.7000 0.6000
v -0.5000 0.6800 -1.4000
vn -0.3823 0.9238 0.0194
f 64//22 65//22 66//22
v -0.3500 0.5000 0.6000
v -0.3500 0.7000 0.6000
v -0.4910 0.6414 0.6106
vn 0.0748 0.0000 0.9972
f 67//23 68//23 69//23
v -0.5000 0.5000 -1.4000
v -0.6269 0.6273 -1.3905
v -0.5000 0.6800 -1.4000
vn -0.0748 0.0000 -0.9972
f 70//24 71//24 72//24
v -0.3500 0.7000 0.6000
v -0.3731 0.6273 -1.4095
v -0.5000 0.6800 -1.4000
vn 0.3809 0.9238 -0.0378
f 73//25 74//25 75//25
v -0.3500 0.7000 0.6000
v -0.2090 0.6414 0.5894
v -0.3731 0.6273 -1.4095
vn 0.3809 0.9238 -0.0378
f 76//26 77//26 78//26
v -0.3500 0.5000 0.6000
v -0.2090 0.6414 0.5894
v -0.3500 0.7000 0.6000
vn 0.0748 0.0000 0.9972
f 79//27 80//27 81//27
v -0.5000 0.5000 -1.4000
v -0.5000 0.6800 -1.4000
v -0.3731 0.6273 -1.4095
vn -0.0748 0.0000 -0.9972
f 82//28 83//28 84//28
v -0.2090 0.6414 0.5894
v -0.3205 0.5000 -1.4135
v -0.3731 0.6273 -1.4095
vn 0.9206 0.3827 -0.0783
f 85//29 86//29 87//29
v -0.2090 0.6414 0.5894
v -0.1506 0.5000 0.5850
v -0.3205 0.5000 -1.4135
vn 0.9206 0.3827 -0.0783
f 88//30 89//30 90//30
v -0.3500 0.5000 0.6000
v -0.1506 0.5000 0.5850
v -0.2090 0.6414 0.5894
vn 0.0748 -0.0000 0.9972
f 91//31 92//31 93//31
v -0.5000 0.5000 -1.4000
v -0.3731 0.6273 -1.4095
v -0.3205 0.5000 -1.4135
vn -0.0748 -0.0000 -0.9972
f 94//32 95//32 96//32
v 0.5494 0.5000 0.6150
v 0.6269 0.3727 -1.3905
v 0.6795 0.5000 -1.3865
vn 0.9219 -0.3827 0.0599
f 97//33 98//33 99//33
v 0.5494 0.5000 0.6150
v 0.4910 0.3586 0.6106
v 0.6269 0.3727 -1.3905
vn 0.9219 -0.3827 0.0599
f 100//34 101//34 102//34
v 0.3500 0.5000 0.6000
v 0.4910 0.3586 0.6106
v 0.5494 0.5000 0.6150
vn -0.0748 -0.0000 0.9972
f 103//35 104//35 105//35
v 0.5000 0.5000 -1.4000
v 0.6795 0.5000 -1.3865
v 0.6269 0.3727 -1.3905
vn 0.0748 -0.0000 -0.9972
f 106//36 107//36 108//36
v 0.4910 0.3586 0.6106
v 0.5000 0.3200 -1.4000
v 0.6269 0.3727 -1.3905
vn 0.3823 -0.9238 0.0194
f 109//37 110//37 111//37
v 0.4910 0.3586 0.6106
v 0.3500 0.3000 0.6000
v 0.5000 0.3200 -1.4000
vn 0.3823 -0.9238 0.0194
f 112//38 113//38 114//38
v 0.3500 0.5000 0.6000
v 0.3500 0.3000 0.6000
v 0.4910 0.3586 0.6106
vn -0.0748 0.0000 0.9972
f 115//39 116//39 117//39
v 0.5000 0.5000 -1.4000
v 0.6269 0.3727 -1.3905
v 0.5000 0.3200 -1.4000
vn 0.0748 0.0000 -0.9972
f 118//40 119//40 120//40
v 0.3500 0.3000 0.6000
v 0.3731 0.3727 -1.4095
v 0.5000 0.3200 -1.4000
vn -0.3809 -0.9238 -0.0378
f 121//41 122//41 123//41
v 0.3500 0.3000 0.6000
v 0.2090 0.3586 0.5894
v 0.3731 0.3727 -1.4095
vn -0.3809 -0.9238 -0.0378
f 124//42 125//42 126//42
v 0.3500 0.5000 0.6000
v 0.2090 0.3586 0.5894
v 0.3500 0.3000 0.6000
vn -0.0748 0.0000 0.9972
f 127//43 128//43 129//43
v 0.5000 0.5000 -1.4000
v 0.5000 0.3200 -1.4000
v 0.3731 0.3727 -1.4095
vn 0.0748 0.0000 -0.9972
f 130//44 131//44 132//44
v 0.2090 0.3586 0.5894
v 0.3205 0.5000 -1.4135
v 0.3731 0.3727 -1.4095
vn -0.9206 -0.3827 -0.0783
f 133//45 134//45 135//45
v 0.2090 0.3586 0.5894
v 0.1506 0.5000 0.5850
v 0.3205 0.5000 -1.4135
vn -0.9206 -0.3827 -0.0783
f 136//46 137//46 138//46
v 0.3500 0.5000 0.6000
v 0.1506 0.5000 0.5850
v 0.2090 0.3586 0.5894
vn -0.0748 0.0000 0.9972
f 139//47 140//47 141//47
v 0.5000 0.5000 -1.4000
v 0.3731 0.3727 -1.4095
v 0.3205 0.5000 -1.4135
vn 0.0748 0.0000 -0.9972
f 142//48 143//48 144//48
v 0.1506 0.5000 0.5850
v 0.3731 0.6273 -1.4095
v 0.3205 0.5000 -1.4135
vn -0.9206 0.3827 -0.0783
f 145//49 146//49 147//49
v 0.1506 0.5000 0.5850
v 0.2090 0.6414 0.5894
v 0.3731 0.6273 -1.4095
vn -0.9206 0.3827 -0.0783
f 148//50 149//50 150//50
v 0.3500 0.5000 0.6000
v 0.2090 0.6414 0.5894
v 0.1506 0.5000 0.5850
vn -0.0748 -0.0000 0.9972
f 151//51 152//51 153//51
v 0.5000 0.5000 -1.4000
v 0.3205 0.5000 -1.4135
v 0.3731 0.6273 -1.4095
vn 0.0748 -0.0000 -0.9972
f 154//52 155//52 156//52
v 0.2090 0.6414 0.5894
v 0.5000 0.6800 -1.4000
v 0.3731 0.6273 -1.4095
vn -0.3809 0.9238 -0.0378
f 157//53 158//53 159//53
v 0.2090 0.6414 0.5894
v 0.3500 0.7000 0.6000
v 0.5000 0.6800 -1.4000
vn -0.3809 0.9238 -0.0378
f 160//54 161//54 162//54
v 0.3500 0.5000 0.6000
v 0.3500 0.7000 0.6000
v 0.2090 0.6414 0.5894
vn -0.0748 -0.0000 0.9972
f 163//55 164//55 165//55
v 0.5000 0.5000 -1.4000
v 0.3731 0.6273 -1.4095
v 0.5000 0.6800 -1.4000
vn 0.0748 0.0000 -0.9972
f 166//56 167//56 168//56
v 0.3500 0.7000 0.6000
v 0.6269 0.6273 -1.3905
v 0.5000 0.6800 -1.4000
vn 0.3823 0.9238 0.0194
f 169//57 170//57 171//57
v 0.3500 0.7000 0.6000
v 0.4910 0.6414 0.6106
v 0.6269 0.6273 -1.3905
vn 0.3823 0.9238 0.0194
f 172//58 173//58 174//58
v 0.3500 0.5000 0.6000
v 0.4910 0.6414 0.6106
v 0.3500 0.7000 0.6000
vn -0.0748 -0.0000 0.9972
f 175//59 176//59 177//59
v 0.5000 0.5000 -1.4000
v 0.5000 0.6800 -1.4000
v 0.6269 0.6273 -1.3905
vn 0.0748 0.0000 -0.9972
f 178//60 179//60 180//60
v 0.4910 0.6414 0.6106
v 0.6795 0.5000 -1.3865
v 0.6269 0.6273 -1.3905
vn 0.9219 0.3827 0.0599
f 181//61 182//61 183//61
v 0.4910 0.6414 0.6106
v 0.5494 0.5000 0.6150
v 0.6795 0.5000 -1.3865
vn 0.9219 0.3827 0.0599
f 184//62 185//62 186//62
v 0.3500 0.5000 0.6000
v 0.5494 0.5000 0.6150
v 0.4910 0.6414 0.6106
vn -0.0748 0.0000 0.9972
f 187//63 188//63 189//63
v 0.5000 0.5000 -1.4000
v 0.6269 0.6273 -1.3905
v 0.6795 0.5000 -1.3865
vn 0.0748 0.0000 -0.9972
f 190//64 191//64 192//64
v -0.2800 0.1000 1.9000
v -0.1556 -0.0556 2.5000
v -0.2200 0.1000 2.5000
vn -0.9200 -0.3811 0.0920
f 193//65 194//65 195//65
v -0.2800 0.1000 1.9000
v -0.1980 -0.0980 1.9000
v -0.1556 -0.0556 2.5000
vn -0.9200 -0.3811 0.0920
f 196//66 197//66 198//66
v 0.0000 0.1000 1.9000
v -0.1980 -0.0980 1.9000
v -0.2800 0.1000 1.9000
vn -0.0000 0.0000 -1.0000
f 199//67 200//67 201//67
v 0.0000 0.1000 2.5000
v -0.2200 0.1000 2.5000
v -0.1556 -0.0556 2.5000
vn 0.0000 0.0000 1.0000
f 202//68 203//68 204//68
v -0.1980 -0.0980 1.9000
v -0.0000 -0.1200 2.5000
v -0.1556 -0.0556 2.5000
vn -0.3811 -0.9200 0.0920
f 205//69 206//69 207//69
v -0.1980 -0.0980 1.9000
v -0.0000 -0.1800 1.9000
v -0.0000 -0.1200 2.5000
vn -0.3811 -0.9200 0.0920
f 208//70 209//70 210//70
v 0.0000 0.1000 1.9000
v -0.0000 -0.1800 1.9000
v -0.1980 -0.0980 1.9000
vn 0.0000 0.0000 -1.0000
f 211//71 212//71 213//71
v 0.0000 0.1000 2.5000
v -0.1556 -0.0556 2.5000
v -0.0000 -0.1200 2.5000
vn 0.0000 0.0000 1.0000
f 214//72 215//72 216//72
v -0.0000 -0.1800 1.9000
v 0.1556 -0.0556 2.5000
v -0.0000 -0.1200 2.5000
vn 0.3811 -0.9200 0.0920
f 217//73 218//73 219//73
v -0.0000 -0.1800 1.9000
v 0.1980 -0.0980 1.9000
v 0.1556 -0.0556 2.5000
vn 0.3811 -0.9200 0.0920
f 220//74 221//74 222//74
v 0.0000 0.1000 1.9000
v 0.1980 -0.0980 1.9000
v -0.0000 -0.1800 1.9000
vn 0.0000 -0.0000 -1.0000
f 223//75 224//75 225//75
v 0.0000 0.1000 2.5000
v -0.0000 -0.1200 2.5000
v 0.1556 -0.0556 2.5000
vn 0.0000 0.0000 1.0000
f 226//76 227//76 228//76
v 0.1980 -0.0980 1.9000
v 0.2200 0.1000 2.5000
v 0.1556 -0.0556 2.5000
vn 0.9200 -0.3811 0.0920
f 229//77 230//77 231//77
v 0.1980 -0.0980 1.9000
v 0.2800 0.1000 1.9000
v 0.2200 0.1000 2.5000
vn 0.9200 -0.3811 0.0920
f 232//78 233//78 234//78
v 0.0000 0.1000 1.9000
v 0.2800 0.1000 1.9000
v 0.1980 -0.0980 1.9000
vn 0.0000 0.0000 -1.0000
f 235//79 236//79 237//79
v 0.0000 0.1000 2.5000
v 0.1556 -0.0556 2.5000
v 0.2200 0.1000 2.5000
vn 0.0000 0.0000 1.0000
f 238//80 239//80 240//80
v 0.2800 0.1000 1.9000
v 0.1556 0.2556 2.5000
v 0.2200 0.1000 2.5000
vn 0.9200 0.3811 0.0920
f 241//81 242//81 243//81
v 0.2800 0.1000 1.9000
v 0.1980 0.2980 1.9000
v 0.1556 0.2556 2.5000
vn 0.9200 0.3811 0.0920
f 244//82 245//82 246//82
v 0.0000 0.1000 1.9000
v 0.1980 0.2980 1.9000
v 0.2800 0.1000 1.9000
vn 0.0000 0.0000 -1.0000
f 247//83 248//83 249//83
v 0.0000 0.1000 2.5000
v 0.2200 0.1000 2.5000
v 0.1556 0.2556 2.5000
vn -0.0000 0.0000 1.0000
f 250//84 251//84 252//84
v 0.1980 0.2980 1.9000
v 0.0000 0.3200 2.5000
v 0.1556 0.2556 2.5000
vn 0.3811 0.9200 0.0920
f 253//85 254//85 255//85
v 0.1980 0.2980 1.9000
v 0.0000 0.3800 1.9000
v 0.0000 0.3200 2.5000
vn 0.3811 0.9200 0.0920
f 256//86 257//86 258//86
v 0.0000 0.1000 1.9000
v 0.0000 0.3800 1.9000
v 0.1980 0.2980 1.9000
vn 0.0000 0.0000 -1.0000
f 259//87 260//87 261//87
v 0.0000 0.1000 2.5000
v 0.1556 0.2556 2.5000
v 0.0000 0.3200 2.5000
vn 0.0000 0.0000 1.0000
f 262//88 263//88 264//88
v 0.0000 0.3800 1.9000
v -0.1556 0.2556 2.5000
v 0.0000 0.3200 2.5000
vn -0.3811 0.9200 0.0920
f 265//89 266//89 267//89
v 0.0000 0.3800 1.9000
v -0.1980 0.2980 1.9000
v -0.1556 0.2556 2.5000
vn -0.3811 0.9200 0.0920
f 268//90 269//90 270//90
v 0.0000 0.1000 1.9000
v -0.1980 0.2980 1.9000
v 0.0000 0.3800 1.9000
vn 0.0000 0.0000 -1.0000
f 271//91 272//91 273//91
v 0.0000 0.1000 2.5000
v 0.0000 0.3200 2.5000
v -0.1556 0.2556 2.5000
vn 0.0000 -0.0000 1.0000
f 274//92 275//92 276//92
v -0.1980 0.2980 1.9000
v -0.2200 0.1000 2.5000
v -0.1556 0.2556 2.5000
vn -0.9200 0.3811 0.0920
f 277//93 278//93 279//93
v -0.1980 0.2980 1.9000
v -0.2800 0.1000 1.9000
v -0.2200 0.1000 2.5000
vn -0.9200 0.3811 0.0920
f 280//94 281//94 282//94
v 0.0000 0.1000 1.9000
v -0.2800 0.1000 1.9000
v -0.1980 0.2980 1.9000
vn 0.0000 0.0000 -1.0000
f 283//95 284//95 285//95
v 0.0000 0.1000 2.5000
v -0.1556 0.2556 2.5000
v -0.2200 0.1000 2.5000
vn 0.0000 0.0000 1.0000
f 286//96 287//96 288//96
o deck
usemtl deck
s off
v 0.0285 0.4500 -2.5000
v -0.3544 0.3905 -1.9444
v 0.3544 0.3905 -1.9444
vn 0.0000 0.9943 0.1065
f 289//97 290//97 291//97
v 0.0285 0.4500 -2.5000
v -0.0285 0.4500 -2.5000
v -0.3544 0.3905 -1.9444
vn 0.0000 0.9943 0.1065
f 292//98 293//98 294//98
v 0.3544 0.3905 -1.9444
v -0.5757 0.3448 -1.3889
v 0.5757 0.3448 -1.3889
vn 0.0000 0.9966 0.0819
f 295//99 296//99 297//99
v 0.3544 0.3905 -1.9444
v -0.3544 0.3905 -1.9444
v -0.5757 0.3448 -1.3889
vn 0.0000 0.9966 0.0819
f 298//100 299//100 300//100
v 0.5757 0.3448 -1.3889
v -0.7646 0.3130 -0.8333
v 0.7646 0.3130 -0.8333
vn 0.0000 0.9984 0.0573
f 301//101 302//101 303//101
v 0.5757 0.3448 -1.3889
v -0.5757 0.3448 -1.3889
v -0.7646 0.3130 -0.8333
vn 0.0000 0.9984 0.0573
f 304//102 305//102 306//102
v 0.7646 0.3130 -0.8333
v -0.9352 0.2960 -0.2778
v 0.9352 0.2960 -0.2778
vn 0.0000 0.9995 0.0305
f 307//103 308//103 309//103
v 0.7646 0.3130 -0.8333
v -0.7646 0.3130 -0.8333
v -0.9352 0.2960 -0.2778
vn 0.0000 0.9995 0.0305
f 310//104 311//104 312//104
v 0.9352 0.2960 -0.2778
v -0.9500 0.2961 0.2778
v 0.9500 0.2961 0.2778
vn 0.0000 1.0000 -0.0002
f 313//105 314//105 315//105
v 0.9352 0.2960 -0.2778
v -0.9352 0.2960 -0.2778
v -0.9500 0.2961 0.2778
vn 0.0000 1.0000 -0.0002
f 316//106 317//106 318//106
v 0.9500 0.2961 0.2778
v -0.9104 0.3167 0.8333
v 0.9104 0.3167 0.8333
vn 0.0000 0.9993 -0.0369
f 319//107 320//107 321//107
v 0.9500 0.2961 0.2778
v -0.9500 0.2961 0.2778
v -0.9104 0.3167 0.8333
vn 0.0000 0.9993 -0.0369
f 322//108 323//108 324//108
v 0.9104 0.3167 0.8333
v -0.8444 0.3620 1.3889
v 0.8444 0.3620 1.3889
vn 0.0000 0.9967 -0.0813
f 325//109 326//109 327//109
v 0.9104 0.3167 0.8333
v -0.9104 0.3167 0.8333
v -0.8444 0.3620 1.3889
vn 0.0000 0.9967 -0.0813
f 328//110 329//110 330//110
v 0.8444 0.3620 1.3889
v -0.7785 0.4376 1.9444
v 0.7785 0.4376 1.9444
vn 0.0000 0.9909 -0.1348
f 331//111 332//111 333//111
v 0.8444 0.3620 1.3889
v -0.8444 0.3620 1.3889
v -0.7785 0.4376 1.9444
vn 0.0000 0.9909 -0.1348
f 334//112 335//112 336//112
v 0.7785 0.4376 1.9444
v -0.7125 0.5500 2.5000
v 0.7125 0.5500 2.5000
vn 0.0000 0.9801 -0.1984
f 337//113 338//113 339//113
v 0.7785 0.4376 1.9444
v -0.7785 0.4376 1.9444
v -0.7125 0.5500 2.5000
vn 0.0000 0.9801 -0.1984
f 340//114 341//114 342//114
o hull
usemtl hull
s off
v -0.0285 0.4500 -2.5000
v -0.3069 -0.0454 -1.9444
v -0.3544 0.3905 -1.9444
vn -0.8544 -0.0931 -0.5111
f 343//115 344//115 345//115
v -0.0285 0.4500 -2.5000
v -0.0247 0.1515 -2.5000
v -0.3069 -0.0454 -1.9444
vn -0.8899 -0.0114 -0.4561
f 346//116 347//116 348//116
v -0.0247 0.1515 -2.5000
v -0.1772 -0.2676 -1.9444
v -0.3069 -0.0454 -1.9444
vn -0.7349 -0.4289 -0.5253
f 349//117 350//117 351//117
v -0.0247 0.1515 -2.5000
v -0.0142 -0.0007 -2.5000
v -0.1772 -0.2676 -1.9444
vn -0.9487 -0.0650 -0.3095
f 352//118 353//118 354//118
v -0.0142 -0.0007 -2.5000
v 0.0000 -0.3426 -1.9444
v -0.1772 -0.2676 -1.9444
vn -0.3405 -0.8046 -0.4865
f 355//119 356//119 357//119
v -0.0142 -0.0007 -2.5000
v 0.0000 -0.0520 -2.5000
v 0.0000 -0.3426 -1.9444
vn -0.9543 -0.2649 -0.1385
f 358//120 359//120 360//120
v 0.0000 -0.0520 -2.5000
v 0.1772 -0.2676 -1.9444
v 0.0000 -0.3426 -1.9444
vn 0.3511 -0.8297 -0.4340
f 361//121 362//121 363//121
v 0.0000 -0.0520 -2.5000
v 0.0142 -0.0007 -2.5000
v 0.1772 -0.2676 -1.9444
vn 0.8912 -0.2474 -0.3802
f 364//122 365//122 366//122
v 0.0142 -0.0007 -2.5000
v 0.3069 -0.0454 -1.9444
v 0.1772 -0.2676 -1.9444
vn 0.7739 -0.4517 -0.4440
f 367//123 368//123 369//123
v 0.0142 -0.0007 -2.5000
v 0.0247 0.1515 -2.5000
v 0.3069 -0.0454 -1.9444
vn 0.8811 -0.0604 -0.4690
f 370//124 371//124 372//124
v 0.0247 0.1515 -2.5000
v 0.3544 0.3905 -1.9444
v 0.3069 -0.0454 -1.9444
vn 0.8735 -0.0951 -0.4774
f 373//125 374//125 375//125
v 0.0247 0.1515 -2.5000
v 0.0285 0.4500 -2.5000
v 0.3544 0.3905 -1.9444
vn 0.8620 -0.0110 -0.5068
f 376//126 377//126 378//126
v -0.3544 0.3905 -1.9444
v -0.4985 -0.1483 -1.3889
v -0.5757 0.3448 -1.3889
vn -0.9153 -0.1432 -0.3764
f 379//127 380//127 381//127
v -0.3544 0.3905 -1.9444
v -0.3069 -0.0454 -1.9444
v -0.4985 -0.1483 -1.3889
vn -0.9345 -0.1018 -0.3412
f 382//128 383//128 384//128
v -0.3069 -0.0454 -1.9444
v -0.2878 -0.3997 -1.3889
v -0.4985 -0.1483 -1.3889
vn -0.7156 -0.5998 -0.3580
f 385//129 386//129 387//129
v -0.3069 -0.0454 -1.9444
v -0.1772 -0.2676 -1.9444
v -0.2878 -0.3997 -1.3889
vn -0.8291 -0.4839 -0.2802
f 388//130 389//130 390//130
v -0.1772 -0.2676 -1.9444
v 0.0000 -0.4845 -1.3889
v -0.2878 -0.3997 -1.3889
vn -0.2719 -0.9227 -0.2735
f 391//131 392//131 393//131
v -0.1772 -0.2676 -1.9444
v 0.0000 -0.3426 -1.9444
v 0.0000 -0.4845 -1.3889
vn -0.3793 -0.8965 -0.2290
f 394//132 395//132 396//132
v 0.0000 -0.3426 -1.9444
v 0.2878 -0.3997 -1.3889
v 0.0000 -0.4845 -1.3889
vn 0.2745 -0.9317 -0.2380
f 397//133 398//133 399//133
v 0.0000 -0.3426 -1.9444
v 0.1772 -0.2676 -1.9444
v 0.2878 -0.3997 -1.3889
vn 0.3736 -0.8830 -0.2843
f 400//134 401//134 402//134
v 0.1772 -0.2676 -1.9444
v 0.4985 -0.1483 -1.3889
v 0.2878 -0.3997 -1.3889
vn 0.7330 -0.6144 -0.2920
f 403//135 404//135 405//135
v 0.1772 -0.2676 -1.9444
v 0.3069 -0.0454 -1.9444
v 0.4985 -0.1483 -1.3889
vn 0.8043 -0.4694 -0.3644
f 406//136 407//136 408//136
v 0.3069 -0.0454 -1.9444
v 0.5757 0.3448 -1.3889
v 0.4985 -0.1483 -1.3889
vn 0.9268 -0.1449 -0.3466
f 409//137 410//137 411//137
v 0.3069 -0.0454 -1.9444
v 0.3544 0.3905 -1.9444
v 0.5757 0.3448 -1.3889
vn 0.9215 -0.1004 -0.3753
f 412//138 413//138 414//138
v -0.5757 0.3448 -1.3889
v -0.6622 -0.2259 -0.8333
v -0.7646 0.3130 -0.8333
vn -0.9287 -0.1765 -0.3260
f 415//139 416//139 417//139
v -0.5757 0.3448 -1.3889
v -0.4985 -0.1483 -1.3889
v -0.6622 -0.2259 -0.8333
vn -0.9430 -0.1475 -0.2983
f 418//140 419//140 420//140
v -0.4985 -0.1483 -1.3889
v -0.3823 -0.5007 -0.8333
v -0.6622 -0.2259 -0.8333
vn -0.6699 -0.6824 -0.2927
f 421//141 422//141 423//141
v -0.4985 -0.1483 -1.3889
v -0.2878 -0.3997 -1.3889
v -0.3823 -0.5007 -0.8333
vn -0.7440 -0.6236 -0.2399
f 424//142 425//142 426//142
v -0.2878 -0.3997 -1.3889
v 0.0000 -0.5934 -0.8333
v -0.3823 -0.5007 -0.8333
vn -0.2303 -0.9498 -0.2118
f 427//143 428//143 429//143
v -0.2878 -0.3997 -1.3889
v 0.0000 -0.4845 -1.3889
v 0.0000 -0.5934 -0.8333
vn -0.2778 -0.9427 -0.1848
f 430//144 431//144 432//144
v 0.0000 -0.4845 -1.3889
v 0.3823 -0.5007 -0.8333
v 0.0000 -0.5934 -0.8333
vn 0.2315 -0.9547 -0.1871
f 433//145 434//145 435//145
v 0.0000 -0.4845 -1.3889
v 0.2878 -0.3997 -1.3889
v 0.3823 -0.5007 -0.8333
vn 0.2759 -0.9363 -0.2172
f 436//146 437//146 438//146
v 0.2878 -0.3997 -1.3889
v 0.6622 -0.2259 -0.8333
v 0.3823 -0.5007 -0.8333
vn 0.6798 -0.6925 -0.2415
f 439//147 440//147 441//147
v 0.2878 -0.3997 -1.3889
v 0.4985 -0.1483 -1.3889
v 0.6622 -0.2259 -0.8333
vn 0.7309 -0.6126 -0.3009
f 442//148 443//148 444//148
v 0.4985 -0.1483 -1.3889
v 0.7646 0.3130 -0.8333
v 0.6622 -0.2259 -0.8333
vn 0.9369 -0.1781 -0.3008
f 445//149 446//149 447//149
v 0.4985 -0.1483 -1.3889
v 0.5757 0.3448 -1.3889
v 0.7646 0.3130 -0.8333
vn 0.9340 -0.1461 -0.3260
f 448//150 449//150 450//150
v -0.7646 0.3130 -0.8333
v -0.8099 -0.2665 -0.2778
v -0.9352 0.2960 -0.2778
vn -0.9333 -0.2079 -0.2929
f 451//151 452//151 453//151
v -0.7646 0.3130 -0.8333
v -0.6622 -0.2259 -0.8333
v -0.8099 -0.2665 -0.2778
vn -0.9473 -0.1801 -0.2650
f 454//152 455//152 456//152
v -0.6622 -0.2259 -0.8333
v -0.4676 -0.5533 -0.2778
v -0.8099 -0.2665 -0.2778
vn -0.6263 -0.7476 -0.2211
f 457//153 458//153 459//153
v -0.6622 -0.2259 -0.8333
v -0.3823 -0.5007 -0.8333
v -0.4676 -0.5533 -0.2778
vn -0.6900 -0.7029 -0.1725
f 460//154 461//154 462//154
v -0.3823 -0.5007 -0.8333
v 0.0000 -0.6500 -0.2778
v -0.4676 -0.5533 -0.2778
vn -0.2011 -0.9718 -0.1228
f 463//155 464//155 465//155
v -0.3823 -0.5007 -0.8333
v 0.0000 -0.5934 -0.8333
v 0.0000 -0.6500 -0.2778
vn -0.2345 -0.9671 -0.0986
f 466//156 467//156 468//156
v 0.0000 -0.5934 -0.8333
v 0.4676 -0.5533 -0.2778
v 0.0000 -0.6500 -0.2778
vn 0.2016 -0.9744 -0.0993
f 469//157 470//157 471//157
v 0.0000 -0.5934 -0.8333
v 0.3823 -0.5007 -0.8333
v 0.4676 -0.5533 -0.2778
vn 0.2337 -0.9640 -0.1271
f 472//158 473//158 474//158
v 0.3823 -0.5007 -0.8333
v 0.8099 -0.2665 -0.2778
v 0.4676 -0.5533 -0.2778
vn 0.6330 -0.7556 -0.1687
f 475//159 476//159 477//159
v 0.3823 -0.5007 -0.8333
v 0.6622 -0.2259 -0.8333
v 0.8099 -0.2665 -0.2778
vn 0.6814 -0.6942 -0.2319
f 478//160 479//160 480//160
v 0.6622 -0.2259 -0.8333
v 0.9352 0.2960 -0.2778
v 0.8099 -0.2665 -0.2778
vn 0.9410 -0.2096 -0.2655
f 481//161 482//161 483//161
v 0.6622 -0.2259 -0.8333
v 0.7646 0.3130 -0.8333
v 0.9352 0.2960 -0.2778
vn 0.9391 -0.1785 -0.2938
f 484//162 485//162 486//162
v -0.9352 0.2960 -0.2778
v -0.8227 -0.2664 0.2778
v -0.9500 0.2961 0.2778
vn -0.9750 -0.2206 -0.0260
f 487//163 488//163 489//163
v -0.9352 0.2960 -0.2778
v -0.8099 -0.2665 -0.2778
v -0.8227 -0.2664 0.2778
vn -0.9758 -0.2174 -0.0225
f 490//164 491//164 492//164
v -0.8099 -0.2665 -0.2778
v -0.4750 -0.5532 0.2778
v -0.8227 -0.2664 0.2778
vn -0.6362 -0.7714 -0.0146
f 493//165 494//165 495//165
v -0.8099 -0.2665 -0.2778
v -0.4676 -0.5533 -0.2778
v -0.4750 -0.5532 0.2778
vn -0.6422 -0.7665 -0.0086
f 496//166 497//166 498//166
v -0.4676 -0.5533 -0.2778
v 0.0000 -0.6500 0.2778
v -0.4750 -0.5532 0.2778
vn -0.1996 -0.9799 -0.0026
f 499//167 500//167 501//167
v -0.4676 -0.5533 -0.2778
v 0.0000 -0.6500 -0.2778
v 0.0000 -0.6500 0.2778
vn -0.2026 -0.9793 0.0000
f 502//168 503//168 504//168
v 0.0000 -0.6500 -0.2778
v 0.4750 -0.5532 0.2778
v 0.0000 -0.6500 0.2778
vn 0.1996 -0.9799 0.0000
f 505//169 506//169 507//169
v 0.0000 -0.6500 -0.2778
v 0.4676 -0.5533 -0.2778
v 0.4750 -0.5532 0.2778
vn 0.2026 -0.9793 -0.0027
f 508//170 509//170 510//170
v 0.4676 -0.5533 -0.2778
v 0.8227 -0.2664 0.2778
v 0.4750 -0.5532 0.2778
vn 0.6363 -0.7714 -0.0085
f 511//171 512//171 513//171
v 0.4676 -0.5533 -0.2778
v 0.8099 -0.2665 -0.2778
v 0.8227 -0.2664 0.2778
vn 0.6421 -0.7665 -0.0148
f 514//172 515//172 516//172
v 0.8099 -0.2665 -0.2778
v 0.9500 0.2961 0.2778
v 0.8227 -0.2664 0.2778
vn 0.9751 -0.2206 -0.0225
f 517//173 518//173 519//173
v 0.8099 -0.2665 -0.2778
v 0.9352 0.2960 -0.2778
v 0.9500 0.2961 0.2778
vn 0.9758 -0.2173 -0.0260
f 520//174 521//174 522//174
v -0.9500 0.2961 0.2778
v -0.7884 -0.2581 0.8333
v -0.9104 0.3167 0.8333
vn -0.9753 -0.2070 0.0771
f 523//175 524//175 525//175
v -0.9500 0.2961 0.2778
v -0.8227 -0.2664 0.2778
v -0.7884 -0.2581 0.8333
vn -0.9734 -0.2202 0.0634
f 526//176 527//176 528//176
v -0.8227 -0.2664 0.2778
v -0.4552 -0.5511 0.8333
v -0.7884 -0.2581 0.8333
vn -0.6595 -0.7499 0.0519
f 529//177 530//177 531//177
v -0.8227 -0.2664 0.2778
v -0.4750 -0.5532 0.2778
v -0.4552 -0.5511 0.8333
vn -0.6361 -0.7712 0.0256
f 532//178 533//178 534//178
v -0.4750 -0.5532 0.2778
v 0.0000 -0.6500 0.8333
v -0.4552 -0.5511 0.8333
vn -0.2122 -0.9772 0.0113
f 535//179 536//179 537//179
v -0.4750 -0.5532 0.2778
v 0.0000 -0.6500 0.2778
v 0.0000 -0.6500 0.8333
vn -0.1996 -0.9799 -0.0000
f 538//180 539//180 540//180
v 0.0000 -0.6500 0.2778
v 0.4552 -0.5511 0.8333
v 0.0000 -0.6500 0.8333
vn 0.2122 -0.9772 -0.0000
f 541//181 542//181 543//181
v 0.0000 -0.6500 0.2778
v 0.4750 -0.5532 0.2778
v 0.4552 -0.5511 0.8333
vn 0.1996 -0.9798 0.0108
f 544//182 545//182 546//182
v 0.4750 -0.5532 0.2778
v 0.7884 -0.2581 0.8333
v 0.4552 -0.5511 0.8333
vn 0.6601 -0.7507 0.0264
f 547//183 548//183 549//183
v 0.4750 -0.5532 0.2778
v 0.8227 -0.2664 0.2778
v 0.7884 -0.2581 0.8333
vn 0.6355 -0.7705 0.0508
f 550//184 551//184 552//184
v 0.8227 -0.2664 0.2778
v 0.9104 0.3167 0.8333
v 0.7884 -0.2581 0.8333
vn 0.9763 -0.2072 0.0633
f 553//185 554//185 555//185
v 0.8227 -0.2664 0.2778
v 0.9500 0.2961 0.2778
v 0.9104 0.3167 0.8333
vn 0.9724 -0.2200 0.0774
f 556//186 557//186 558//186
v -0.9104 0.3167 0.8333
v -0.7313 -0.2247 1.3889
v -0.8444 0.3620 1.3889
vn -0.9735 -0.1877 0.1309
f 559//187 560//187 561//187
v -0.9104 0.3167 0.8333
v -0.7884 -0.2581 0.8333
v -0.7313 -0.2247 1.3889
vn -0.9720 -0.2063 0.1124
f 562//188 563//188 564//188
v -0.7884 -0.2581 0.8333
v -0.4222 -0.5238 1.3889
v -0.7313 -0.2247 1.3889
vn -0.6909 -0.7139 0.1140
f 565//189 566//189 567//189
v -0.7884 -0.2581 0.8333
v -0.4552 -0.5511 0.8333
v -0.4222 -0.5238 1.3889
vn -0.6584 -0.7488 0.0759
f 568//190 569//190 570//190
v -0.4552 -0.5511 0.8333
v 0.0000 -0.6247 1.3889
v -0.4222 -0.5238 1.3889
vn -0.2320 -0.9708 0.0615
f 571//191 572//191 573//191
v -0.4552 -0.5511 0.8333
v 0.0000 -0.6500 0.8333
v 0.0000 -0.6247 1.3889
vn -0.2120 -0.9763 0.0444
f 574//192 575//192 576//192
v 0.0000 -0.6500 0.8333
v 0.4222 -0.5238 1.3889
v 0.0000 -0.6247 1.3889
vn 0.2322 -0.9717 0.0442
f 577//193 578//193 579//193
v 0.0000 -0.6500 0.8333
v 0.4552 -0.5511 0.8333
v 0.4222 -0.5238 1.3889
vn 0.2118 -0.9754 0.0606
f 580//194 581//194 582//194
v 0.4552 -0.5511 0.8333
v 0.7313 -0.2247 1.3889
v 0.4222 -0.5238 1.3889
vn 0.6934 -0.7165 0.0764
f 583//195 584//195 585//195
v 0.4552 -0.5511 0.8333
v 0.7884 -0.2581 0.8333
v 0.7313 -0.2247 1.3889
vn 0.6562 -0.7462 0.1123
f 586//196 587//196 588//196
v 0.7884 -0.2581 0.8333
v 0.8444 0.3620 1.3889
v 0.7313 -0.2247 1.3889
vn 0.9758 -0.1882 0.1117
f 589//197 590//197 591//197
v 0.7884 -0.2581 0.8333
v 0.9104 0.3167 0.8333
v 0.8444 0.3620 1.3889
vn 0.9697 -0.2058 0.1319
f 592//198 593//198 594//198
v -0.8444 0.3620 1.3889
v -0.6742 -0.1340 1.9444
v -0.7785 0.4376 1.9444
vn -0.9741 -0.1778 0.1399
f 595//199 596//199 597//199
v -0.8444 0.3620 1.3889
v -0.7313 -0.2247 1.3889
v -0.6742 -0.1340 1.9444
vn -0.9735 -0.1877 0.1308
f 598//200 599//200 600//200
v -0.7313 -0.2247 1.3889
v -0.3892 -0.4253 1.9444
v -0.6742 -0.1340 1.9444
vn -0.7027 -0.6872 0.1845
f 601//201 602//201 603//201
v -0.7313 -0.2247 1.3889
v -0.4222 -0.5238 1.3889
v -0.3892 -0.4253 1.9444
vn -0.6857 -0.7086 0.1664
f 604//202 605//202 606//202
v -0.4222 -0.5238 1.3889
v 0.0000 -0.5236 1.9444
v -0.3892 -0.4253 1.9444
vn -0.2407 -0.9531 0.1833
f 607//203 608//203 609//203
v -0.4222 -0.5238 1.3889
v 0.0000 -0.6247 1.3889
v 0.0000 -0.5236 1.9444
vn -0.2289 -0.9577 0.1743
f 610//204 611//204 612//204
v 0.0000 -0.6247 1.3889
v 0.3892 -0.4253 1.9444
v 0.0000 -0.5236 1.9444
vn 0.2411 -0.9548 0.1738
f 613//205 614//205 615//205
v 0.0000 -0.6247 1.3889
v 0.4222 -0.5238 1.3889
v 0.3892 -0.4253 1.9444
vn 0.2285 -0.9562 0.1831
f 616//206 617//206 618//206
v 0.4222 -0.5238 1.3889
v 0.6742 -0.1340 1.9444
v 0.3892 -0.4253 1.9444
vn 0.7052 -0.6897 0.1642
f 619//207 620//207 621//207
v 0.4222 -0.5238 1.3889
v 0.7313 -0.2247 1.3889
v 0.6742 -0.1340 1.9444
vn 0.6833 -0.7061 0.1856
f 622//208 623//208 624//208
v 0.7313 -0.2247 1.3889
v 0.7785 0.4376 1.9444
v 0.6742 -0.1340 1.9444
vn 0.9755 -0.1780 0.1294
f 625//209 626//209 627//209
v 0.7313 -0.2247 1.3889
v 0.8444 0.3620 1.3889
v 0.7785 0.4376 1.9444
vn 0.9721 -0.1875 0.1409
f 628//210 629//210 630//210
v -0.7785 0.4376 1.9444
v -0.6170 -0.0283 2.5000
v -0.7125 0.5500 2.5000
vn -0.9757 -0.1611 0.1485
f 631//211 632//211 633//211
v -0.7785 0.4376 1.9444
v -0.6742 -0.1340 1.9444
v -0.6170 -0.0283 2.5000
vn -0.9749 -0.1779 0.1341
f 634//212 635//212 636//212
v -0.6742 -0.1340 1.9444
v -0.3562 -0.3230 2.5000
v -0.6170 -0.0283 2.5000
vn -0.7340 -0.6493 0.1990
f 637//213 638//213 639//213
v -0.6742 -0.1340 1.9444
v -0.3892 -0.4253 1.9444
v -0.3562 -0.3230 2.5000
vn -0.7047 -0.6892 0.1687
f 640//214 641//214 642//214
v -0.3892 -0.4253 1.9444
v 0.0000 -0.4225 2.5000
v -0.3562 -0.3230 2.5000
vn -0.2640 -0.9457 0.1898
f 643//215 644//215 645//215
v -0.3892 -0.4253 1.9444
v 0.0000 -0.5236 1.9444
v 0.0000 -0.4225 2.5000
vn -0.2411 -0.9548 0.1738
f 646//216 647//216 648//216
v 0.0000 -0.5236 1.9444
v 0.3562 -0.3230 2.5000
v 0.0000 -0.4225 2.5000
vn 0.2648 -0.9487 0.1727
f 649//217 650//217 651//217
v 0.0000 -0.5236 1.9444
v 0.3892 -0.4253 1.9444
v 0.3562 -0.3230 2.5000
vn 0.2404 -0.9520 0.1895
f 652//218 653//218 654//218
v 0.3892 -0.4253 1.9444
v 0.6170 -0.0283 2.5000
v 0.3562 -0.3230 2.5000
vn 0.7388 -0.6536 0.1642
f 655//219 656//219 657//219
v 0.3892 -0.4253 1.9444
v 0.6742 -0.1340 1.9444
v 0.6170 -0.0283 2.5000
vn 0.7002 -0.6847 0.2023
f 658//220 659//220 660//220
v 0.6742 -0.1340 1.9444
v 0.7125 0.5500 2.5000
v 0.6170 -0.0283 2.5000
vn 0.9781 -0.1615 0.1313
f 661//221 662//221 663//221
v 0.6742 -0.1340 1.9444
v 0.7785 0.4376 1.9444
v 0.7125 0.5500 2.5000
vn 0.9724 -0.1775 0.1514
f 664//222 665//222 666//222
v -0.0000 0.1642 -2.5000
v -0.0247 0.1515 -2.5000
v -0.0285 0.4500 -2.5000
vn -0.0000 0.0000 -1.0000
f 667//223 668//223 669//223
v -0.0000 0.1642 -2.5000
v -0.0142 -0.0007 -2.5000
v -0.0247 0.1515 -2.5000
vn 0.0000 0.0000 -1.0000
f 670//224 671//224 672//224
v -0.0000 0.1642 -2.5000
v 0.0000 -0.0520 -2.5000
v -0.0142 -0.0007 -2.5000
vn 0.0000 -0.0000 -1.0000
f 673//225 674//225 675//225
v -0.0000 0.1642 -2.5000
v 0.0142 -0.0007 -2.5000
v 0.0000 -0.0520 -2.5000
vn 0.0000 0.0000 -1.0000
f 676//226 677//226 678//226
v -0.0000 0.1642 -2.5000
v 0.0247 0.1515 -2.5000
v 0.0142 -0.0007 -2.5000
vn 0.0000 0.0000 -1.0000
f 679//227 680//227 681//227
v -0.0000 0.1642 -2.5000
v 0.0285 0.4500 -2.5000
v 0.0247 0.1515 -2.5000
vn 0.0000 0.0000 -1.0000
f 682//228 683//228 684//228
v -0.0000 0.1642 -2.5000
v -0.0285 0.4500 -2.5000
v 0.0285 0.4500 -2.5000
vn 0.0000 0.0000 -1.0000
f 685//229 686//229 687//229
v -0.0000 -0.0036 2.5000
v -0.7125 0.5500 2.5000
v -0.6170 -0.0283 2.5000
vn 0.0000 0.0000 1.0000
f 688//230 689//230 690//230
v -0.0000 -0.0036 2.5000
v -0.6170 -0.0283 2.5000
v -0.3562 -0.3230 2.5000
vn 0.0000 0.0000 1.0000
f 691//231 692//231 693//231
v -0.0000 -0.0036 2.5000
v -0.3562 -0.3230 2.5000
v 0.0000 -0.4225 2.5000
vn 0.0000 0.0000 1.0000
f 694//232 695//232 696//232
v -0.0000 -0.0036 2.5000
v 0.0000 -0.4225 2.5000
v 0.3562 -0.3230 2.5000
vn 0.0000 0.0000 1.0000
f 697//233 698//233 699//233
v -0.0000 -0.0036 2.5000
v 0.3562 -0.3230 2.5000
v 0.6170 -0.0283 2.5000
vn 0.0000 0.0000 1.0000
f 700//234 701//234 702//234
v -0.0000 -0.0036 2.5000
v 0.6170 -0.0283 2.5000
v 0.7125 0.5500 2.5000
vn -0.0000 0.0000 1.0000
f 703//235 704//235 705//235
v -0.0000 -0.0036 2.5000
v 0.7125 0.5500 2.5000
v -0.7125 0.5500 2.5000
vn 0.0000 -0.0000 1.0000
f 706//236 707//236 708//236
o iron
usemtl iron
s off
v -0.2910 0.5000 -1.4209
v -0.3622 0.3515 -1.5148
v -0.3010 0.5000 -1.5209
vn 0.9193 -0.3827 -0.0919
f 709//237 710//237 711//237
v -0.2910 0.5000 -1.4209
v -0.3522 0.3515 -1.4148
v -0.3622 0.3515 -1.5148
vn 0.9193 -0.3827 -0.0919
f 712//238 713//238 714//238
v -0.5000 0.5000 -1.4000
v -0.3522 0.3515 -1.4148
v -0.2910 0.5000 -1.4209
vn 0.0995 -0.0000 0.9950
f 715//239 716//239 717//239
v -0.5100 0.5000 -1.5000
v -0.3010 0.5000 -1.5209
v -0.3622 0.3515 -1.5148
vn -0.0995 0.0000 -0.9950
f 718//240 719//240 720//240
v -0.3522 0.3515 -1.4148
v -0.5100 0.2900 -1.5000
v -0.3622 0.3515 -1.5148
vn 0.3808 -0.9239 -0.0381
f 721//241 722//241 723//241
v -0.3522 0.3515 -1.4148
v -0.5000 0.2900 -1.4000
v -0.5100 0.2900 -1.5000
vn 0.3808 -0.9239 -0.0381
f 724//242 725//242 726//242
v -0.5000 0.5000 -1.4000
v -0.5000 0.2900 -1.4000
v -0.3522 0.3515 -1.4148
vn 0.0995 0.0000 0.9950
f 727//243 728//243 729//243
v -0.5100 0.5000 -1.5000
v -0.3622 0.3515 -1.5148
v -0.5100 0.2900 -1.5000
vn -0.0995 -0.0000 -0.9950
f 730//244 731//244 732//244
v -0.5000 0.2900 -1.4000
v -0.6578 0.3515 -1.4852
v -0.5100 0.2900 -1.5000
vn -0.3808 -0.9239 0.0381
f 733//245 734//245 735//245
v -0.5000 0.2900 -1.4000
v -0.6478 0.3515 -1.3852
v -0.6578 0.3515 -1.4852
vn -0.3808 -0.9239 0.0381
f 736//246 737//246 738//246
v -0.5000 0.5000 -1.4000
v -0.6478 0.3515 -1.3852
v -0.5000 0.2900 -1.4000
vn 0.0995 0.0000 0.9950
f 739//247 740//247 741//247
v -0.5100 0.5000 -1.5000
v -0.5100 0.2900 -1.5000
v -0.6578 0.3515 -1.4852
vn -0.0995 -0.0000 -0.9950
f 742//248 743//248 744//248
v -0.6478 0.3515 -1.3852
v -0.7190 0.5000 -1.4791
v -0.6578 0.3515 -1.4852
vn -0.9193 -0.3827 0.0919
f 745//249 746//249 747//249
v -0.6478 0.3515 -1.3852
v -0.7090 0.5000 -1.3791
v -0.7190 0.5000 -1.4791
vn -0.9193 -0.3827 0.0919
f 748//250 749//250 750//250
v -0.5000 0.5000 -1.4000
v -0.7090 0.5000 -1.3791
v -0.6478 0.3515 -1.3852
vn 0.0995 0.0000 0.9950
f 751//251 752//251 753//251
v -0.5100 0.5000 -1.5000
v -0.6578 0.3515 -1.4852
v -0.7190 0.5000 -1.4791
vn -0.0995 -0.0000 -0.9950
f 754//252 755//252 756//252
v -0.7090 0.5000 -1.3791
v -0.6578 0.6485 -1.4852
v -0.7190 0.5000 -1.4791
vn -0.9193 0.3827 0.0919
f 757//253 758//253 759//253
v -0.7090 0.5000 -1.3791
v -0.6478 0.6485 -1.3852
v -0.6578 0.6485 -1.4852
vn -0.9193 0.3827 0.0919
f 760//254 761//254 762//254
v -0.5000 0.5000 -1.4000
v -0.6478 0.6485 -1.3852
v -0.7090 0.5000 -1.3791
vn 0.0995 -0.0000 0.9950
f 763//255 764//255 765//255
v -0.5100 0.5000 -1.5000
v -0.7190 0.5000 -1.4791
v -0.6578 0.6485 -1.4852
vn -0.0995 0.0000 -0.9950
f 766//256 767//256 768//256
v -0.6478 0.6485 -1.3852
v -0.5100 0.7100 -1.5000
v -0.6578 0.6485 -1.4852
vn -0.3808 0.9239 0.0381
f 769//257 770//257 771//257
v -0.6478 0.6485 -1.3852
v -0.5000 0.7100 -1.4000
v -0.5100 0.7100 -1.5000
vn -0.3808 0.9239 0.0381
f 772//258 773//258 774//258
v -0.5000 0.5000 -1.4000
v -0.5000 0.7100 -1.4000
v -0.6478 0.6485 -1.3852
vn 0.0995 -0.0000 0.9950
f 775//259 776//259 777//259
v -0.5100 0.5000 -1.5000
v -0.6578 0.6485 -1.4852
v -0.5100 0.7100 -1.5000
vn -0.0995 0.0000 -0.9950
f 778//260 779//260 780//260
v -0.5000 0.7100 -1.4000
v -0.3622 0.6485 -1.5148
v -0.5100 0.7100 -1.5000
vn 0.3808 0.9239 -0.0381
f 781//261 782//261 783//261
v -0.5000 0.7100 -1.4000
v -0.3522 0.6485 -1.4148
v -0.3622 0.6485 -1.5148
vn 0.3808 0.9239 -0.0381
f 784//262 785//262 786//262
v -0.5000 0.5000 -1.4000
v -0.3522 0.6485 -1.4148
v -0.5000 0.7100 -1.4000
vn 0.0995 -0.0000 0.9950
f 787//263 788//263 789//263
v -0.5100 0.5000 -1.5000
v -0.5100 0.7100 -1.5000
v -0.3622 0.6485 -1.5148
vn -0.0995 0.0000 -0.9950
f 790//264 791//264 792//264
v -0.3522 0.6485 -1.4148
v -0.3010 0.5000 -1.5209
v -0.3622 0.6485 -1.5148
vn 0.9193 0.3827 -0.0919
f 793//265 794//265 795//265
v -0.3522 0.6485 -1.4148
v -0.2910 0.5000 -1.4209
v -0.3010 0.5000 -1.5209
vn 0.9193 0.3827 -0.0919
f 796//266 797//266 798//266
v -0.5000 0.5000 -1.4000
v -0.2910 0.5000 -1.4209
v -0.3522 0.6485 -1.4148
vn 0.0995 0.0000 0.9950
f 799//267 800//267 801//267
v -0.5100 0.5000 -1.5000
v -0.3622 0.6485 -1.5148
v -0.3010 0.5000 -1.5209
vn -0.0995 -0.0000 -0.9950
f 802//268 803//268 804//268
v 0.7090 0.5000 -1.3791
v 0.6578 0.3515 -1.4852
v 0.7190 0.5000 -1.4791
vn 0.9193 -0.3827 0.0919
f 805//269 806//269 807//269
v 0.7090 0.5000 -1.3791
v 0.6478 0.3515 -1.3852
v 0.6578 0.3515 -1.4852
vn 0.9193 -0.3827 0.0919
f 808//270 809//270 810//270
v 0.5000 0.5000 -1.4000
v 0.6478 0.3515 -1.3852
v 0.7090 0.5000 -1.3791
vn -0.0995 0.0000 0.9950
f 811//271 812//271 813//271
v 0.5100 0.5000 -1.5000
v 0.7190 0.5000 -1.4791
v 0.6578 0.3515 -1.4852
vn 0.0995 -0.0000 -0.9950
f 814//272 815//272 816//272
v 0.6478 0.3515 -1.3852
v 0.5100 0.2900 -1.5000
v 0.6578 0.3515 -1.4852
vn 0.3808 -0.9239 0.0381
f 817//273 818//273 819//273
v 0.6478 0.3515 -1.3852
v 0.5000 0.2900 -1.4000
v 0.5100 0.2900 -1.5000
vn 0.3808 -0.9239 0.0381
f 820//274 821//274 822//274
v 0.5000 0.5000 -1.4000
v 0.5000 0.2900 -1.4000
v 0.6478 0.3515 -1.3852
vn -0.0995 0.0000 0.9950
f 823//275 824//275 825//275
v 0.5100 0.5000 -1.5000
v 0.6578 0.3515 -1.4852
v 0.5100 0.2900 -1.5000
vn 0.0995 0.0000 -0.9950
f 826//276 827//276 828//276
v 0.5000 0.2900 -1.4000
v 0.3622 0.3515 -1.5148
v 0.5100 0.2900 -1.5000
vn -0.3808 -0.9239 -0.0381
f 829//277 830//277 831//277
v 0.5000 0.2900 -1.4000
v 0.3522 0.3515 -1.4148
v 0.3622 0.3515 -1.5148
vn -0.3808 -0.9239 -0.0381
f 832//278 833//278 834//278
v 0.5000 0.5000 -1.4000
v 0.3522 0.3515 -1.4148
v 0.5000 0.2900 -1.4000
vn -0.0995 0.0000 0.9950
f 835//279 836//279 837//279
v 0.5100 0.5000 -1.5000
v 0.5100 0.2900 -1.5000
v 0.3622 0.3515 -1.5148
vn 0.0995 0.0000 -0.9950
f 838//280 839//280 840//280
v 0.3522 0.3515 -1.4148
v 0.3010 0.5000 -1.5209
v 0.3622 0.3515 -1.5148
vn -0.9193 -0.3827 -0.0919
f 841//281 842//281 843//281
v 0.3522 0.3515 -1.4148
v 0.2910 0.5000 -1.4209
v 0.3010 0.5000 -1.5209
vn -0.9193 -0.3827 -0.0919
f 844//282 845//282 846//282
v 0.5000 0.5000 -1.4000
v 0.2910 0.5000 -1.4209
v 0.3522 0.3515 -1.4148
vn -0.0995 -0.0000 0.9950
f 847//283 848//283 849//283
v 0.5100 0.5000 -1.5000
v 0.3622 0.3515 -1.5148
v 0.3010 0.5000 -1.5209
vn 0.0995 0.0000 -0.9950
f 850//284 851//284 852//284
v 0.2910 0.5000 -1.4209
v 0.3622 0.6485 -1.5148
v 0.3010 0.5000 -1.5209
vn -0.9193 0.3827 -0.0919
f 853//285 854//285 855//285
v 0.2910 0.5000 -1.4209
v 0.3522 0.6485 -1.4148
v 0.3622 0.6485 -1.5148
vn -0.9193 0.3827 -0.0919
f 856//286 857//286 858//286
v 0.5000 0.5000 -1.4000
v 0.3522 0.6485 -1.4148
v 0.2910 0.5000 -1.4209
vn -0.0995 0.0000 0.9950
f 859//287 860//287 861//287
v 0.5100 0.5000 -1.5000
v 0.3010 0.5000 -1.5209
v 0.3622 0.6485 -1.5148
vn 0.0995 -0.0000 -0.9950
f 862//288 863//288 864//288
v 0.3522 0.6485 -1.4148
v 0.5100 0.7100 -1.5000
v 0.3622 0.6485 -1.5148
vn -0.3808 0.9239 -0.0381
f 865//289 866//289 867//289
v 0.3522 0.6485 -1.4148
v 0.5000 0.7100 -1.4000
v 0.5100 0.7100 -1.5000
vn -0.3808 0.9239 -0.0381
f 868//290 869//290 870//290
v 0.5000 0.5000 -1.4000
v 0.5000 0.7100 -1.4000
v 0.3522 0.6485 -1.4148
vn -0.0995 -0.0000 0.9950
f 871//291 872//291 873//291
v 0.5100 0.5000 -1.5000
v 0.3622 0.6485 -1.5148
v 0.5100 0.7100 -1.5000
vn 0.0995 0.0000 -0.9950
f 874//292 875//292 876//292
v 0.5000 0.7100 -1.4000
v 0.6578 0.6485 -1.4852
v 0.5100 0.7100 -1.5000
vn 0.3808 0.9239 0.0381
f 877//293 878//293 879//293
v 0.5000 0.7100 -1.4000
v 0.6478 0.6485 -1.3852
v 0.6578 0.6485 -1.4852
vn 0.3808 0.9239 0.0381
f 880//294 881//294 882//294
v 0.5000 0.5000 -1.4000
v 0.6478 0.6485 -1.3852
v 0.5000 0.7100 -1.4000
vn -0.0995 -0.0000 0.9950
f 883//295 884//295 885//295
v 0.5100 0.5000 -1.5000
v 0.5100 0.7100 -1.5000
v 0.6578 0.6485 -1.4852
vn 0.0995 0.0000 -0.9950
f 886//296 887//296 888//296
v 0.6478 0.6485 -1.3852
v 0.7190 0.5000 -1.4791
v 0.6578 0.6485 -1.4852
vn 0.9193 0.3827 0.0919
f 889//297 890//297 891//297
v 0.6478 0.6485 -1.3852
v 0.7090 0.5000 -1.3791
v 0.7190 0.5000 -1.4791
vn 0.9193 0.3827 0.0919
f 892//298 893//298 894//298
v 0.5000 0.5000 -1.4000
v 0.7090 0.5000 -1.3791
v 0.6478 0.6485 -1.3852
vn -0.0995 -0.0000 0.9950
f 895//299 896//299 897//299
v 0.5100 0.5000 -1.5000
v 0.6578 0.6485 -1.4852
v 0.7190 0.5000 -1.4791
vn 0.0995 0.0000 -0.9950
f 898//300 899//300 900//300
v 0.0000 0.3000 -0.6700
v -0.0433 2.4000 -0.6250
v 0.0000 2.4000 -0.6500
vn -0.5000 0.0082 -0.8660
f 901//301 902//301 903//301
v 0.0000 0.3000 -0.6700
v -0.0606 0.3000 -0.6350
v -0.0433 2.4000 -0.6250
vn -0.5000 0.0082 -0.8660
f 904//302 905//302 906//302
v 0.0000 0.3000 -0.6000
v -0.0606 0.3000 -0.6350
v 0.0000 0.3000 -0.6700
vn 0.0000 -1.0000 -0.0000
f 907//303 908//303 909//303
v 0.0000 2.4000 -0.6000
v 0.0000 2.4000 -0.6500
v -0.0433 2.4000 -0.6250
vn 0.0000 1.0000 0.0000
f 910//304 911//304 912//304
v -0.0606 0.3000 -0.6350
v -0.0433 2.4000 -0.5750
v -0.0433 2.4000 -0.6250
vn -1.0000 0.0082 -0.0000
f 913//305 914//305 915//305
v -0.0606 0.3000 -0.6350
v -0.0606 0.3000 -0.5650
v -0.0433 2.4000 -0.5750
vn -1.0000 0.0082 -0.0000
f 916//306 917//306 918//306
v 0.0000 0.3000 -0.6000
v -0.0606 0.3000 -0.5650
v -0.0606 0.3000 -0.6350
vn -0.0000 -1.0000 0.0000
f 919//307 920//307 921//307
v 0.0000 2.4000 -0.6000
v -0.0433 2.4000 -0.6250
v -0.0433 2.4000 -0.5750
vn 0.0000 1.0000 0.0000
f 922//308 923//308 924//308
v -0.0606 0.3000 -0.5650
v -0.0000 2.4000 -0.5500
v -0.0433 2.4000 -0.5750
vn -0.5000 0.0082 0.8660
f 925//309 926//309 927//309
v -0.0606 0.3000 -0.5650
v -0.0000 0.3000 -0.5300
v -0.0000 2.4000 -0.5500
vn -0.5000 0.0082 0.8660
f 928//310 929//310 930//310
v 0.0000 0.3000 -0.6000
v -0.0000 0.3000 -0.5300
v -0.0606 0.3000 -0.5650
vn 0.0000 -1.0000 0.0000
f 931//311 932//311 933//311
v 0.0000 2.4000 -0.6000
v -0.0433 2.4000 -0.5750
v -0.0000 2.4000 -0.5500
vn 0.0000 1.0000 0.0000
f 934//312 935//312 936//312
v -0.0000 0.3000 -0.5300
v 0.0433 2.4000 -0.5750
v -0.0000 2.4000 -0.5500
vn 0.5000 0.0082 0.8660
f 937//313 938//313 939//313
v -0.0000 0.3000 -0.5300
v 0.0606 0.3000 -0.5650
v 0.0433 2.4000 -0.5750
vn 0.5000 0.0082 0.8660
f 940//314 941//314 942//314
v 0.0000 0.3000 -0.6000
v 0.0606 0.3000 -0.5650
v -0.0000 0.3000 -0.5300
vn 0.0000 -1.0000 0.0000
f 943//315 944//315 945//315
v 0.0000 2.4000 -0.6000
v -0.0000 2.4000 -0.5500
v 0.0433 2.4000 -0.5750
vn 0.0000 1.0000 -0.0000
f 946//316 947//316 948//316
v 0.0606 0.3000 -0.5650
v 0.0433 2.4000 -0.6250
v 0.0433 2.4000 -0.5750
vn 1.0000 0.0082 0.0000
f 949//317 950//317 951//317
v 0.0606 0.3000 -0.5650
v 0.0606 0.3000 -0.6350
v 0.0433 2.4000 -0.6250
vn 1.0000 0.0082 0.0000
f 952//318 953//318 954//318
v 0.0000 0.3000 -0.6000
v 0.0606 0.3000 -0.6350
v 0.0606 0.3000 -0.5650
vn 0.0000 -1.0000 0.0000
f 955//319 956//319 957//319
v 0.0000 2.4000 -0.6000
v 0.0433 2.4000 -0.5750
v 0.0433 2.4000 -0.6250
vn -0.0000 1.0000 0.0000
f 958//320 959//320 960//320
v 0.0606 0.3000 -0.6350
v 0.0000 2.4000 -0.6500
v 0.0433 2.4000 -0.6250
vn 0.5000 0.0082 -0.8660
f 961//321 962//321 963//321
v 0.0606 0.3000 -0.6350
v 0.0000 0.3000 -0.6700
v 0.0000 2.4000 -0.6500
vn 0.5000 0.0082 -0.8660
f 964//322 965//322 966//322
v 0.0000 0.3000 -0.6000
v 0.0000 0.3000 -0.6700
v 0.0606 0.3000 -0.6350
vn 0.0000 -1.0000 0.0000
f 967//323 968//323 969//323
v 0.0000 2.4000 -0.6000
v 0.0433 2.4000 -0.6250
v 0.0000 2.4000 -0.6500
vn 0.0000 1.0000 0.0000
f 970//324 971//324 972//324
v 0.0000 0.3000 1.0300
v -0.0433 1.8000 1.0750
v 0.0000 1.8000 1.0500
vn -0.5000 0.0115 -0.8660
f 973//325 974//325 975//325
v 0.0000 0.3000 1.0300
v -0.0606 0.3000 1.0650
v -0.0433 1.8000 1.0750
vn -0.5000 0.0115 -0.8660
f 976//326 977//326 978//326
v 0.0000 0.3000 1.1000
v -0.0606 0.3000 1.0650
v 0.0000 0.3000 1.0300
vn 0.0000 -1.0000 -0.0000
f 979//327 980//327 981//327
v 0.0000 1.8000 1.1000
v 0.0000 1.8000 1.0500
v -0.0433 1.8000 1.0750
vn 0.0000 1.0000 0.0000
f 982//328 983//328 984//328
v -0.0606 0.3000 1.0650
v -0.0433 1.8000 1.1250
v -0.0433 1.8000 1.0750
vn -0.9999 0.0115 -0.0000
f 985//329 986//329 987//329
v -0.0606 0.3000 1.0650
v -0.0606 0.3000 1.1350
v -0.0433 1.8000 1.1250
vn -0.9999 0.0115 -0.0000
f 988//330 989//330 990//330
v 0.0000 0.3000 1.1000
v -0.0606 0.3000 1.1350
v -0.0606 0.3000 1.0650
vn -0.0000 -1.0000 0.0000
f 991//331 992//331 993//331
v 0.0000 1.8000 1.1000
v -0.0433 1.8000 1.0750
v -0.0433 1.8000 1.1250
vn 0.0000 1.0000 0.0000
f 994//332 995//332 996//332
v -0.0606 0.3000 1.1350
v -0.0000 1.8000 1.1500
v -0.0433 1.8000 1.1250
vn -0.5000 0.0115 0.8660
f 997//333 998//333 999//333
v -0.0606 0.3000 1.1350
v -0.0000 0.3000 1.1700
v -0.0000 1.8000 1.1500
vn -0.5000 0.0115 0.8660
f 1000//334 1001//334 1002//334
v 0.0000 0.3000 1.1000
v -0.0000 0.3000 1.1700
v -0.0606 0.3000 1.1350
vn 0.0000 -1.0000 0.0000
f 1003//335 1004//335 1005//335
v 0.0000 1.8000 1.1000
v -0.0433 1.8000 1.1250
v -0.0000 1.8000 1.1500
vn 0.0000 1.0000 0.0000
f 1006//336 1007//336 1008//336
v -0.0000 0.3000 1.1700
v 0.0433 1.8000 1.1250
v -0.0000 1.8000 1.1500
vn 0.5000 0.0115 0.8660
f 1009//337 1010//337 1011//337
v -0.0000 0.3000 1.1700
v 0.0606 0.3000 1.1350
v 0.0433 1.8000 1.1250
vn 0.5000 0.0115 0.8660
f 1012//338 1013//338 1014//338
v 0.0000 0.3000 1.1000
v 0.0606 0.3000 1.1350
v -0.0000 0.3000 1.1700
vn 0.0000 -1.0000 0.0000
f 1015//339 1016//339 1017//339
v 0.0000 1.8000 1.1000
v -0.0000 1.8000 1.1500
v 0.0433 1.8000 1.1250
vn 0.0000 1.0000 -0.0000
f 1018//340 1019//340 1020//340
v 0.0606 0.3000 1.1350
v 0.0433 1.8000 1.0750
v 0.0433 1.8000 1.1250
vn 0.9999 0.0115 0.0000
f 1021//341 1022//341 1023//341
v 0.0606 0.3000 1.1350
v 0.0606 0.3000 1.0650
v 0.0433 1.8000 1.0750
vn 0.9999 0.0115 0.0000
f 1024//342 1025//342 1026//342
v 0.0000 0.3000 1.1000
v 0.0606 0.3000 1.0650
v 0.0606 0.3000 1.1350
vn 0.0000 -1.0000 0.0000
f 1027//343 1028//343 1029//343
v 0.0000 1.8000 1.1000
v 0.0433 1.8000 1.1250
v 0.0433 1.8000 1.0750
vn -0.0000 1.0000 0.0000
f 1030//344 1031//344 1032//344
v 0.0606 0.3000 1.0650
v 0.0000 1.8000 1.0500
v 0.0433 1.8000 1.0750
vn 0.5000 0.0115 -0.8660
f 1033//345 1034//345 1035//345
v 0.0606 0.3000 1.0650
v 0.0000 0.3000 1.0300
v 0.0000 1.8000 1.0500
vn 0.5000 0.0115 -0.8660
f 1036//346 1037//346 1038//346
v 0.0000 0.3000 1.1000
v 0.0000 0.3000 1.0300
v 0.0606 0.3000 1.0650
vn 0.0000 -1.0000 0.0000
f 1039//347 1040//347 1041//347
v 0.0000 1.8000 1.1000
v 0.0433 1.8000 1.0750
v 0.0000 1.8000 1.0500
vn 0.0000 1.0000 0.0000
f 1042//348 1043//348 1044//348
o sail
usemtl sail
s off
v 0.0000 2.4000 -0.5500
v 0.0000 0.7000 0.6000
v 0.0000 0.6000 -0.5500
vn 1.0000 0.0000 0.0000
f 1045//349 1046//349 1047//349
v 0.0000 1.8000 1.1500
v 0.0000 0.7000 2.3000
v 0.0000 0.6000 1.1500
vn 1.0000 0.0000 0.0000
f 1048//350 1049//350 1050//350
