# wreck: generated by tools/make_models.py (placeholder)
o dark
usemtl dark
s off
v -0.0000 0.2626 -7.5000
v -0.0650 0.2387 -7.5000
v -0.0750 0.8000 -7.5000
vn -0.0000 0.0000 -1.0000
f 1//1 2//1 3//1
v -0.0000 0.2626 -7.5000
v -0.0375 -0.0475 -7.5000
v -0.0650 0.2387 -7.5000
vn 0.0000 0.0000 -1.0000
f 4//2 5//2 6//2
v -0.0000 0.2626 -7.5000
v 0.0000 -0.1440 -7.5000
v -0.0375 -0.0475 -7.5000
vn 0.0000 -0.0000 -1.0000
f 7//3 8//3 9//3
v -0.0000 0.2626 -7.5000
v 0.0375 -0.0475 -7.5000
v 0.0000 -0.1440 -7.5000
vn 0.0000 0.0000 -1.0000
f 10//4 11//4 12//4
v -0.0000 0.2626 -7.5000
v 0.0650 0.2387 -7.5000
v 0.0375 -0.0475 -7.5000
vn 0.0000 0.0000 -1.0000
f 13//5 14//5 15//5
v -0.0000 0.2626 -7.5000
v 0.0750 0.8000 -7.5000
v 0.0650 0.2387 -7.5000
vn 0.0000 0.0000 -1.0000
f 16//6 17//6 18//6
v -0.0000 0.2626 -7.5000
v -0.0750 0.8000 -7.5000
v 0.0750 0.8000 -7.5000
vn 0.0000 0.0000 -1.0000
f 19//7 20//7 21//7
v -0.0000 -0.7799 1.9286
v -2.4625 0.5682 1.8000
v -2.1326 -0.8399 2.1500
vn 0.0924 0.2605 0.9610
f 22//8 23//8 24//8
v -0.0000 -0.7799 1.9286
v -2.1326 -0.8399 2.1500
v -1.2312 -1.5578 1.6000
vn 0.1027 -0.5205 0.8477
f 25//9 26//9 27//9
v -0.0000 -0.7799 1.9286
v -1.2312 -1.5578 1.6000
v 0.0000 -1.8000 2.2500
vn -0.4061 0.2746 0.8716
f 28//10 29//10 30//10
v -0.0000 -0.7799 1.9286
v 0.0000 -1.8000 2.2500
v 1.2312 -1.5578 1.7000
vn 0.3445 0.2821 0.8954
f 31//11 32//11 33//11
v -0.0000 -0.7799 1.9286
v 1.2312 -1.5578 1.7000
v 2.1326 -0.8399 2.1000
vn -0.0846 -0.4018 0.9118
f 34//12 35//12 36//12
v -0.0000 -0.7799 1.9286
v 2.1326 -0.8399 2.1000
v 2.4625 0.5682 1.9000
vn -0.0747 0.1574 0.9847
f 37//13 38//13 39//13
v -0.0000 -0.7799 1.9286
v 2.4625 0.5682 1.9000
v -2.4625 0.5682 1.8000
vn -0.0203 0.0582 0.9981
f 40//14 41//14 42//14
v -1.7191 -0.5000 1.5853
v -1.7655 0.9605 2.9449
v -1.8196 1.0000 2.8927
vn -0.7684 -0.4489 0.4561
f 43//15 44//15 45//15
v -1.7191 -0.5000 1.5853
v -1.6110 -0.5789 1.6897
v -1.7655 0.9605 2.9449
vn -0.7684 -0.4489 0.4561
f 46//16 47//16 48//16
v -1.6000 -0.5000 1.6000
v -1.6110 -0.5789 1.6897
v -1.7191 -0.5000 1.5853
vn 0.0803 -0.7532 -0.6528
f 49//17 50//17 51//17
v -1.7600 1.0000 2.9000
v -1.8196 1.0000 2.8927
v -1.7655 0.9605 2.9449
vn -0.0803 0.7532 0.6528
f 52//18 53//18 54//18
v -1.6110 -0.5789 1.6897
v -1.7004 1.0000 2.9073
v -1.7655 0.9605 2.9449
vn 0.6349 -0.4489 0.6288
f 55//19 56//19 57//19
v -1.6110 -0.5789 1.6897
v -1.4809 -0.5000 1.6147
v -1.7004 1.0000 2.9073
vn 0.6349 -0.4489 0.6288
f 58//20 59//20 60//20
v -1.6000 -0.5000 1.6000
v -1.4809 -0.5000 1.6147
v -1.6110 -0.5789 1.6897
vn 0.0803 -0.7532 -0.6528
f 61//21 62//21 63//21
v -1.7600 1.0000 2.9000
v -1.7655 0.9605 2.9449
v -1.7004 1.0000 2.9073
vn -0.0803 0.7532 0.6528
f 64//22 65//22 66//22
v -1.4809 -0.5000 1.6147
v -1.7545 1.0395 2.8551
v -1.7004 1.0000 2.9073
vn 0.7650 0.4810 -0.4283
f 67//23 68//23 69//23
v -1.4809 -0.5000 1.6147
v -1.5890 -0.4211 1.5103
v -1.7545 1.0395 2.8551
vn 0.7650 0.4810 -0.4283
f 70//24 71//24 72//24
v -1.6000 -0.5000 1.6000
v -1.5890 -0.4211 1.5103
v -1.4809 -0.5000 1.6147
vn 0.0803 -0.7532 -0.6528
f 73//25 74//25 75//25
v -1.7600 1.0000 2.9000
v -1.7004 1.0000 2.9073
v -1.7545 1.0395 2.8551
vn -0.0803 0.7532 0.6528
f 76//26 77//26 78//26
v -1.5890 -0.4211 1.5103
v -1.8196 1.0000 2.8927
v -1.7545 1.0395 2.8551
vn -0.6383 0.4810 -0.6010
f 79//27 80//27 81//27
v -1.5890 -0.4211 1.5103
v -1.7191 -0.5000 1.5853
v -1.8196 1.0000 2.8927
vn -0.6383 0.4810 -0.6010
f 82//28 83//28 84//28
v -1.6000 -0.5000 1.6000
v -1.7191 -0.5000 1.5853
v -1.5890 -0.4211 1.5103
vn 0.0803 -0.7532 -0.6528
f 85//29 86//29 87//29
v -1.7600 1.0000 2.9000
v -1.7545 1.0395 2.8551
v -1.8196 1.0000 2.8927
vn -0.0803 0.7532 0.6528
f 88//30 89//30 90//30
v -0.7199 -0.5000 1.5945
v -0.6621 0.9607 2.9453
v -0.7199 1.0000 2.8972
vn -0.7315 -0.4471 0.5148
f 91//31 92//31 93//31
v -0.7199 -0.5000 1.5945
v -0.6042 -0.5786 1.6905
v -0.6621 0.9607 2.9453
vn -0.7315 -0.4471 0.5148
f 94//32 95//32 96//32
v -0.6000 -0.5000 1.6000
v -0.6042 -0.5786 1.6905
v -0.7199 -0.5000 1.5945
vn 0.0302 -0.7553 -0.6546
f 97//33 98//33 99//33
v -0.6600 1.0000 2.9000
v -0.7199 1.0000 2.8972
v -0.6621 0.9607 2.9453
vn -0.0302 0.7553 0.6546
f 100//34 101//34 102//34
v -0.6042 -0.5786 1.6905
v -0.6001 1.0000 2.9028
v -0.6621 0.9607 2.9453
vn 0.6809 -0.4471 0.5800
f 103//35 104//35 105//35
v -0.6042 -0.5786 1.6905
v -0.4801 -0.5000 1.6055
v -0.6001 1.0000 2.9028
vn 0.6809 -0.4471 0.5800
f 106//36 107//36 108//36
v -0.6000 -0.5000 1.6000
v -0.4801 -0.5000 1.6055
v -0.6042 -0.5786 1.6905
vn 0.0302 -0.7553 -0.6546
f 109//37 110//37 111//37
v -0.6600 1.0000 2.9000
v -0.6621 0.9607 2.9453
v -0.6001 1.0000 2.9028
vn -0.0302 0.7553 0.6546
f 112//38 113//38 114//38
v -0.4801 -0.5000 1.6055
v -0.6579 1.0393 2.8547
v -0.6001 1.0000 2.9028
vn 0.7302 0.4794 -0.4868
f 115//39 116//39 117//39
v -0.4801 -0.5000 1.6055
v -0.5958 -0.4214 1.5095
v -0.6579 1.0393 2.8547
vn 0.7302 0.4794 -0.4868
f 118//40 119//40 120//40
v -0.6000 -0.5000 1.6000
v -0.5958 -0.4214 1.5095
v -0.4801 -0.5000 1.6055
vn 0.0302 -0.7553 -0.6546
f 121//41 122//41 123//41
v -0.6600 1.0000 2.9000
v -0.6001 1.0000 2.9028
v -0.6579 1.0393 2.8547
vn -0.0302 0.7553 0.6546
f 124//42 125//42 126//42
v -0.5958 -0.4214 1.5095
v -0.7199 1.0000 2.8972
v -0.6579 1.0393 2.8547
vn -0.6822 0.4794 -0.5520
f 127//43 128//43 129//43
v -0.5958 -0.4214 1.5095
v -0.7199 -0.5000 1.5945
v -0.7199 1.0000 2.8972
vn -0.6822 0.4794 -0.5520
f 130//44 131//44 132//44
v -0.6000 -0.5000 1.6000
v -0.7199 -0.5000 1.5945
v -0.5958 -0.4214 1.5095
vn 0.0302 -0.7553 -0.6546
f 133//45 134//45 135//45
v -0.6600 1.0000 2.9000
v -0.6579 1.0393 2.8547
v -0.7199 1.0000 2.8972
vn -0.0302 0.7553 0.6546
f 136//46 137//46 138//46
v 0.4801 -0.5000 1.6055
v 0.6621 0.9607 2.9453
v 0.6001 1.0000 2.9028
vn -0.6809 -0.4471 0.5800
f 139//47 140//47 141//47
v 0.4801 -0.5000 1.6055
v 0.6042 -0.5786 1.6905
v 0.6621 0.9607 2.9453
vn -0.6809 -0.4471 0.5800
f 142//48 143//48 144//48
v 0.6000 -0.5000 1.6000
v 0.6042 -0.5786 1.6905
v 0.4801 -0.5000 1.6055
vn -0.0302 -0.7553 -0.6546
f 145//49 146//49 147//49
v 0.6600 1.0000 2.9000
v 0.6001 1.0000 2.9028
v 0.6621 0.9607 2.9453
vn 0.0302 0.7553 0.6546
f 148//50 149//50 150//50
v 0.6042 -0.5786 1.6905
v 0.7199 1.0000 2.8972
v 0.6621 0.9607 2.9453
vn 0.7315 -0.4471 0.5148
f 151//51 152//51 153//51
v 0.6042 -0.5786 1.6905
v 0.7199 -0.5000 1.5945
v 0.7199 1.0000 2.8972
vn 0.7315 -0.4471 0.5148
f 154//52 155//52 156//52
v 0.6000 -0.5000 1.6000
v 0.7199 -0.5000 1.5945
v 0.6042 -0.5786 1.6905
vn -0.0302 -0.7553 -0.6546
f 157//53 158//53 159//53
v 0.6600 1.0000 2.9000
v 0.6621 0.9607 2.9453
v 0.7199 1.0000 2.8972
vn 0.0302 0.7553 0.6546
f 160//54 161//54 162//54
v 0.7199 -0.5000 1.5945
v 0.6579 1.0393 2.8547
v 0.7199 1.0000 2.8972
vn 0.6822 0.4794 -0.5520
f 163//55 164//55 165//55
v 0.7199 -0.5000 1.5945
v 0.5958 -0.4214 1.5095
v 0.6579 1.0393 2.8547
vn 0.6822 0.4794 -0.5520
f 166//56 167//56 168//56
v 0.6000 -0.5000 1.6000
v 0.5958 -0.4214 1.5095
v 0.7199 -0.5000 1.5945
vn -0.0302 -0.7553 -0.6546
f 169//57 170//57 171//57
v 0.6600 1.0000 2.9000
v 0.7199 1.0000 2.8972
v 0.6579 1.0393 2.8547
vn 0.0302 0.7553 0.6546
f 172//58 173//58 174//58
v 0.5958 -0.4214 1.5095
v 0.6001 1.0000 2.9028
v 0.6579 1.0393 2.8547
vn -0.7302 0.4794 -0.4868
f 175//59 176//59 177//59
v 0.5958 -0.4214 1.5095
v 0.4801 -0.5000 1.6055
v 0.6001 1.0000 2.9028
vn -0.7302 0.4794 -0.4868
f 178//60 179//60 180//60
v 0.6000 -0.5000 1.6000
v 0.4801 -0.5000 1.6055
v 0.5958 -0.4214 1.5095
vn -0.0302 -0.7553 -0.6546
f 181//61 182//61 183//61
v 0.6600 1.0000 2.9000
v 0.6579 1.0393 2.8547
v 0.6001 1.0000 2.9028
vn 0.0302 0.7553 0.6546
f 184//62 185//62 186//62
v 1.4809 -0.5000 1.6147
v 1.7655 0.9605 2.9449
v 1.7004 1.0000 2.9073
vn -0.6349 -0.4489 0.6288
f 187//63 188//63 189//63
v 1.4809 -0.5000 1.6147
v 1.6110 -0.5789 1.6897
v 1.7655 0.9605 2.9449
vn -0.6349 -0.4489 0.6288
f 190//64 191//64 192//64
v 1.6000 -0.5000 1.6000
v 1.6110 -0.5789 1.6897
v 1.4809 -0.5000 1.6147
vn -0.0803 -0.7532 -0.6528
f 193//65 194//65 195//65
v 1.7600 1.0000 2.9000
v 1.7004 1.0000 2.9073
v 1.7655 0.9605 2.9449
vn 0.0803 0.7532 0.6528
f 196//66 197//66 198//66
v 1.6110 -0.5789 1.6897
v 1.8196 1.0000 2.8927
v 1.7655 0.9605 2.9449
vn 0.7684 -0.4489 0.4561
f 199//67 200//67 201//67
v 1.6110 -0.5789 1.6897
v 1.7191 -0.5000 1.5853
v 1.8196 1.0000 2.8927
vn 0.7684 -0.4489 0.4561
f 202//68 203//68 204//68
v 1.6000 -0.5000 1.6000
v 1.7191 -0.5000 1.5853
v 1.6110 -0.5789 1.6897
vn -0.0803 -0.7532 -0.6528
f 205//69 206//69 207//69
v 1.7600 1.0000 2.9000
v 1.7655 0.9605 2.9449
v 1.8196 1.0000 2.8927
vn 0.0803 0.7532 0.6528
f 208//70 209//70 210//70
v 1.7191 -0.5000 1.5853
v 1.7545 1.0395 2.8551
v 1.8196 1.0000 2.8927
vn 0.6383 0.4810 -0.6010
f 211//71 212//71 213//71
v 1.7191 -0.5000 1.5853
v 1.5890 -0.4211 1.5103
v 1.7545 1.0395 2.8551
vn 0.6383 0.4810 -0.6010
f 214//72 215//72 216//72
v 1.6000 -0.5000 1.6000
v 1.5890 -0.4211 1.5103
v 1.7191 -0.5000 1.5853
vn -0.0803 -0.7532 -0.6528
f 217//73 218//73 219//73
v 1.7600 1.0000 2.9000
v 1.8196 1.0000 2.8927
v 1.7545 1.0395 2.8551
vn 0.0803 0.7532 0.6528
f 220//74 221//74 222//74
v 1.5890 -0.4211 1.5103
v 1.7004 1.0000 2.9073
v 1.7545 1.0395 2.8551
vn -0.7650 0.4810 -0.4283
f 223//75 224//75 225//75
v 1.5890 -0.4211 1.5103
v 1.4809 -0.5000 1.6147
v 1.7004 1.0000 2.9073
vn -0.7650 0.4810 -0.4283
f 226//76 227//76 228//76
v 1.6000 -0.5000 1.6000
v 1.4809 -0.5000 1.6147
v 1.5890 -0.4211 1.5103
vn -0.0803 -0.7532 -0.6528
f 229//77 230//77 231//77
v 1.7600 1.0000 2.9000
v 1.7545 1.0395 2.8551
v 1.7004 1.0000 2.9073
vn 0.0803 0.7532 0.6528
f 232//78 233//78 234//78
v 1.9120 0.7000 -3.4671
v 3.3974 0.3656 -4.0450
v 3.4155 0.4000 -4.0143
vn 0.1194 -0.6950 0.7090
f 235//79 236//79 237//79
v 1.9120 0.7000 -3.4671
v 1.8939 0.6656 -3.4978
v 3.3974 0.3656 -4.0450
vn 0.1194 -0.6950 0.7090
f 238//80 239//80 240//80
v 1.9000 0.7000 -3.5000
v 1.8939 0.6656 -3.4978
v 1.9120 0.7000 -3.4671
vn -0.9236 0.1843 0.3362
f 241//81 242//81 243//81
v 3.4035 0.4000 -4.0472
v 3.4155 0.4000 -4.0143
v 3.3974 0.3656 -4.0450
vn 0.9236 -0.1843 -0.3362
f 244//82 245//82 246//82
v 1.8939 0.6656 -3.4978
v 3.3915 0.4000 -4.0801
v 3.3974 0.3656 -4.0450
vn -0.3643 -0.6950 -0.6199
f 247//83 248//83 249//83
v 1.8939 0.6656 -3.4978
v 1.8880 0.7000 -3.5329
v 3.3915 0.4000 -4.0801
vn -0.3643 -0.6950 -0.6199
f 250//84 251//84 252//84
v 1.9000 0.7000 -3.5000
v 1.8880 0.7000 -3.5329
v 1.8939 0.6656 -3.4978
vn -0.9236 0.1843 0.3362
f 253//85 254//85 255//85
v 3.4035 0.4000 -4.0472
v 3.3974 0.3656 -4.0450
v 3.3915 0.4000 -4.0801
vn 0.9236 -0.1843 -0.3362
f 256//86 257//86 258//86
v 1.8880 0.7000 -3.5329
v 3.4096 0.4344 -4.0494
v 3.3915 0.4000 -4.0801
vn -0.1194 0.6950 -0.7090
f 259//87 260//87 261//87
v 1.8880 0.7000 -3.5329
v 1.9061 0.7344 -3.5022
v 3.4096 0.4344 -4.0494
vn -0.1194 0.6950 -0.7090
f 262//88 263//88 264//88
v 1.9000 0.7000 -3.5000
v 1.9061 0.7344 -3.5022
v 1.8880 0.7000 -3.5329
vn -0.9236 0.1843 0.3362
f 265//89 266//89 267//89
v 3.4035 0.4000 -4.0472
v 3.3915 0.4000 -4.0801
v 3.4096 0.4344 -4.0494
vn 0.9236 -0.1843 -0.3362
f 268//90 269//90 270//90
v 1.9061 0.7344 -3.5022
v 3.4155 0.4000 -4.0143
v 3.4096 0.4344 -4.0494
vn 0.3643 0.6950 0.6199
f 271//91 272//91 273//91
v 1.9061 0.7344 -3.5022
v 1.9120 0.7000 -3.4671
v 3.4155 0.4000 -4.0143
vn 0.3643 0.6950 0.6199
f 274//92 275//92 276//92
v 1.9000 0.7000 -3.5000
v 1.9120 0.7000 -3.4671
v 1.9061 0.7344 -3.5022
vn -0.9236 0.1843 0.3362
f 277//93 278//93 279//93
v 3.4035 0.4000 -4.0472
v 3.4096 0.4344 -4.0494
v 3.4155 0.4000 -4.0143
vn 0.9236 -0.1843 -0.3362
f 280//94 281//94 282//94
v 3.4155 0.4000 -4.0143
v 4.8909 -0.5305 -4.5886
v 4.9190 -0.5000 -4.5616
vn -0.0839 -0.6163 0.7830
f 283//95 284//95 285//95
v 3.4155 0.4000 -4.0143
v 3.3874 0.3695 -4.0414
v 4.8909 -0.5305 -4.5886
vn -0.0839 -0.6163 0.7830
f 286//96 287//96 288//96
v 3.4035 0.4000 -4.0472
v 3.3874 0.3695 -4.0414
v 3.4155 0.4000 -4.0143
vn -0.8190 0.4903 0.2981
f 289//97 290//97 291//97
v 4.9070 -0.5000 -4.5945
v 4.9190 -0.5000 -4.5616
v 4.8909 -0.5305 -4.5886
vn 0.8190 -0.4903 -0.2981
f 292//98 293//98 294//98
v 3.3874 0.3695 -4.0414
v 4.8950 -0.5000 -4.6274
v 4.8909 -0.5305 -4.5886
vn -0.5676 -0.6163 -0.5459
f 295//99 296//99 297//99
v 3.3874 0.3695 -4.0414
v 3.3915 0.4000 -4.0801
v 4.8950 -0.5000 -4.6274
vn -0.5676 -0.6163 -0.5459
f 298//100 299//100 300//100
v 3.4035 0.4000 -4.0472
v 3.3915 0.4000 -4.0801
v 3.3874 0.3695 -4.0414
vn -0.8190 0.4903 0.2981
f 301//101 302//101 303//101
v 4.9070 -0.5000 -4.5945
v 4.8909 -0.5305 -4.5886
v 4.8950 -0.5000 -4.6274
vn 0.8190 -0.4903 -0.2981
f 304//102 305//102 306//102
v 3.3915 0.4000 -4.0801
v 4.9231 -0.4695 -4.6003
v 4.8950 -0.5000 -4.6274
vn 0.0839 0.6163 -0.7830
f 307//103 308//103 309//103
v 3.3915 0.4000 -4.0801
v 3.4196 0.4305 -4.0531
v 4.9231 -0.4695 -4.6003
vn 0.0839 0.6163 -0.7830
f 310//104 311//104 312//104
v 3.4035 0.4000 -4.0472
v 3.4196 0.4305 -4.0531
v 3.3915 0.4000 -4.0801
vn -0.8190 0.4903 0.2981
f 313//105 314//105 315//105
v 4.9070 -0.5000 -4.5945
v 4.8950 -0.5000 -4.6274
v 4.9231 -0.4695 -4.6003
vn 0.8190 -0.4903 -0.2981
f 316//106 317//106 318//106
v 3.4196 0.4305 -4.0531
v 4.9190 -0.5000 -4.5616
v 4.9231 -0.4695 -4.6003
vn 0.5676 0.6163 0.5459
f 319//107 320//107 321//107
v 3.4196 0.4305 -4.0531
v 3.4155 0.4000 -4.0143
v 4.9190 -0.5000 -4.5616
vn 0.5676 0.6163 0.5459
f 322//108 323//108 324//108
v 3.4035 0.4000 -4.0472
v 3.4155 0.4000 -4.0143
v 3.4196 0.4305 -4.0531
vn -0.8190 0.4903 0.2981
f 325//109 326//109 327//109
v 4.9070 -0.5000 -4.5945
v 4.9231 -0.4695 -4.6003
v 4.9190 -0.5000 -4.5616
vn 0.8190 -0.4903 -0.2981
f 328//110 329//110 330//110
v 1.8969 0.7000 -3.4651
v 3.4875 0.3656 -3.3611
v 3.4909 0.4000 -3.3257
vn -0.1914 -0.6950 0.6931
f 331//111 332//111 333//111
v 1.8969 0.7000 -3.4651
v 1.8936 0.6656 -3.5006
v 3.4875 0.3656 -3.3611
vn -0.1914 -0.6950 0.6931
f 334//112 335//112 336//112
v 1.9000 0.7000 -3.5000
v 1.8936 0.6656 -3.5006
v 1.8969 0.7000 -3.4651
vn -0.9791 0.1843 -0.0857
f 337//113 338//113 339//113
v 3.4939 0.4000 -3.3606
v 3.4909 0.4000 -3.3257
v 3.4875 0.3656 -3.3611
vn 0.9791 -0.1843 0.0857
f 340//114 341//114 342//114
v 1.8936 0.6656 -3.5006
v 3.4970 0.4000 -3.3954
v 3.4875 0.3656 -3.3611
vn -0.0682 -0.6950 -0.7158
f 343//115 344//115 345//115
v 1.8936 0.6656 -3.5006
v 1.9031 0.7000 -3.5349
v 3.4970 0.4000 -3.3954
vn -0.0682 -0.6950 -0.7158
f 346//116 347//116 348//116
v 1.9000 0.7000 -3.5000
v 1.9031 0.7000 -3.5349
v 1.8936 0.6656 -3.5006
vn -0.9791 0.1843 -0.0857
f 349//117 350//117 351//117
v 3.4939 0.4000 -3.3606
v 3.4875 0.3656 -3.3611
v 3.4970 0.4000 -3.3954
vn 0.9791 -0.1843 0.0857
f 352//118 353//118 354//118
v 1.9031 0.7000 -3.5349
v 3.5003 0.4344 -3.3600
v 3.4970 0.4000 -3.3954
vn 0.1914 0.6950 -0.6931
f 355//119 356//119 357//119
v 1.9031 0.7000 -3.5349
v 1.9064 0.7344 -3.4994
v 3.5003 0.4344 -3.3600
vn 0.1914 0.6950 -0.6931
f 358//120 359//120 360//120
v 1.9000 0.7000 -3.5000
v 1.9064 0.7344 -3.4994
v 1.9031 0.7000 -3.5349
vn -0.9791 0.1843 -0.0857
f 361//121 362//121 363//121
v 3.4939 0.4000 -3.3606
v 3.4970 0.4000 -3.3954
v 3.5003 0.4344 -3.3600
vn 0.9791 -0.1843 0.0857
f 364//122 365//122 366//122
v 1.9064 0.7344 -3.4994
v 3.4909 0.4000 -3.3257
v 3.5003 0.4344 -3.3600
vn 0.0682 0.6950 0.7158
f 367//123 368//123 369//123
v 1.9064 0.7344 -3.4994
v 1.8969 0.7000 -3.4651
v 3.4909 0.4000 -3.3257
vn 0.0682 0.6950 0.7158
f 370//124 371//124 372//124
v 1.9000 0.7000 -3.5000
v 1.8969 0.7000 -3.4651
v 1.9064 0.7344 -3.4994
vn -0.9791 0.1843 -0.0857
f 373//125 374//125 375//125
v 3.4939 0.4000 -3.3606
v 3.5003 0.4344 -3.3600
v 3.4909 0.4000 -3.3257
vn 0.9791 -0.1843 0.0857
f 376//126 377//126 378//126
v 3.4909 0.4000 -3.3257
v 5.0707 -0.5305 -3.2226
v 5.0848 -0.5000 -3.1862
vn -0.4070 -0.6163 0.6742
f 379//127 380//127 381//127
v 3.4909 0.4000 -3.3257
v 3.4768 0.3695 -3.3620
v 5.0707 -0.5305 -3.2226
vn -0.4070 -0.6163 0.6742
f 382//128 383//128 384//128
v 3.4939 0.4000 -3.3606
v 3.4768 0.3695 -3.3620
v 3.4909 0.4000 -3.3257
vn -0.8683 0.4903 -0.0760
f 385//129 386//129 387//129
v 5.0878 -0.5000 -3.2211
v 5.0848 -0.5000 -3.1862
v 5.0707 -0.5305 -3.2226
vn 0.8683 -0.4903 0.0760
f 388//130 389//130 390//130
v 3.4768 0.3695 -3.3620
v 5.0909 -0.5000 -3.2560
v 5.0707 -0.5305 -3.2226
vn -0.2837 -0.6163 -0.7346
f 391//131 392//131 393//131
v 3.4768 0.3695 -3.3620
v 3.4970 0.4000 -3.3954
v 5.0909 -0.5000 -3.2560
vn -0.2837 -0.6163 -0.7346
f 394//132 395//132 396//132
v 3.4939 0.4000 -3.3606
v 3.4970 0.4000 -3.3954
v 3.4768 0.3695 -3.3620
vn -0.8683 0.4903 -0.0760
f 397//133 398//133 399//133
v 5.0878 -0.5000 -3.2211
v 5.0707 -0.5305 -3.2226
v 5.0909 -0.5000 -3.2560
vn 0.8683 -0.4903 0.0760
f 400//134 401//134 402//134
v 3.4970 0.4000 -3.3954
v 5.1049 -0.4695 -3.2196
v 5.0909 -0.5000 -3.2560
vn 0.4070 0.6163 -0.6742
f 403//135 404//135 405//135
v 3.4970 0.4000 -3.3954
v 3.5110 0.4305 -3.3591
v 5.1049 -0.4695 -3.2196
vn 0.4070 0.6163 -0.6742
f 406//136 407//136 408//136
v 3.4939 0.4000 -3.3606
v 3.5110 0.4305 -3.3591
v 3.4970 0.4000 -3.3954
vn -0.8683 0.4903 -0.0760
f 409//137 410//137 411//137
v 5.0878 -0.5000 -3.2211
v 5.0909 -0.5000 -3.2560
v 5.1049 -0.4695 -3.2196
vn 0.8683 -0.4903 0.0760
f 412//138 413//138 414//138
v 3.5110 0.4305 -3.3591
v 5.0848 -0.5000 -3.1862
v 5.1049 -0.4695 -3.2196
vn 0.2837 0.6163 0.7346
f 415//139 416//139 417//139
v 3.5110 0.4305 -3.3591
v 3.4909 0.4000 -3.3257
v 5.0848 -0.5000 -3.1862
vn 0.2837 0.6163 0.7346
f 418//140 419//140 420//140
v 3.4939 0.4000 -3.3606
v 3.4909 0.4000 -3.3257
v 3.5110 0.4305 -3.3591
vn -0.8683 0.4903 -0.0760
f 421//141 422//141 423//141
v 5.0878 -0.5000 -3.2211
v 5.1049 -0.4695 -3.2196
v 5.0848 -0.5000 -3.1862
vn 0.8683 -0.4903 0.0760
f 424//142 425//142 426//142
v 1.8852 0.7000 -3.4683
v 3.3442 0.3656 -2.8265
v 3.3353 0.4000 -2.7921
vn -0.4169 -0.6950 0.5858
f 427//143 428//143 429//143
v 1.8852 0.7000 -3.4683
v 1.8942 0.6656 -3.5027
v 3.3442 0.3656 -2.8265
vn -0.4169 -0.6950 0.5858
f 430//144 431//144 432//144
v 1.9000 0.7000 -3.5000
v 1.8942 0.6656 -3.5027
v 1.8852 0.7000 -3.4683
vn -0.8908 0.1843 -0.4154
f 433//145 434//145 435//145
v 3.3501 0.4000 -2.8238
v 3.3353 0.4000 -2.7921
v 3.3442 0.3656 -2.8265
vn 0.8908 -0.1843 0.4154
f 436//146 437//146 438//146
v 1.8942 0.6656 -3.5027
v 3.3649 0.4000 -2.8555
v 3.3442 0.3656 -2.8265
vn 0.1807 -0.6950 -0.6959
f 439//147 440//147 441//147
v 1.8942 0.6656 -3.5027
v 1.9148 0.7000 -3.5317
v 3.3649 0.4000 -2.8555
vn 0.1807 -0.6950 -0.6959
f 442//148 443//148 444//148
v 1.9000 0.7000 -3.5000
v 1.9148 0.7000 -3.5317
v 1.8942 0.6656 -3.5027
vn -0.8908 0.1843 -0.4154
f 445//149 446//149 447//149
v 3.3501 0.4000 -2.8238
v 3.3442 0.3656 -2.8265
v 3.3649 0.4000 -2.8555
vn 0.8908 -0.1843 0.4154
f 448//150 449//150 450//150
v 1.9148 0.7000 -3.5317
v 3.3559 0.4344 -2.8211
v 3.3649 0.4000 -2.8555
vn 0.4169 0.6950 -0.5858
f 451//151 452//151 453//151
v 1.9148 0.7000 -3.5317
v 1.9058 0.7344 -3.4973
v 3.3559 0.4344 -2.8211
vn 0.4169 0.6950 -0.5858
f 454//152 455//152 456//152
v 1.9000 0.7000 -3.5000
v 1.9058 0.7344 -3.4973
v 1.9148 0.7000 -3.5317
vn -0.8908 0.1843 -0.4154
f 457//153 458//153 459//153
v 3.3501 0.4000 -2.8238
v 3.3649 0.4000 -2.8555
v 3.3559 0.4344 -2.8211
vn 0.8908 -0.1843 0.4154
f 460//154 461//154 462//154
v 1.9058 0.7344 -3.4973
v 3.3353 0.4000 -2.7921
v 3.3559 0.4344 -2.8211
vn -0.1807 0.6950 0.6959
f 463//155 464//155 465//155
v 1.9058 0.7344 -3.4973
v 1.8852 0.7000 -3.4683
v 3.3353 0.4000 -2.7921
vn -0.1807 0.6950 0.6959
f 466//156 467//156 468//156
v 1.9000 0.7000 -3.5000
v 1.8852 0.7000 -3.4683
v 1.9058 0.7344 -3.4973
vn -0.8908 0.1843 -0.4154
f 469//157 470//157 471//157
v 3.3501 0.4000 -2.8238
v 3.3559 0.4344 -2.8211
v 3.3353 0.4000 -2.7921
vn 0.8908 -0.1843 0.4154
f 472//158 473//158 474//158
v 3.3353 0.4000 -2.7921
v 4.7846 -0.5305 -2.1549
v 4.7854 -0.5000 -2.1159
vn -0.6130 -0.6163 0.4943
f 475//159 476//159 477//159
v 3.3353 0.4000 -2.7921
v 3.3345 0.3695 -2.8311
v 4.7846 -0.5305 -2.1549
vn -0.6130 -0.6163 0.4943
f 478//160 479//160 480//160
v 3.3501 0.4000 -2.8238
v 3.3345 0.3695 -2.8311
v 3.3353 0.4000 -2.7921
vn -0.7899 0.4903 -0.3683
f 481//161 482//161 483//161
v 4.8002 -0.5000 -2.1476
v 4.7854 -0.5000 -2.1159
v 4.7846 -0.5305 -2.1549
vn 0.7899 -0.4903 0.3683
f 484//162 485//162 486//162
v 3.3345 0.3695 -2.8311
v 4.8150 -0.5000 -2.1793
v 4.7846 -0.5305 -2.1549
vn -0.0154 -0.6163 -0.7874
f 487//163 488//163 489//163
v 3.3345 0.3695 -2.8311
v 3.3649 0.4000 -2.8555
v 4.8150 -0.5000 -2.1793
vn -0.0154 -0.6163 -0.7874
f 490//164 491//164 492//164
v 3.3501 0.4000 -2.8238
v 3.3649 0.4000 -2.8555
v 3.3345 0.3695 -2.8311
vn -0.7899 0.4903 -0.3683
f 493//165 494//165 495//165
v 4.8002 -0.5000 -2.1476
v 4.7846 -0.5305 -2.1549
v 4.8150 -0.5000 -2.1793
vn 0.7899 -0.4903 0.3683
f 496//166 497//166 498//166
v 3.3649 0.4000 -2.8555
v 4.8157 -0.4695 -2.1404
v 4.8150 -0.5000 -2.1793
vn 0.6130 0.6163 -0.4943
f 499//167 500//167 501//167
v 3.3649 0.4000 -2.8555
v 3.3656 0.4305 -2.8166
v 4.8157 -0.4695 -2.1404
vn 0.6130 0.6163 -0.4943
f 502//168 503//168 504//168
v 3.3501 0.4000 -2.8238
v 3.3656 0.4305 -2.8166
v 3.3649 0.4000 -2.8555
vn -0.7899 0.4903 -0.3683
f 505//169 506//169 507//169
v 4.8002 -0.5000 -2.1476
v 4.8150 -0.5000 -2.1793
v 4.8157 -0.4695 -2.1404
vn 0.7899 -0.4903 0.3683
f 508//170 509//170 510//170
v 3.3656 0.4305 -2.8166
v 4.7854 -0.5000 -2.1159
v 4.8157 -0.4695 -2.1404
vn 0.0154 0.6163 0.7874
f 511//171 512//171 513//171
v 3.3656 0.4305 -2.8166
v 3.3353 0.4000 -2.7921
v 4.7854 -0.5000 -2.1159
vn 0.0154 0.6163 0.7874
f 514//172 515//172 516//172
v 3.3501 0.4000 -2.8238
v 3.3353 0.4000 -2.7921
v 3.3656 0.4305 -2.8166
vn -0.7899 0.4903 -0.3683
f 517//173 518//173 519//173
v 4.8002 -0.5000 -2.1476
v 4.8157 -0.4695 -2.1404
v 4.7854 -0.5000 -2.1159
vn 0.7899 -0.4903 0.3683
f 520//174 521//174 522//174
o deck
usemtl deck
s off
v 0.0750 0.8000 -7.5000
v -0.7957 0.7272 -6.1714
v 0.7957 0.7272 -6.1714
vn 0.0000 0.9985 0.0547
f 523//175 524//175 525//175
v 0.0750 0.8000 -7.5000
v -0.0750 0.8000 -7.5000
v -0.7957 0.7272 -6.1714
vn 0.0000 0.9985 0.0547
f 526//176 527//176 528//176
v 0.7957 0.7272 -6.1714
v -1.2926 0.6675 -4.8429
v 1.2926 0.6675 -4.8429
vn 0.0000 0.9990 0.0449
f 529//177 530//177 531//177
v 0.7957 0.7272 -6.1714
v -0.7957 0.7272 -6.1714
v -1.2926 0.6675 -4.8429
vn 0.0000 0.9990 0.0449
f 532//178 533//178 534//178
v 1.2926 0.6675 -4.8429
v -1.7168 0.6205 -3.5143
v 1.7168 0.6205 -3.5143
vn 0.0000 0.9994 0.0353
f 535//179 536//179 537//179
v 1.2926 0.6675 -4.8429
v -1.2926 0.6675 -4.8429
v -1.7168 0.6205 -3.5143
vn 0.0000 0.9994 0.0353
f 538//180 539//180 540//180
v 1.7168 0.6205 -3.5143
v -2.0998 0.5863 -2.1857
v 2.0998 0.5863 -2.1857
vn 0.0000 0.9997 0.0258
f 541//181 542//181 543//181
v 1.7168 0.6205 -3.5143
v -1.7168 0.6205 -3.5143
v -2.0998 0.5863 -2.1857
vn 0.0000 0.9997 0.0258
f 544//182 545//182 546//182
v 2.0998 0.5863 -2.1857
v -2.4548 0.5653 -0.8571
v 2.4548 0.5653 -0.8571
vn 0.0000 0.9999 0.0158
f 547//183 548//183 549//183
v 2.0998 0.5863 -2.1857
v -2.0998 0.5863 -2.1857
v -2.4548 0.5653 -0.8571
vn 0.0000 0.9999 0.0158
f 550//184 551//184 552//184
v 2.4548 0.5653 -0.8571
v -2.5000 0.5588 0.4714
v 2.5000 0.5588 0.4714
vn 0.0000 1.0000 0.0049
f 553//185 554//185 555//185
v 2.4548 0.5653 -0.8571
v -2.4548 0.5653 -0.8571
v -2.5000 0.5588 0.4714
vn 0.0000 1.0000 0.0049
f 556//186 557//186 558//186
v 2.5000 0.5588 0.4714
v -2.4625 0.5682 1.8000
v 2.4625 0.5682 1.9000
vn 0.0001 1.0000 -0.0066
f 559//187 560//187 561//187
v 2.5000 0.5588 0.4714
v -2.5000 0.5588 0.4714
v -2.4625 0.5682 1.8000
vn 0.0000 1.0000 -0.0071
f 562//188 563//188 564//188
o sail
usemtl sail
s off
v 1.9000 0.7000 -3.5000
v 3.4939 0.4000 -3.3606
v 3.4035 0.4000 -4.0472
vn 0.1870 0.9821 -0.0246
f 565//189 566//189 567//189
v 3.4035 0.4000 -4.0472
v 3.4939 0.4000 -3.3606
v 5.0878 -0.5000 -3.2211
vn 0.4950 0.8665 -0.0652
f 568//190 569//190 570//190
v 3.4035 0.4000 -4.0472
v 5.0878 -0.5000 -3.2211
v 4.9070 -0.5000 -4.5945
vn 0.4950 0.8665 -0.0652
f 571//191 572//191 573//191
v 1.9000 0.7000 -3.5000
v 3.3501 0.4000 -2.8238
v 3.4939 0.4000 -3.3606
vn 0.1807 0.9824 0.0484
f 574//192 575//192 576//192
v 3.4939 0.4000 -3.3606
v 3.3501 0.4000 -2.8238
v 4.8002 -0.5000 -2.1476
vn 0.4791 0.8683 0.1284
f 577//193 578//193 579//193
v 3.4939 0.4000 -3.3606
v 4.8002 -0.5000 -2.1476
v 5.0878 -0.5000 -3.2211
vn 0.4791 0.8683 0.1284
f 580//194 581//194 582//194
o wood
usemtl wood
s off
v -0.0750 0.8000 -7.5000
v -0.6891 -0.2088 -6.1714
v -0.7957 0.7272 -6.1714
vn -0.8724 -0.0994 -0.4787
f 583//195 584//195 585//195
v -0.0750 0.8000 -7.5000
v -0.0650 0.2387 -7.5000
v -0.6891 -0.2088 -6.1714
vn -0.9029 -0.0162 -0.4296
f 586//196 587//196 588//196
v -0.0650 0.2387 -7.5000
v -0.3978 -0.6860 -6.1714
v -0.6891 -0.2088 -6.1714
vn -0.7395 -0.4513 -0.4994
f 589//197 590//197 591//197
v -0.0650 0.2387 -7.5000
v -0.0375 -0.0475 -7.5000
v -0.3978 -0.6860 -6.1714
vn -0.9492 -0.0911 -0.3012
f 592//198 593//198 594//198
v -0.0375 -0.0475 -7.5000
v 0.0000 -0.8470 -6.1714
v -0.3978 -0.6860 -6.1714
vn -0.3290 -0.8132 -0.4801
f 595//199 596//199 597//199
v -0.0375 -0.0475 -7.5000
v 0.0000 -0.1440 -7.5000
v 0.0000 -0.8470 -6.1714
vn -0.9155 -0.3556 -0.1882
f 598//200 599//200 600//200
v 0.0000 -0.1440 -7.5000
v 0.3978 -0.6860 -6.1714
v 0.0000 -0.8470 -6.1714
vn 0.3368 -0.8323 -0.4404
f 601//201 602//201 603//201
v 0.0000 -0.1440 -7.5000
v 0.0375 -0.0475 -7.5000
v 0.3978 -0.6860 -6.1714
vn 0.8573 -0.3330 -0.3926
f 604//202 605//202 606//202
v 0.0375 -0.0475 -7.5000
v 0.6891 -0.2088 -6.1714
v 0.3978 -0.6860 -6.1714
vn 0.7689 -0.4693 -0.4341
f 607//203 608//203 609//203
v 0.0375 -0.0475 -7.5000
v 0.0650 0.2387 -7.5000
v 0.6891 -0.2088 -6.1714
vn 0.8904 -0.0854 -0.4471
f 610//204 611//204 612//204
v 0.0650 0.2387 -7.5000
v 0.7957 0.7272 -6.1714
v 0.6891 -0.2088 -6.1714
vn 0.8869 -0.1010 -0.4507
f 613//205 614//205 615//205
v 0.0650 0.2387 -7.5000
v 0.0750 0.8000 -7.5000
v 0.7957 0.7272 -6.1714
vn 0.8785 -0.0157 -0.4774
f 616//206 617//206 618//206
v -0.7957 0.7272 -6.1714
v -1.1194 -0.4417 -4.8429
v -1.2926 0.6675 -4.8429
vn -0.9247 -0.1444 -0.3523
f 619//207 620//207 621//207
v -0.7957 0.7272 -6.1714
v -0.6891 -0.2088 -6.1714
v -1.1194 -0.4417 -4.8429
vn -0.9402 -0.1071 -0.3233
f 622//208 623//208 624//208
v -0.6891 -0.2088 -6.1714
v -0.6463 -1.0071 -4.8429
v -1.1194 -0.4417 -4.8429
vn -0.7214 -0.6036 -0.3394
f 625//209 626//209 627//209
v -0.6891 -0.2088 -6.1714
v -0.3978 -0.6860 -6.1714
v -0.6463 -1.0071 -4.8429
vn -0.8208 -0.5009 -0.2746
f 628//210 629//210 630//210
v -0.3978 -0.6860 -6.1714
v 0.0000 -1.1979 -4.8429
v -0.6463 -1.0071 -4.8429
vn -0.2723 -0.9224 -0.2738
f 631//211 632//211 633//211
v -0.3978 -0.6860 -6.1714
v 0.0000 -0.8470 -6.1714
v 0.0000 -1.1979 -4.8429
vn -0.3643 -0.9004 -0.2378
f 634//212 635//212 636//212
v 0.0000 -0.8470 -6.1714
v 0.6463 -1.0071 -4.8429
v 0.0000 -1.1979 -4.8429
vn 0.2744 -0.9297 -0.2455
f 637//213 638//213 639//213
v 0.0000 -0.8470 -6.1714
v 0.3978 -0.6860 -6.1714
v 0.6463 -1.0071 -4.8429
vn 0.3598 -0.8893 -0.2822
f 640//214 641//214 642//214
v 0.3978 -0.6860 -6.1714
v 1.1194 -0.4417 -4.8429
v 0.6463 -1.0071 -4.8429
vn 0.7349 -0.6149 -0.2860
f 643//215 644//215 645//215
v 0.3978 -0.6860 -6.1714
v 0.6891 -0.2088 -6.1714
v 1.1194 -0.4417 -4.8429
vn 0.8011 -0.4890 -0.3452
f 646//216 647//216 648//216
v 0.6891 -0.2088 -6.1714
v 1.2926 0.6675 -4.8429
v 1.1194 -0.4417 -4.8429
vn 0.9334 -0.1457 -0.3279
f 649//217 650//217 651//217
v 0.6891 -0.2088 -6.1714
v 0.7957 0.7272 -6.1714
v 1.2926 0.6675 -4.8429
vn 0.9298 -0.1059 -0.3525
f 652//218 653//218 654//218
v -1.2926 0.6675 -4.8429
v -1.4868 -0.6208 -3.5143
v -1.7168 0.6205 -3.5143
vn -0.9364 -0.1735 -0.3051
f 655//219 656//219 657//219
v -1.2926 0.6675 -4.8429
v -1.1194 -0.4417 -4.8429
v -1.4868 -0.6208 -3.5143
vn -0.9479 -0.1480 -0.2821
f 658//220 659//220 660//220
v -1.1194 -0.4417 -4.8429
v -0.8584 -1.2536 -3.5143
v -1.4868 -0.6208 -3.5143
vn -0.6813 -0.6765 -0.2796
f 661//221 662//221 663//221
v -1.1194 -0.4417 -4.8429
v -0.6463 -1.0071 -4.8429
v -0.8584 -1.2536 -3.5143
vn -0.7455 -0.6238 -0.2348
f 664//222 665//222 666//222
v -0.6463 -1.0071 -4.8429
v 0.0000 -1.4671 -3.5143
v -0.8584 -1.2536 -3.5143
vn -0.2358 -0.9481 -0.2135
f 667//223 668//223 669//223
v -0.6463 -1.0071 -4.8429
v 0.0000 -1.1979 -4.8429
v 0.0000 -1.4671 -3.5143
vn -0.2779 -0.9415 -0.1908
f 670//224 671//224 672//224
v 0.0000 -1.1979 -4.8429
v 0.8584 -1.2536 -3.5143
v 0.0000 -1.4671 -3.5143
vn 0.2368 -0.9522 -0.1929
f 673//225 674//225 675//225
v 0.0000 -1.1979 -4.8429
v 0.6463 -1.0071 -4.8429
v 0.8584 -1.2536 -3.5143
vn 0.2763 -0.9361 -0.2178
f 676//226 677//226 678//226
v 0.6463 -1.0071 -4.8429
v 1.4868 -0.6208 -3.5143
v 0.8584 -1.2536 -3.5143
vn 0.6893 -0.6845 -0.2371
f 679//227 680//227 681//227
v 0.6463 -1.0071 -4.8429
v 1.1194 -0.4417 -4.8429
v 1.4868 -0.6208 -3.5143
vn 0.7349 -0.6149 -0.2861
f 682//228 683//228 684//228
v 1.1194 -0.4417 -4.8429
v 1.7168 0.6205 -3.5143
v 1.4868 -0.6208 -3.5143
vn 0.9427 -0.1747 -0.2842
f 685//229 686//229 687//229
v 1.1194 -0.4417 -4.8429
v 1.2926 0.6675 -4.8429
v 1.7168 0.6205 -3.5143
vn 0.9408 -0.1469 -0.3056
f 688//230 689//230 690//230
v -1.7168 0.6205 -3.5143
v -1.8185 -0.7696 -2.1857
v -2.0998 0.5863 -2.1857
vn -0.9410 -0.1952 -0.2763
f 691//231 692//231 693//231
v -1.7168 0.6205 -3.5143
v -1.4868 -0.6208 -3.5143
v -1.8185 -0.7696 -2.1857
vn -0.9502 -0.1761 -0.2570
f 694//232 695//232 696//232
v -1.4868 -0.6208 -3.5143
v -1.0499 -1.4608 -2.1857
v -1.8185 -0.7696 -2.1857
vn -0.6487 -0.7213 -0.2428
f 697//233 698//233 699//233
v -1.4868 -0.6208 -3.5143
v -0.8584 -1.2536 -3.5143
v -1.0499 -1.4608 -2.1857
vn -0.6941 -0.6893 -0.2076
f 700//234 701//234 702//234
v -0.8584 -1.2536 -3.5143
v 0.0000 -1.6940 -2.1857
v -1.0499 -1.4608 -2.1857
vn -0.2133 -0.9602 -0.1805
f 703//235 704//235 705//235
v -0.8584 -1.2536 -3.5143
v 0.0000 -1.4671 -3.5143
v 0.0000 -1.6940 -2.1857
vn -0.2381 -0.9574 -0.1635
f 706//236 707//236 708//236
v 0.0000 -1.4671 -3.5143
v 1.0499 -1.4608 -2.1857
v 0.0000 -1.6940 -2.1857
vn 0.2139 -0.9629 -0.1645
f 709//237 710//237 711//237
v 0.0000 -1.4671 -3.5143
v 0.8584 -1.2536 -3.5143
v 1.0499 -1.4608 -2.1857
vn 0.2373 -0.9540 -0.1830
f 712//238 713//238 714//238
v 0.8584 -1.2536 -3.5143
v 1.8185 -0.7696 -2.1857
v 1.0499 -1.4608 -2.1857
vn 0.6541 -0.7273 -0.2077
f 715//239 716//239 717//239
v 0.8584 -1.2536 -3.5143
v 1.4868 -0.6208 -3.5143
v 1.8185 -0.7696 -2.1857
vn 0.6874 -0.6826 -0.2481
f 718//240 719//240 720//240
v 1.4868 -0.6208 -3.5143
v 2.0998 0.5863 -2.1857
v 1.8185 -0.7696 -2.1857
vn 0.9460 -0.1963 -0.2582
f 721//241 722//241 723//241
v 1.4868 -0.6208 -3.5143
v 1.7168 0.6205 -3.5143
v 2.0998 0.5863 -2.1857
vn 0.9448 -0.1751 -0.2769
f 724//242 725//242 726//242
v -2.0998 0.5863 -2.1857
v -2.1259 -0.8411 -0.8571
v -2.4548 0.5653 -0.8571
vn -0.9415 -0.2202 -0.2550
f 727//243 728//243 729//243
v -2.0998 0.5863 -2.1857
v -1.8185 -0.7696 -2.1857
v -2.1259 -0.8411 -0.8571
vn -0.9526 -0.1977 -0.2311
f 730//244 731//244 732//244
v -1.8185 -0.7696 -2.1857
v -1.2274 -1.5581 -0.8571
v -2.1259 -0.8411 -0.8571
vn -0.6132 -0.7684 -0.1832
f 733//245 734//245 735//245
v -1.8185 -0.7696 -2.1857
v -1.0499 -1.4608 -2.1857
v -1.2274 -1.5581 -0.8571
vn -0.6619 -0.7360 -0.1423
f 736//246 737//246 738//246
v -1.0499 -1.4608 -2.1857
v 0.0000 -1.8000 -0.8571
v -1.2274 -1.5581 -0.8571
vn -0.1924 -0.9765 -0.0972
f 739//247 740//247 741//247
v -1.0499 -1.4608 -2.1857
v 0.0000 -1.6940 -2.1857
v 0.0000 -1.8000 -0.8571
vn -0.2162 -0.9733 -0.0776
f 742//248 743//248 744//248
v 0.0000 -1.6940 -2.1857
v 1.2274 -1.5581 -0.8571
v 0.0000 -1.8000 -0.8571
vn 0.1928 -0.9781 -0.0780
f 745//249 746//249 747//249
v 0.0000 -1.6940 -2.1857
v 1.0499 -1.4608 -2.1857
v 1.2274 -1.5581 -0.8571
vn 0.2157 -0.9713 -0.0999
f 748//250 749//250 750//250
v 1.0499 -1.4608 -2.1857
v 2.1259 -0.8411 -0.8571
v 1.2274 -1.5581 -0.8571
vn 0.6177 -0.7740 -0.1392
f 751//251 752//251 753//251
v 1.0499 -1.4608 -2.1857
v 1.8185 -0.7696 -2.1857
v 2.1259 -0.8411 -0.8571
vn 0.6564 -0.7298 -0.1912
f 754//252 755//252 756//252
v 1.8185 -0.7696 -2.1857
v 2.4548 0.5653 -0.8571
v 2.1259 -0.8411 -0.8571
vn 0.9474 -0.2215 -0.2311
f 757//253 758//253 759//253
v 1.8185 -0.7696 -2.1857
v 2.0998 0.5863 -2.1857
v 2.4548 0.5653 -0.8571
vn 0.9465 -0.1964 -0.2560
f 760//254 761//254 762//254
v -2.4548 0.5653 -0.8571
v -2.1651 -0.8438 0.4714
v -2.5000 0.5588 0.4714
vn -0.9721 -0.2321 -0.0342
f 763//255 764//255 765//255
v -2.4548 0.5653 -0.8571
v -2.1259 -0.8411 -0.8571
v -2.1651 -0.8438 0.4714
vn -0.9733 -0.2276 -0.0291
f 766//256 767//256 768//256
v -2.1259 -0.8411 -0.8571
v -1.2500 -1.5588 0.4714
v -2.1651 -0.8438 0.4714
vn -0.6156 -0.7878 -0.0197
f 769//257 770//257 771//257
v -2.1259 -0.8411 -0.8571
v -1.2274 -1.5581 -0.8571
v -1.2500 -1.5588 0.4714
vn -0.6237 -0.7816 -0.0110
f 772//258 773//258 774//258
v -1.2274 -1.5581 -0.8571
v 0.0000 -1.8000 0.4714
v -1.2500 -1.5588 0.4714
vn -0.1895 -0.9819 -0.0037
f 775//259 776//259 777//259
v -1.2274 -1.5581 -0.8571
v 0.0000 -1.8000 -0.8571
v 0.0000 -1.8000 0.4714
vn -0.1934 -0.9811 0.0000
f 778//260 779//260 780//260
v 0.0000 -1.8000 -0.8571
v 1.2500 -1.5588 0.4714
v 0.0000 -1.8000 0.4714
vn 0.1895 -0.9819 0.0000
f 781//261 782//261 783//261
v 0.0000 -1.8000 -0.8571
v 1.2274 -1.5581 -0.8571
v 1.2500 -1.5588 0.4714
vn 0.1934 -0.9811 -0.0038
f 784//262 785//262 786//262
v 1.2274 -1.5581 -0.8571
v 2.1651 -0.8438 0.4714
v 1.2500 -1.5588 0.4714
vn 0.6157 -0.7879 -0.0109
f 787//263 788//263 789//263
v 1.2274 -1.5581 -0.8571
v 2.1259 -0.8411 -0.8571
v 2.1651 -0.8438 0.4714
vn 0.6236 -0.7815 -0.0199
f 790//264 791//264 792//264
v 2.1259 -0.8411 -0.8571
v 2.5000 0.5588 0.4714
v 2.1651 -0.8438 0.4714
vn 0.9722 -0.2322 -0.0291
f 793//265 794//265 795//265
v 2.1259 -0.8411 -0.8571
v 2.4548 0.5653 -0.8571
v 2.5000 0.5588 0.4714
vn 0.9732 -0.2276 -0.0342
f 796//266 797//266 798//266
v -2.5000 0.5588 0.4714
v -2.1326 -0.8399 2.1500
v -2.4625 0.5682 1.8000
vn -0.9748 -0.2212 0.0291
f 799//267 800//267 801//267
v -2.5000 0.5588 0.4714
v -2.1651 -0.8438 0.4714
v -2.1326 -0.8399 2.1500
vn -0.9725 -0.2322 0.0193
f 802//268 803//268 804//268
v -2.1651 -0.8438 0.4714
v -1.2312 -1.5578 1.6000
v -2.1326 -0.8399 2.1500
vn -0.6178 -0.7862 0.0137
f 805//269 806//269 807//269
v -2.1651 -0.8438 0.4714
v -1.2500 -1.5588 0.4714
v -1.2312 -1.5578 1.6000
vn -0.6157 -0.7879 0.0109
f 808//270 809//270 810//270
v -1.2500 -1.5588 0.4714
v 0.0000 -1.8000 2.2500
v -1.2312 -1.5578 1.6000
vn -0.1951 -0.9808 0.0041
f 811//271 812//271 813//271
v -1.2500 -1.5588 0.4714
v 0.0000 -1.8000 0.4714
v 0.0000 -1.8000 2.2500
vn -0.1895 -0.9819 -0.0000
f 814//272 815//272 816//272
v 0.0000 -1.8000 0.4714
v 1.2312 -1.5578 1.7000
v 0.0000 -1.8000 2.2500
vn 0.1930 -0.9812 -0.0000
f 817//273 818//273 819//273
v 0.0000 -1.8000 0.4714
v 1.2500 -1.5588 0.4714
v 1.2312 -1.5578 1.7000
vn 0.1895 -0.9819 0.0037
f 820//274 821//274 822//274
v 1.2500 -1.5588 0.4714
v 2.1326 -0.8399 2.1000
v 1.2312 -1.5578 1.7000
vn 0.6202 -0.7844 0.0101
f 823//275 824//275 825//275
v 1.2500 -1.5588 0.4714
v 2.1651 -0.8438 0.4714
v 2.1326 -0.8399 2.1000
vn 0.6156 -0.7879 0.0141
f 826//276 827//276 828//276
v 2.1651 -0.8438 0.4714
v 2.4625 0.5682 1.9000
v 2.1326 -0.8399 2.1000
vn 0.9741 -0.2254 0.0200
f 829//277 830//277 831//277
v 2.1651 -0.8438 0.4714
v 2.5000 0.5588 0.4714
v 2.4625 0.5682 1.9000
vn 0.9723 -0.2322 0.0271
f 832//278 833//278 834//278
v 0.0362 0.7000 -2.4853
v 2.9579 1.6817 1.4620
v 2.8853 1.8000 1.4803
vn -0.6406 -0.4855 0.5949
f 835//279 836//279 837//279
v 0.0362 0.7000 -2.4853
v 0.1399 0.5310 -2.5115
v 2.9579 1.6817 1.4620
vn -0.6406 -0.4855 0.5949
f 838//280 839//280 840//280
v 0.2000 0.7000 -2.6000
v 0.1399 0.5310 -2.5115
v 0.0362 0.7000 -2.4853
vn -0.5594 -0.2198 -0.7992
f 841//281 842//281 843//281
v 3.0000 1.8000 1.4000
v 2.8853 1.8000 1.4803
v 2.9579 1.6817 1.4620
vn 0.5594 0.2198 0.7992
f 844//282 845//282 846//282
v 0.1399 0.5310 -2.5115
v 3.0726 1.6817 1.3817
v 2.9579 1.6817 1.4620
vn 0.1318 -0.9732 0.1883
f 847//283 848//283 849//283
v 0.1399 0.5310 -2.5115
v 0.3038 0.5310 -2.6262
v 3.0726 1.6817 1.3817
vn 0.1318 -0.9732 0.1883
f 850//284 851//284 852//284
v 0.2000 0.7000 -2.6000
v 0.3038 0.5310 -2.6262
v 0.1399 0.5310 -2.5115
vn -0.5594 -0.2198 -0.7992
f 853//285 854//285 855//285
v 3.0000 1.8000 1.4000
v 2.9579 1.6817 1.4620
v 3.0726 1.6817 1.3817
vn 0.5594 0.2198 0.7992
f 856//286 857//286 858//286
v 0.3038 0.5310 -2.6262
v 3.1147 1.8000 1.3197
v 3.0726 1.6817 1.3817
vn 0.7783 -0.4855 -0.3983
f 859//287 860//287 861//287
v 0.3038 0.5310 -2.6262
v 0.3638 0.7000 -2.7147
v 3.1147 1.8000 1.3197
vn 0.7783 -0.4855 -0.3983
f 862//288 863//288 864//288
v 0.2000 0.7000 -2.6000
v 0.3638 0.7000 -2.7147
v 0.3038 0.5310 -2.6262
vn -0.5594 -0.2198 -0.7992
f 865//289 866//289 867//289
v 3.0000 1.8000 1.4000
v 3.0726 1.6817 1.3817
v 3.1147 1.8000 1.3197
vn 0.5594 0.2198 0.7992
f 868//290 869//290 870//290
v 0.3638 0.7000 -2.7147
v 3.0421 1.9183 1.3380
v 3.1147 1.8000 1.3197
vn 0.6522 0.4900 -0.5783
f 871//291 872//291 873//291
v 0.3638 0.7000 -2.7147
v 0.2601 0.8690 -2.6885
v 3.0421 1.9183 1.3380
vn 0.6522 0.4900 -0.5783
f 874//292 875//292 876//292
v 0.2000 0.7000 -2.6000
v 0.2601 0.8690 -2.6885
v 0.3638 0.7000 -2.7147
vn -0.5594 -0.2198 -0.7992
f 877//293 878//293 879//293
v 3.0000 1.8000 1.4000
v 3.1147 1.8000 1.3197
v 3.0421 1.9183 1.3380
vn 0.5594 0.2198 0.7992
f 880//294 881//294 882//294
v 0.2601 0.8690 -2.6885
v 2.9274 1.9183 1.4183
v 3.0421 1.9183 1.3380
vn -0.1202 0.9778 -0.1717
f 883//295 884//295 885//295
v 0.2601 0.8690 -2.6885
v 0.0962 0.8690 -2.5738
v 2.9274 1.9183 1.4183
vn -0.1202 0.9778 -0.1717
f 886//296 887//296 888//296
v 0.2000 0.7000 -2.6000
v 0.0962 0.8690 -2.5738
v 0.2601 0.8690 -2.6885
vn -0.5594 -0.2198 -0.7992
f 889//297 890//297 891//297
v 3.0000 1.8000 1.4000
v 3.0421 1.9183 1.3380
v 2.9274 1.9183 1.4183
vn 0.5594 0.2198 0.7992
f 892//298 893//298 894//298
v 0.0962 0.8690 -2.5738
v 2.8853 1.8000 1.4803
v 2.9274 1.9183 1.4183
vn -0.7666 0.4900 0.4149
f 895//299 896//299 897//299
v 0.0962 0.8690 -2.5738
v 0.0362 0.7000 -2.4853
v 2.8853 1.8000 1.4803
vn -0.7666 0.4900 0.4149
f 898//300 899//300 900//300
v 0.2000 0.7000 -2.6000
v 0.0362 0.7000 -2.4853
v 0.0962 0.8690 -2.5738
vn -0.5594 -0.2198 -0.7992
f 901//301 902//301 903//301
v 3.0000 1.8000 1.4000
v 2.9274 1.9183 1.4183
v 2.8853 1.8000 1.4803
vn 0.5594 0.2198 0.7992
f 904//302 905//302 906//302
